<svg width="562" height="249" viewBox="0 0 562 249" fill="none" xmlns="http://www.w3.org/2000/svg">
<path d="M450.198 190.898L488.419 165.066C488.419 165.066 464.506 189.345 467.871 193.886C470.474 197.38 508.435 182.356 508.435 182.356C508.435 182.356 485.816 198.254 488.678 206.462C491.539 214.67 527.157 217.755 527.157 217.755L488.678 229.587L428.356 226.2L450.198 190.887V190.898Z" fill="#BEB293"/>
<path d="M488.883 230.687L426.231 227.171L449.082 190.219L497.74 157.333L489.483 165.724C478.35 177.028 467.45 190.683 469.003 193.26C471.755 194.328 491.213 187.954 507.823 181.385L517.048 177.729L509.336 183.154C503.218 187.458 487.82 199.969 489.987 206.171C492.126 212.33 517.647 215.846 527.308 216.676L532.854 217.162L488.897 230.676L488.883 230.687ZM430.469 225.251L488.474 228.508L521.708 218.283C511.271 217.043 489.769 213.678 487.357 206.753C485.272 200.778 494.647 191.761 501.378 186.25C497.999 187.511 493.843 189.011 489.66 190.424C471.442 196.582 467.858 195.989 466.7 194.425C464.166 191.006 472.805 180.188 480.054 172.131L451.289 191.567L430.455 225.24L430.469 225.251Z" fill="black"/>
<path d="M324.61 128.179L345.54 91.2803C345.54 91.2803 342.774 108.71 348.837 107.934C354.165 107.254 381.43 83.5576 381.43 83.5576L340.089 139.773L327.444 139.169L324.61 128.168V128.179Z" fill="#BEB293"/>
<path d="M340.839 140.895L326.313 140.205L323.193 128.049L348.033 84.2696L346.902 91.4098C346.057 96.7703 345.812 105.065 347.951 106.693C348.156 106.855 348.347 106.898 348.619 106.866C351.78 106.456 367.355 94.1817 380.422 82.835L389.061 75.3281L340.839 140.895V140.895ZM328.562 138.145L339.326 138.662L374.113 91.3558C365.352 98.6471 352.898 108.505 349.041 109.001C347.91 109.152 346.875 108.894 346.044 108.257C343.727 106.488 343.387 101.581 343.55 97.4067L326.014 128.308L328.548 138.156L328.562 138.145Z" fill="black"/>
<path d="M208.122 138.878C195.9 109.498 196.935 88.8105 196.935 88.8105C196.935 88.8105 205.901 119.475 216.434 119.065C226.967 118.655 248.932 39.0986 248.932 39.0986C250.226 62.9784 246.097 103.21 256.535 103.21C263.566 103.21 288.447 63.5932 288.447 63.5932C288.447 63.5932 275.189 104.547 267.899 116.692C260.623 128.837 226.558 158.433 226.558 158.433L208.095 138.878H208.122Z" fill="#BEB293"/>
<path d="M226.475 160.126L206.895 139.385L206.827 139.213C194.673 109.983 195.572 88.9723 195.586 88.7674L195.994 80.7535L198.283 88.5624C201.635 99.9954 209.429 117.986 216.242 117.986C216.297 117.986 216.338 117.986 216.392 117.986C217.332 117.954 222.633 115.883 235.346 78.6503C242.063 58.9661 247.582 39.0771 247.636 38.8722L249.871 30.7612L250.321 39.0555C250.675 45.5594 250.621 53.4115 250.58 61.0155C250.471 78.2512 250.362 97.7843 255.172 101.613C255.758 102.077 256.248 102.131 256.561 102.131C260.377 102.131 275.474 81.8752 287.261 63.1079L292.997 53.9723L289.795 63.8521C289.25 65.5239 276.414 105.054 269.165 117.145C261.876 129.29 228.996 157.937 227.593 159.145L226.475 160.116V160.126ZM209.348 138.371L226.68 156.74C232.58 151.541 260.322 126.874 266.685 116.239C271.632 107.977 279.494 85.9199 283.895 73.0524C275.474 85.7689 262.216 104.299 256.548 104.299C255.308 104.299 254.191 103.911 253.223 103.145C247.609 98.6796 247.718 80.3868 247.841 61.0155C247.868 56.5933 247.895 52.0956 247.841 47.8244C245.593 55.5039 241.995 67.4007 237.962 79.2112C224.091 119.841 218.777 120.057 216.515 120.143C208.844 120.424 202.412 107.578 198.774 98.2266C199.673 106.963 202.235 121.211 209.348 138.371V138.371Z" fill="black"/>
<path d="M138.045 170.297C138.045 170.297 101.773 124.813 89.8777 101.775C104.689 117.803 117.77 142.869 132.786 142.308C138.372 142.103 137.732 131.921 134.162 121.988C145.73 127.866 150.963 128.815 154.764 116.951C154.764 116.951 159.697 133.582 164.766 137.67C167.831 140.14 177.451 169.165 168.731 177.804C163.049 183.434 138.045 170.297 138.045 170.297V170.297Z" fill="#BEB293"/>
<path d="M164.179 180.242C154.846 180.242 139.421 172.314 137.296 171.193L137.05 171.063L136.9 170.869C136.533 170.416 100.424 125.04 88.6239 102.174L84.4135 94.0093L90.9948 101.128C95.2733 105.755 99.4156 111.148 103.435 116.379C112.973 128.772 122.879 141.596 132.731 141.23C133.344 141.208 133.821 140.981 134.243 140.528C136.437 138.123 135.865 130.616 132.867 122.279L131.872 119.529L134.911 121.071C140.825 124.069 145.035 125.763 147.801 124.9C150.09 124.188 151.889 121.578 153.456 116.681L154.832 112.399L156.113 116.703C157.462 121.243 161.822 133.733 165.76 136.915C169.575 139.989 178.746 169.629 169.821 178.473C168.553 179.735 166.578 180.242 164.207 180.242H164.179ZM139.04 169.521C148.333 174.374 164.125 180.63 167.654 177.125C175.748 169.1 166.523 140.626 163.784 138.425C160.01 135.384 156.44 126.194 154.641 120.941C153.088 124.264 151.208 126.151 148.782 126.906C145.498 127.931 141.615 126.809 136.342 124.328C138.413 131.08 139.353 138.576 136.437 141.79C135.538 142.783 134.298 143.333 132.84 143.387C121.272 143.797 111.488 131.037 101.078 117.501C100.533 116.789 99.9879 116.077 99.4292 115.365C113.982 137.875 136.914 166.857 139.026 169.521H139.04Z" fill="black"/>
<path d="M84.031 170.006C84.031 170.006 96.7031 183.132 101.772 196.863L136.681 189.453C136.681 189.453 122.647 165.832 121.475 158.735C117.578 166.759 118.859 170.243 111.651 168.69C104.429 167.148 77.9947 135.632 66.876 127.855C77.9947 144.088 92.2883 159.35 93.0513 168.604C93.6917 176.37 84.0446 169.995 84.0446 169.995L84.031 170.006Z" fill="#BEB293"/>
<path d="M100.832 198.178L100.464 197.165C95.518 183.769 83.0639 170.783 82.9413 170.653L75.5697 163.027L84.8898 169.175C86.7021 170.362 89.8088 171.764 90.9533 171.311C91.512 171.084 91.7845 170.103 91.6619 168.69C91.1577 162.499 84.2221 153.363 76.2101 142.783C72.681 138.134 69.0429 133.323 65.65 128.383L61.9847 123.034L67.7484 127.068C72.7219 130.551 80.3933 138.371 88.5143 146.644C97.3575 155.672 108.367 166.9 111.978 167.665C116.107 168.55 116.366 167.892 117.987 163.599C118.519 162.175 119.2 160.407 120.181 158.368L122.102 154.399L122.797 158.616C123.928 165.465 137.745 188.784 137.895 189.011L138.589 190.175L100.818 198.189L100.832 198.178ZM88.6505 173.328C92.6838 178.106 99.1425 186.584 102.699 195.558L134.761 188.752C132.322 184.599 124.282 170.642 121.23 162.596C120.998 163.179 120.794 163.718 120.617 164.214C119.036 168.41 117.987 171.182 111.297 169.747C107.114 168.852 99.1016 160.924 86.3887 147.96C82.1237 143.613 77.7907 139.18 73.9482 135.534C75.4879 137.605 77.0413 139.655 78.5674 141.672C86.7702 152.49 93.8556 161.841 94.4143 168.55C94.6187 170.987 93.8693 172.573 92.2205 173.231C91.1577 173.662 89.9041 173.608 88.6778 173.328H88.6505Z" fill="black"/>
<path d="M82.2722 194.846L66.4117 174.946C66.4117 174.946 70.3768 187.911 65.1172 188.989C59.8577 190.068 58.0999 188.062 58.0999 188.062C58.0999 188.062 64.5313 204.736 57.1188 211.057C49.7064 217.388 41.9124 212.448 41.9124 212.448L64.3406 236.026C64.3406 236.026 91.8376 229.576 91.8376 228.81C91.8376 228.045 82.2859 194.835 82.2859 194.835L82.2722 194.846Z" fill="#BEB293"/>
<path d="M63.8091 237.288L34.3091 206.268L42.7571 211.618C43.0297 211.79 49.6791 215.835 56.1241 210.334C62.9098 204.532 56.8599 188.547 56.7918 188.385L54.2438 181.774L59.2172 187.458C59.2172 187.458 60.6207 188.806 64.7766 187.954C67.3655 187.425 66.6161 180.21 65.09 175.205L63.1415 168.831L83.5531 194.436L83.6076 194.619C87.1912 207.066 93.2002 228.055 93.2002 228.843C93.2002 229.824 93.2002 230.418 64.7221 237.094L63.8228 237.31L63.8091 237.288ZM46.15 215.123L64.8583 234.786C75.7045 232.23 87.4501 229.296 90.3524 228.282C89.4939 224.906 84.466 207.271 81.005 195.256L68.9734 180.166C69.5593 184.297 69.3821 189.227 65.4579 190.035C63.2369 190.488 61.5064 190.445 60.2255 190.208C61.738 195.223 64.2588 206.549 58.1135 211.801C53.8486 215.447 49.4202 215.717 46.15 215.123V215.123Z" fill="black"/>
<path d="M58.0865 155.187C61.8745 159.188 65.4445 163.297 68.9328 167.45C72.4346 171.592 75.8002 175.809 79.1386 180.037C82.436 184.287 85.6926 188.547 88.8266 192.872C91.9741 197.187 95.04 201.555 97.8742 206.02C94.0725 202.019 90.5162 197.909 87.0279 193.757C83.5261 189.615 80.1605 185.398 76.8221 181.17C73.5247 176.92 70.2681 172.66 67.1341 168.334C63.9866 164.009 60.9207 159.652 58.0865 155.187V155.187Z" fill="black"/>
<path d="M81.6876 164.602C78.758 162.316 76.0328 159.9 73.3894 157.43C70.7324 154.971 68.1979 152.447 65.6908 149.901C63.2245 147.334 60.7854 144.746 58.469 142.081C56.139 139.428 53.8907 136.721 51.8469 133.884C54.7764 136.171 57.5016 138.587 60.145 141.046C62.8021 143.505 65.3365 146.029 67.8437 148.585C70.31 151.163 72.749 153.741 75.0654 156.416C77.3954 159.069 79.6437 161.776 81.6876 164.602V164.602Z" fill="black"/>
<path d="M84.0313 158.897C80.257 154.809 76.4145 150.764 72.7764 146.622C69.0837 142.502 65.5138 138.307 61.971 134.111C58.4692 129.894 54.9809 125.655 51.629 121.351C48.2634 117.058 44.9795 112.723 41.9001 108.268C45.9061 112.226 49.6941 116.303 53.4003 120.424C57.1202 124.533 60.6902 128.718 64.2329 132.924C67.7348 137.152 71.2094 141.391 74.5341 145.706C77.8452 150.031 81.1972 154.345 84.0177 158.907L84.0313 158.897Z" fill="black"/>
<path d="M62.9653 63.604C64.9819 70.0647 67.7207 76.3205 70.5821 82.5331C73.4981 88.735 76.5912 94.8829 79.8614 100.977C83.0907 107.082 86.5381 113.111 90.0808 119.108C91.8658 122.106 93.678 125.083 95.5857 128.038C97.4933 130.983 99.4009 133.938 101.785 136.678L99.7416 134.769L97.9021 132.741C96.703 131.371 95.5584 129.969 94.4275 128.567C92.2337 125.72 90.1489 122.829 88.1868 119.874C84.2353 113.985 80.6517 107.955 77.3678 101.829C74.1249 95.681 71.1136 89.4468 68.5928 83.094C66.0447 76.7519 63.96 70.2373 62.9789 63.6256L62.9653 63.604Z" fill="black"/>
<path d="M56.7928 74.5083C58.6868 79.7071 61.3847 84.6254 64.2053 89.4898C67.0531 94.3435 70.1598 99.1108 73.4028 103.824C76.5912 108.559 79.9432 113.229 83.3088 117.9L93.4465 131.932C89.1407 127.736 85.23 123.303 81.4965 118.773C79.6025 116.519 77.8584 114.2 76.0598 111.903C74.3429 109.562 72.6261 107.222 71.0046 104.838C69.3695 102.465 67.857 100.028 66.3446 97.6008C64.9411 95.1308 63.4559 92.6825 62.2568 90.137C59.7632 85.1 57.5695 79.8905 56.7792 74.4976L56.7928 74.5083Z" fill="black"/>
<path d="M126.216 50.4238C127.374 55.8922 128.887 61.2636 130.467 66.6457C132.075 72.017 133.71 77.3776 135.414 82.7273L140.51 98.7874C142.254 104.137 143.862 109.509 145.715 114.848C144.202 112.345 143.003 109.724 141.791 107.125C140.619 104.515 139.501 101.883 138.452 99.2404C136.34 93.9554 134.46 88.6164 132.757 83.2451C131.094 77.8629 129.568 72.4485 128.383 66.9801C127.197 61.5224 126.257 55.9785 126.216 50.4238V50.4238Z" fill="black"/>
<path d="M131.148 32.9292C132.361 39.0448 133.928 45.074 135.4 51.1249C136.926 57.1649 138.466 63.205 140.073 69.245L144.747 87.376C146.3 93.4268 147.731 99.4885 149.094 105.582C146.709 99.6934 144.584 93.7397 142.676 87.7427C140.727 81.7566 139.011 75.7273 137.416 69.6765C136.64 66.6457 135.904 63.6149 135.195 60.5733C134.555 57.5209 133.846 54.4792 133.329 51.4161C132.198 45.3005 131.326 39.1203 131.162 32.9292H131.148Z" fill="black"/>
<path d="M173.539 5.34985C173.948 14.3344 174.698 23.2867 175.406 32.2389C176.169 41.1911 176.932 50.1434 177.777 59.0956L180.311 85.9415L181.633 99.3699C182.042 103.846 182.519 108.322 183.159 112.787C180.843 103.975 179.494 95.0339 178.199 86.1033C176.919 77.1726 175.924 68.2204 175.065 59.2574C174.275 50.2944 173.621 41.3098 173.294 32.3252C172.94 23.3406 172.899 14.3344 173.539 5.34985V5.34985Z" fill="black"/>
<path d="M183.16 44.0493L183.296 47.1556C183.337 48.1911 183.337 49.2157 183.433 50.2512C183.61 52.3113 183.691 54.3714 183.937 56.4315C184.305 60.5516 184.795 64.661 185.286 68.7704C186.321 76.9892 187.548 85.1864 188.924 93.3729C190.259 101.559 191.758 109.735 193.393 117.889L194.701 123.994L196.132 130.077C197.14 134.122 198.203 138.166 199.797 142.114C195.737 134.456 193.42 126.291 191.308 118.191C189.224 110.059 187.616 101.872 186.226 93.6533C184.904 85.4345 183.787 77.1833 183.187 68.9106C182.56 60.6379 182.302 52.3221 183.16 44.0601V44.0493Z" fill="black"/>
<path d="M223.723 24.9045C223.6 31.4623 223.3 38.0093 222.823 44.5455C222.387 51.0817 221.788 57.6179 221.161 64.1434C220.48 70.6688 219.771 77.1942 218.899 83.7088C218.068 90.2235 217.06 96.7273 215.874 103.22C215.997 96.6626 216.296 90.1156 216.773 83.5794C217.209 77.0432 217.809 70.507 218.436 63.9816C219.117 57.4562 219.826 50.9307 220.698 44.4269C221.529 37.9122 222.537 31.4084 223.709 24.9153L223.723 24.9045Z" fill="black"/>
<path d="M239.325 0C238.548 7.2265 237.595 14.4422 236.477 21.6256C235.387 28.8197 234.147 35.9923 232.88 43.1648C231.558 50.3266 230.196 57.4992 228.683 64.6394C227.212 71.7904 225.549 78.9198 223.737 86.0277C224.514 78.8012 225.468 71.5855 226.585 64.4021C227.675 57.208 228.915 50.0354 230.196 42.8628C231.517 35.7011 232.88 28.5285 234.392 21.3883C235.864 14.2373 237.526 7.10786 239.339 0H239.325Z" fill="black"/>
<path d="M310.63 43.0139C309.172 48.1695 307.455 53.2497 305.643 58.319C303.858 63.3883 301.909 68.4145 299.933 73.4407C297.917 78.4561 295.859 83.4499 293.652 88.4222C291.458 93.3945 289.183 98.3344 286.635 103.22C288.092 98.0647 289.809 92.9846 291.622 87.9153C293.42 82.8459 295.355 77.8197 297.331 72.7936C299.361 67.7781 301.405 62.7843 303.612 57.8121C305.806 52.8398 308.082 47.8999 310.616 43.0139H310.63Z" fill="black"/>
<path d="M327.431 31.2896C325.796 35.8088 323.902 40.2526 321.926 44.664C319.964 49.0862 317.852 53.4544 315.713 57.8227C313.533 62.1693 311.311 66.516 308.941 70.8088C306.597 75.1123 304.144 79.3835 301.46 83.5684C303.095 79.0491 304.989 74.6054 306.965 70.194C308.927 65.7718 311.039 61.4036 313.178 57.0353C315.372 52.6886 317.579 48.3419 319.95 44.0492C322.308 39.7456 324.733 35.4744 327.431 31.2896Z" fill="black"/>
<path d="M350.349 50.4238C348.891 54.8568 347.174 59.2143 345.362 63.5502C343.577 67.8861 341.629 72.1896 339.666 76.4716C337.65 80.7428 335.606 85.0031 333.412 89.2312C331.232 93.4592 328.956 97.6549 326.436 101.775C327.894 97.3421 329.611 92.9847 331.423 88.6488C333.208 84.3129 335.156 80.0201 337.118 75.7274C339.135 71.4562 341.179 67.1958 343.386 62.9677C345.566 58.7397 347.842 54.544 350.363 50.4238H350.349Z" fill="black"/>
<path d="M355.554 57.4238C353.497 62.4716 351.194 67.4331 348.796 72.3622C346.411 77.3021 343.891 82.1881 341.342 87.0633C338.74 91.9277 336.11 96.7813 333.33 101.581C330.564 106.391 327.717 111.17 324.61 115.872C326.667 110.824 328.97 105.863 331.368 100.934C333.753 95.9939 336.274 91.1079 338.835 86.2327C341.438 81.3683 344.068 76.5147 346.847 71.715C349.613 66.9046 352.461 62.1264 355.554 57.4238Z" fill="black"/>
<path d="M336.042 170.934C338.836 165.411 341.793 159.943 344.899 154.539C347.979 149.125 351.194 143.753 354.437 138.404C357.735 133.065 361.06 127.747 364.521 122.484C367.954 117.199 371.538 111.978 375.299 106.823C372.505 112.345 369.549 117.814 366.442 123.217C363.362 128.632 360.147 133.992 356.89 139.353C353.593 144.681 350.268 150.009 346.807 155.273C343.373 160.558 339.79 165.778 336.042 170.934V170.934Z" fill="black"/>
<path d="M360.105 147.777C362.366 143.29 364.86 138.889 367.449 134.532C370.024 130.163 372.722 125.86 375.461 121.556C378.241 117.274 381.061 113.014 384.018 108.797C386.961 104.579 389.986 100.394 393.256 96.3174C390.994 100.804 388.501 105.205 385.912 109.562C383.337 113.931 380.625 118.234 377.886 122.538C375.093 126.82 372.286 131.08 369.329 135.297C366.386 139.515 363.361 143.699 360.091 147.777H360.105Z" fill="black"/>
<path d="M382.846 130.487C384.89 126.712 387.166 123.055 389.537 119.421C391.88 115.786 394.374 112.216 396.881 108.656C399.443 105.119 402.018 101.592 404.743 98.1186C407.455 94.6455 410.248 91.2156 413.273 87.8828C411.229 91.6578 408.954 95.325 406.596 98.9491C404.253 102.584 401.759 106.154 399.252 109.713C396.69 113.251 394.101 116.778 391.376 120.251C388.665 123.724 385.871 127.154 382.846 130.487V130.487Z" fill="black"/>
<path d="M385.191 140.572C387.602 136.807 390.232 133.173 392.944 129.57C395.642 125.957 398.476 122.419 401.337 118.892C404.24 115.387 407.169 111.892 410.235 108.473C413.287 105.043 416.421 101.656 419.773 98.3774C417.361 102.142 414.732 105.777 412.02 109.379C409.322 112.992 406.488 116.53 403.627 120.057C400.724 123.562 397.795 127.057 394.729 130.476C391.677 133.906 388.556 137.293 385.191 140.572Z" fill="black"/>
<path d="M434.08 172.886C436.846 169.089 439.844 165.422 442.91 161.798C445.962 158.163 449.15 154.604 452.352 151.055C455.595 147.528 458.879 144.023 462.286 140.593C465.679 137.152 469.14 133.755 472.832 130.487C470.066 134.283 467.068 137.951 464.003 141.575C460.95 145.209 457.762 148.769 454.56 152.317C451.303 155.834 448.033 159.35 444.627 162.78C441.234 166.22 437.773 169.618 434.08 172.886Z" fill="black"/>
<path d="M455.391 156.017C457.027 153.87 458.88 151.853 460.815 149.88C462.736 147.895 464.766 145.997 466.837 144.109C468.936 142.243 471.061 140.41 473.31 138.641C475.544 136.872 477.847 135.157 480.354 133.582C478.705 135.75 476.839 137.767 474.917 139.741C473.01 141.715 470.966 143.613 468.908 145.49C466.81 147.345 464.684 149.179 462.45 150.937C460.215 152.706 457.912 154.42 455.391 156.017V156.017Z" fill="black"/>
<path d="M473.854 158.433C477.166 155.197 480.79 152.21 484.442 149.243C488.08 146.277 491.841 143.398 495.615 140.55C499.43 137.724 503.273 134.92 507.224 132.213C511.162 129.495 515.168 126.83 519.365 124.317C515.945 127.478 512.348 130.487 508.682 133.431C505.031 136.387 501.27 139.267 497.482 142.114C493.667 144.94 489.838 147.744 485.886 150.462C481.976 153.202 477.956 155.844 473.854 158.444V158.433Z" fill="black"/>
<path d="M457.475 177.211C461.345 173.889 465.406 170.729 469.507 167.622C473.608 164.505 477.819 161.485 482.043 158.487C486.308 155.51 490.586 152.565 494.987 149.707C499.361 146.838 503.817 144.023 508.436 141.38C504.566 144.702 500.52 147.863 496.404 150.969C492.303 154.086 488.093 157.106 483.869 160.105C479.604 163.071 475.312 166.026 470.924 168.884C466.55 171.753 462.095 174.568 457.475 177.222V177.211Z" fill="black"/>
<path d="M524.038 196.561C527.008 195.202 530.06 194.037 533.154 192.948C536.247 191.847 539.381 190.855 542.542 189.895C545.717 188.968 548.892 188.072 552.134 187.285C555.364 186.487 558.634 185.764 562 185.247C559.043 186.606 555.977 187.77 552.884 188.86C549.791 189.96 546.657 190.952 543.496 191.912C540.321 192.84 537.132 193.735 533.903 194.522C530.674 195.321 527.403 196.043 524.038 196.572V196.561Z" fill="black"/>
<path d="M512.865 206.462C515.686 205.211 518.601 204.165 521.558 203.194C524.502 202.202 527.486 201.339 530.497 200.487C533.522 199.678 536.547 198.901 539.626 198.233C542.706 197.553 545.812 196.949 549.014 196.55C546.194 197.801 543.278 198.847 540.321 199.818C537.378 200.81 534.394 201.673 531.383 202.515C528.358 203.324 525.333 204.1 522.253 204.769C519.174 205.448 516.067 206.052 512.865 206.451V206.462Z" fill="black"/>
<path d="M2.18011 245.96H545.622C545.622 245.96 523.384 244.881 519.296 241.02C515.209 237.159 505.057 232.381 488.679 233.146C495.955 225.478 496.092 221.034 492.671 218.564C489.251 216.094 481.062 217.949 481.062 217.949C486.322 212.47 486.581 209.924 484.4 207.142C482.22 204.359 468.376 197.65 447.12 209.223C457.557 199.419 461.55 190.931 455.8 186.843C450.05 182.755 437.378 190.316 437.378 190.316C446.016 177.632 456.944 154.377 442.91 147.582C428.875 140.787 417.688 154.377 417.688 154.377C412.742 149.75 393.121 141.715 375.434 154.787C376.865 149.74 375.039 147.119 372.968 147.065C369.085 146.978 360.091 155.607 360.091 166.21C360.091 166.21 353.919 166.878 350.472 168.572C355.677 159.21 356.194 149.632 344.231 146.342C346.438 138.21 345.784 131.932 337.472 127.92C329.147 123.908 305.493 123.39 283.132 137.8C284.713 134.585 287.425 127.478 286.253 126.173C285.081 124.857 278.35 128.567 272.995 134.898C277.968 119.302 280.312 107.966 271.918 106.877C263.538 105.798 241.11 122.009 231.845 136.592C228.724 129.408 225.018 124.781 218.001 134.586C202.208 124.479 180.557 120.456 162.025 130.034C143.494 139.601 145.443 154.733 152.269 164.149C145.157 162.068 139.992 163.19 138.235 165.767C135.7 169.467 140.674 174.827 143.794 176.391C132.485 174.795 110.342 177.038 108.598 190.391C94.9452 187.77 84.8075 186.692 77.6948 193.325C70.5821 199.958 72.5987 206.958 79.9976 217.151C70.8274 214.422 66.4807 213.807 60.9486 217.561C55.4301 221.314 60.24 229.134 62.4474 230.784C62.4474 230.784 31.7619 223.655 28.2601 226.977C24.7446 230.299 39.2834 236.544 39.2834 236.544C39.2834 236.544 10.451 232.532 2.19374 245.96H2.18011Z" fill="#BEB293"/>
<path d="M545.622 247.038H0L0.953812 245.485C7.24897 235.239 24.3222 234.538 33.5061 234.969C30.3857 233.233 26.9248 230.881 26.4206 228.735C26.2026 227.829 26.4751 226.977 27.2109 226.276C30.5084 223.148 49.5165 226.804 59.2318 228.929C58.0191 227.063 56.9699 224.561 57.038 222.156C57.1061 219.912 58.1553 218.035 60.0766 216.741C65.4315 213.106 69.9145 213.257 77.0681 215.166C71.1817 206.397 69.3967 199.408 76.6729 192.624C84.1808 185.624 95.0542 186.735 107.481 189.065C108.326 185.333 110.792 182.226 114.798 179.832C121.597 175.777 131.762 174.504 139.843 174.935C137.104 172.304 134.91 168.377 137.049 165.25C139.025 162.359 143.78 161.324 149.599 162.381C143.249 151.659 144.462 137.821 161.303 129.128C181.265 118.817 203.23 124.231 217.633 132.978C220.453 129.354 222.974 127.747 225.522 127.931C228.479 128.146 230.482 130.757 232.09 133.971C242.2 119.766 263.361 104.676 272.15 105.82C274.248 106.089 275.883 106.909 277.001 108.268C280.094 112 279.017 119.475 275.829 130.26C279.426 127.079 283.228 124.857 285.462 124.835C286.253 124.835 286.948 125.083 287.37 125.558C288.665 127.003 287.193 131.544 285.912 134.769C307.209 122.581 329.365 122.753 338.195 127.014C347.665 131.587 347.515 138.921 345.812 145.673C349.722 146.957 352.475 148.995 353.987 151.746C356.508 156.319 355.118 161.917 353.02 166.468C355.186 165.854 357.434 165.487 358.756 165.293C359.097 158.023 363.443 151.53 367.749 148.219C369.098 147.183 371.088 145.932 372.995 145.997C374.072 146.018 375.08 146.45 375.816 147.216C376.906 148.316 377.396 150.042 377.274 152.134C383.705 148.176 391.009 146.277 398.571 146.633C407.169 147.032 414.118 150.203 417.538 152.716C420.713 149.513 431.11 140.626 443.605 146.666C459.056 154.14 446.602 177.869 440.852 187.274C445.39 185.268 452.448 183.025 456.713 186.045C461.918 189.744 460.419 196.636 452.693 205.308C462.585 201.231 470.325 201.188 475.38 202.029C480.64 202.903 484.292 204.941 485.572 206.581C487.875 209.525 487.562 212.243 484.169 216.364C487.112 216.051 491.173 216.029 493.584 217.777C497.699 220.753 496.95 225.532 491.391 232.003C505.97 231.852 515.849 236.112 520.332 240.34C523.044 242.897 537.324 244.493 545.703 244.903L545.622 247.06V247.038ZM4.5238 244.881H526.709C522.935 244.105 519.705 243.069 518.261 241.71C513.928 237.622 503.886 233.502 488.774 234.225L485.831 234.365L487.603 232.499C493.639 226.146 495.042 221.724 491.772 219.351C489.442 217.669 483.542 218.51 481.457 218.974L477.533 219.858L479.999 217.28C485.504 211.553 484.782 209.622 483.27 207.692C482.507 206.721 479.55 204.898 474.835 204.111C469.262 203.183 460.078 203.475 447.924 210.086L439.599 214.616L446.112 208.501C456.413 198.826 459.71 191.017 454.914 187.619C450.894 184.75 441.493 189.194 438.222 191.146L433.249 194.112L436.206 189.777C444.041 178.279 455.391 154.841 442.215 148.478C429.447 142.297 419.269 154.421 418.846 154.938L417.852 156.157L416.666 155.046C414.309 152.835 407.264 149.168 398.435 148.758C390.409 148.381 382.997 150.667 376.374 155.553L373.145 157.937L374.113 154.528C375.012 151.336 374.48 149.319 373.69 148.51C373.527 148.337 373.254 148.132 372.941 148.122C372.382 148.143 371.224 148.521 369.657 149.729C365.583 152.867 361.468 159.177 361.468 166.177V167.116L360.296 167.245C360.296 167.245 354.369 167.903 351.207 169.456L347.46 171.3L349.232 168.108C351.712 163.642 354.11 157.333 351.494 152.565C350.158 150.128 347.556 148.37 343.795 147.324L342.664 147.011L342.923 146.083C345.362 137.099 343.591 132.094 336.791 128.815C329.297 125.202 306.133 124.361 284.018 138.609L280.026 141.176L281.892 137.379C283.814 133.442 285.394 128.438 285.204 126.981C283.568 127.305 278.69 130.099 274.153 135.459L269.779 140.626L271.7 134.596C275.148 123.767 277.914 113.23 274.739 109.411C274.044 108.57 273.063 108.085 271.728 107.912C264.37 106.985 242.377 122.43 233.085 137.045L231.627 139.331L230.577 136.904C229.855 135.243 227.661 130.206 225.277 130.034C224.405 129.969 222.456 130.541 219.2 135.082L218.409 136.193L217.156 135.394C203.544 126.679 182.11 120.92 162.789 130.908C146.206 139.471 146.165 153.493 153.482 163.578L155.349 166.156L151.82 165.12C145.143 163.168 140.796 164.279 139.447 166.242C137.349 169.316 141.955 174.148 144.543 175.442L150.375 178.376L143.576 177.416C135.428 176.273 123.505 177.308 116.433 181.525C112.618 183.801 110.451 186.81 109.961 190.467L109.797 191.696L108.285 191.405C93.5554 188.579 84.9438 188.202 78.7304 193.983C72.5851 199.71 73.2392 205.621 81.1831 216.569L83.0771 219.168L79.5207 218.111C70.3232 215.371 66.6715 215.048 61.8479 218.327C60.5126 219.233 59.8177 220.527 59.7632 222.156C59.6678 225.381 62.1068 228.994 63.3877 229.943L67.5299 233.028L62.0659 231.755C47.6634 228.411 31.0534 225.941 29.2957 227.602C29.0913 227.807 29.0232 227.991 29.0913 228.271C29.5954 230.385 35.9996 233.847 39.9239 235.53L47.241 238.679L39.0382 237.547C38.7657 237.504 13.476 234.149 4.53742 244.827L4.5238 244.881Z" fill="black"/>
<path d="M155.076 245.96C151.166 240.653 148.386 234.764 146.819 228.681C145.252 222.598 144.761 216.288 145.947 210.054C146.247 208.501 146.71 206.958 147.296 205.438C147.882 203.917 148.618 202.418 149.626 201.005C150.634 199.592 151.874 198.254 153.441 197.143C154.218 196.582 155.103 196.097 156.044 195.698C156.984 195.32 157.965 195.072 158.932 194.77C160.949 194.404 163.061 194.112 165.105 194.447C167.149 194.706 169.097 195.288 170.787 196.151C172.476 197.003 174.003 198.028 175.324 199.182C176.66 200.325 177.831 201.576 178.758 202.924C176.36 200.53 173.512 198.373 170.133 197.068C166.822 195.655 162.979 195.45 159.586 196.367C158.769 196.679 157.91 196.928 157.147 197.283C156.398 197.629 155.689 198.038 155.063 198.535C153.782 199.495 152.746 200.692 151.901 201.975C150.185 204.542 149.231 207.454 148.658 210.388C147.473 216.288 147.814 222.404 148.931 228.379C150.116 234.365 152.133 240.265 155.103 245.949L155.076 245.96Z" fill="black"/>
<path d="M238.152 229.598C239.038 225.963 240.332 222.404 242.063 218.941C243.793 215.49 246.014 212.125 249.053 209.148C250.606 207.692 252.364 206.322 254.394 205.222C256.438 204.154 258.741 203.291 261.194 202.968C266.126 202.256 271.018 203.453 274.929 205.405C270.514 204.251 265.867 203.69 261.657 204.607C257.46 205.535 253.945 207.789 251.151 210.518C248.304 213.236 246.069 216.396 243.984 219.621C241.927 222.867 240.087 226.233 238.139 229.587L238.152 229.598Z" fill="black"/>
<path d="M240.128 224.992C239.379 222.781 238.33 220.667 236.831 218.79C235.332 216.957 233.329 215.317 230.931 214.67C229.732 214.368 228.505 214.336 227.306 214.519C226.121 214.789 224.949 215.209 223.941 215.867C221.856 217.119 220.057 218.866 218.504 220.678C216.896 222.479 215.52 224.421 214.335 226.437C213.081 228.433 212.141 230.536 211.296 232.661L210.724 234.268L210.288 235.907C210.111 236.447 210.002 236.997 209.92 237.558C209.838 238.108 209.702 238.669 209.647 239.219C209.388 241.451 209.525 243.695 210.002 245.971C208.952 243.835 208.421 241.516 208.312 239.186C208.312 236.867 208.544 234.516 209.238 232.24C209.865 229.954 210.805 227.732 211.977 225.596C213.149 223.45 214.566 221.39 216.256 219.448C217.986 217.539 219.867 215.673 222.428 214.217C223.709 213.473 225.222 212.966 226.816 212.675C228.451 212.448 230.168 212.599 231.68 213.106C234.719 214.142 236.654 216.213 237.975 218.283C239.243 220.419 239.951 222.706 240.115 224.992H240.128Z" fill="black"/>
<path d="M199.129 246.208C197.943 241.268 197.861 236.274 198.515 231.388C198.829 228.94 199.319 226.513 200.001 224.129C200.355 222.932 200.723 221.746 201.172 220.581C201.608 219.416 202.099 218.24 202.794 217.151C202.208 218.273 201.826 219.459 201.499 220.646C201.159 221.832 200.9 223.029 200.668 224.226C200.219 226.632 199.96 229.048 199.878 231.464C199.687 236.296 200.232 241.139 201.786 245.712L199.129 246.208V246.208Z" fill="black"/>
<path d="M189.658 246.294C188.909 244.116 188.664 241.948 188.595 239.812C188.541 237.666 188.677 235.541 188.936 233.427C189.195 231.313 189.563 229.22 190.081 227.139C190.612 225.068 191.198 222.997 192.261 221.055C191.43 223.051 191.062 225.143 190.762 227.225C190.476 229.307 190.339 231.399 190.299 233.491C190.271 235.573 190.367 237.666 190.639 239.715C190.912 241.764 191.389 243.803 192.247 245.636L189.658 246.305V246.294Z" fill="black"/>
<path d="M146.219 246.618C144.911 245.075 143.794 243.468 142.854 241.807C141.941 240.135 141.191 238.421 140.578 236.695C139.352 233.233 138.752 229.673 138.425 226.135C139.215 229.63 140.251 233.092 141.872 236.36C142.676 237.989 143.603 239.575 144.679 241.095C145.769 242.595 147.009 244.018 148.386 245.323L146.219 246.639V246.618Z" fill="black"/>
<path d="M135.59 246.607C134.309 245.097 133.397 243.512 132.606 241.904C131.83 240.297 131.203 238.658 130.685 237.008C130.167 235.357 129.758 233.686 129.472 232.014C129.2 230.342 129.05 228.638 129.254 226.955C129.254 228.638 129.649 230.288 130.14 231.917C130.63 233.535 131.257 235.131 131.979 236.695C132.702 238.259 133.519 239.78 134.473 241.247C135.427 242.703 136.49 244.116 137.757 245.291L135.59 246.596V246.607Z" fill="black"/>
<path d="M260.119 195.051C263.007 194.317 266.114 194.069 269.207 194.36C272.3 194.619 275.352 195.493 278.023 196.809C280.68 198.157 282.942 199.937 284.672 201.954C286.417 203.971 287.697 206.182 288.474 208.501C286.675 206.57 284.931 204.693 282.996 203C281.048 201.317 278.95 199.797 276.565 198.632C274.208 197.424 271.592 196.582 268.839 196.011C266.073 195.45 263.157 195.213 260.132 195.051H260.119Z" fill="black"/>
<path d="M82.068 231.55C80.0105 229.307 78.8795 226.351 79.4246 223.396C79.6698 221.918 80.3375 220.484 81.4412 219.19C81.9999 218.532 82.7901 217.96 83.4987 217.518C84.2345 217.043 85.0112 216.655 85.8151 216.267C87.4502 215.555 89.2079 215.015 91.0611 214.746C92.9142 214.498 94.8082 214.465 96.6477 214.735C100.313 215.307 103.529 216.871 105.872 218.941C102.82 217.572 99.6045 216.612 96.3752 216.407C93.1458 216.277 89.9574 216.86 87.1641 218.154C85.7878 218.769 84.3708 219.545 83.526 220.408C82.5858 221.336 81.9453 222.512 81.5229 223.73C80.6918 226.2 81.046 228.908 82.0816 231.561L82.068 231.55Z" fill="black"/>
<path d="M109.961 190.445C109.729 192.613 109.866 194.814 110.465 196.96C111.051 199.106 112.087 201.188 113.49 203.108C116.324 206.958 120.603 210.183 125.563 212.47C120.385 210.496 115.698 207.53 112.332 203.69C110.656 201.77 109.334 199.635 108.476 197.37C107.617 195.105 107.222 192.721 107.236 190.337L109.961 190.445V190.445Z" fill="black"/>
<path d="M381.853 245.129C384.633 243.382 386.881 241.009 388.87 238.528C390.873 236.037 392.536 233.362 394.048 230.633C395.561 227.904 396.91 225.1 398.109 222.263C399.308 219.427 400.411 216.558 401.324 213.646C400.629 216.601 399.744 219.524 398.763 222.425C397.782 225.327 396.637 228.206 395.315 231.043C394.007 233.88 392.522 236.673 390.642 239.348C388.775 242.012 386.636 244.633 383.611 246.79L381.867 245.129H381.853Z" fill="black"/>
<path d="M368.117 245.097C370.502 243.749 372.586 241.969 374.535 240.103C376.483 238.237 378.228 236.199 379.876 234.128C381.539 232.057 383.078 229.921 384.536 227.743C385.994 225.564 387.384 223.353 388.651 221.099C387.589 223.418 386.403 225.715 385.15 227.98C383.896 230.245 382.547 232.488 381.062 234.678C379.577 236.867 378.01 239.035 376.17 241.085C374.331 243.134 372.341 245.129 369.78 246.823L368.131 245.108L368.117 245.097Z" fill="black"/>
<path d="M200.9 163.675C199.688 162.337 198.448 161.022 197.153 159.738C195.845 158.476 194.455 157.247 192.861 156.287C191.281 155.316 189.414 154.701 187.561 154.874C186.634 154.96 185.735 155.197 184.863 155.542C184.072 155.823 183.514 156.341 182.996 156.977C182.001 158.25 181.347 159.792 180.829 161.334C180.312 162.888 179.944 164.484 179.603 166.08C178.949 169.284 178.568 172.552 178.35 175.777L178.091 179.562L175.87 176.197C174.507 174.137 173.104 172.099 171.523 170.168C169.942 168.27 168.239 166.371 166.141 165.099C165.092 164.473 163.961 164.052 162.802 164.02C161.644 163.966 160.445 164.29 159.287 164.797C158.742 165.045 158.061 165.39 157.693 165.649C157.284 165.94 156.943 166.317 156.684 166.76C156.167 167.633 155.949 168.712 155.908 169.801C155.853 172.002 156.33 174.288 157.039 176.521C157.761 178.753 158.66 180.965 159.709 183.143C161.821 187.479 164.315 191.75 167.667 195.633C165.691 193.875 164.029 191.901 162.489 189.874C160.963 187.846 159.532 185.764 158.306 183.596C157.08 181.439 155.962 179.228 155.104 176.931C154.259 174.633 153.564 172.271 153.55 169.769C153.55 168.518 153.741 167.223 154.422 165.951C154.763 165.314 155.267 164.7 155.949 164.193C156.671 163.653 157.27 163.384 157.979 163.017C159.369 162.359 161.086 161.863 162.911 161.928C164.751 161.982 166.413 162.629 167.721 163.394C170.351 164.98 172.136 166.997 173.771 169.014C175.393 171.042 176.81 173.134 178.172 175.248L175.692 175.669C175.979 172.325 176.496 169.046 177.259 165.757C177.641 164.117 178.132 162.488 178.758 160.871C179.399 159.263 180.135 157.646 181.415 156.157C182.042 155.445 182.969 154.68 184.113 154.334C185.135 153.989 186.239 153.741 187.397 153.687C188.555 153.644 189.727 153.806 190.749 154.183C191.785 154.55 192.684 155.057 193.488 155.629C195.096 156.772 196.377 158.099 197.562 159.458C198.761 160.817 199.81 162.24 200.846 163.675H200.9Z" fill="black"/>
<path d="M223.724 146.957C223.588 145.846 224.092 144.724 224.705 143.721C225.345 142.718 226.163 141.779 227.103 140.938C228.997 139.256 231.341 137.821 234.202 137.066C235.633 136.699 237.2 136.516 238.78 136.71C240.347 136.904 241.874 137.454 242.991 138.296C245.253 139.978 246.166 142.232 246.479 144.379C245.117 142.491 243.645 140.679 241.669 139.612C239.693 138.544 237.336 138.522 235.047 139.115C232.758 139.719 230.564 140.82 228.588 142.125C227.607 142.793 226.653 143.494 225.809 144.293C224.95 145.08 224.174 145.921 223.71 146.946L223.724 146.957Z" fill="black"/>
<path d="M219.227 135.049C217.66 137.239 216.379 139.59 215.425 142.038C214.948 143.268 214.553 144.508 214.267 145.781C214.008 147.043 213.749 148.337 213.967 149.632C213.531 148.37 213.559 147.032 213.586 145.727C213.654 144.411 213.831 143.106 214.09 141.801C214.621 139.191 215.507 136.613 216.761 134.122L219.213 135.06L219.227 135.049Z" fill="black"/>
<path d="M263.566 153.277C264.465 150.247 266.714 147.496 269.452 145.231C272.191 142.934 275.475 141.057 279.14 139.698C280.993 139.051 282.942 138.512 285.04 138.296C287.125 138.123 289.332 138.231 291.295 138.921C295.301 140.183 297.876 143.279 298.285 146.342C296.759 143.516 293.952 141.273 290.572 140.507C287.193 139.698 283.596 140.431 280.271 141.661C278.582 142.244 276.974 142.988 275.407 143.797C273.826 144.584 272.341 145.49 270.91 146.45C268.049 148.381 265.514 150.613 263.566 153.288V153.277Z" fill="black"/>
<path d="M343.904 147.388C340.075 146.827 336.042 147.205 332.335 148.381C328.616 149.545 325.223 151.411 322.293 153.666C319.377 155.941 316.965 158.649 315.017 161.582C313.137 164.538 311.733 167.698 310.629 170.944C311.174 167.612 312.142 164.29 313.75 161.119C315.371 157.948 317.674 154.981 320.576 152.382C323.465 149.772 327.089 147.604 331.218 146.202C335.333 144.821 340.102 144.368 344.571 145.296L343.904 147.388V147.388Z" fill="black"/>
<path d="M442.719 245.518C444.804 242.239 446.262 238.647 447.243 234.969C448.224 231.291 448.797 227.516 449.028 223.73C449.26 227.516 449.137 231.334 448.592 235.142C448.033 238.949 446.998 242.746 445.213 246.402L442.733 245.518H442.719Z" fill="black"/>
<path d="M452.093 245.474C453.619 243.404 454.791 241.095 455.65 238.712C456.508 236.317 457.135 233.847 457.476 231.345C457.598 233.869 457.421 236.404 456.985 238.938C456.549 241.473 455.8 243.997 454.532 246.445L452.093 245.485V245.474Z" fill="black"/>
<path d="M418.793 153.73C419.651 154.885 420.346 156.082 420.741 157.344C421.123 158.595 421.354 159.857 421.354 161.119C421.354 163.621 420.809 166.08 419.774 168.367C420.373 165.983 420.441 163.535 419.992 161.205C419.774 160.04 419.351 158.918 418.806 157.861C418.261 156.804 417.457 155.866 416.599 155.014L418.793 153.741V153.73Z" fill="black"/>
<path d="M373.581 166.921L406.774 124.307C406.774 124.307 388.638 168.615 396.636 175.561C401.569 179.843 409.063 178.16 417.075 174.051C413.014 181.579 411.843 187.285 422.58 189.14L411.788 194.835L373.581 166.921Z" fill="#BEB293"/>
<path d="M412.538 195.741L411.026 193.951L419.378 189.539C416.653 188.73 414.814 187.544 413.764 185.937C412.061 183.316 412.811 180.005 414.337 176.607C406.161 180.091 399.866 179.994 395.628 176.294C389.251 170.75 397.413 145.479 402.373 132.029L374.753 167.493L372.437 166.361L411.584 116.109L408.096 124.641C400.901 142.211 392.195 170.071 397.672 174.827C401.515 178.171 407.633 177.621 416.367 173.145L420.114 171.225L418.356 174.471C416.353 178.193 414.527 182.345 416.217 184.934C417.198 186.444 419.392 187.479 422.894 188.083L426.028 188.622L412.565 195.73L412.538 195.741Z" fill="black"/>
<path d="M262.415 163.081C268.324 163.308 274.23 163.694 280.172 164.287C285.726 178.68 290.119 192.382 293.477 205.337C288.449 206.95 283.627 208.721 278.998 210.587C278.421 208.581 277.844 206.576 277.222 204.562C273.579 204.204 269.922 203.924 266.276 203.726C265.514 205.569 264.778 207.398 264.086 209.234C259.706 207.142 255.169 205.162 250.501 203.278C253.354 190.544 257.29 177.125 262.412 163.1L262.415 163.081ZM268.372 195.799C271.065 195.885 273.752 196.01 276.454 196.178C275.555 193.454 274.616 190.682 273.636 187.883C272.859 187.823 272.06 187.759 271.283 187.699C270.264 190.416 269.292 193.123 268.35 195.795L268.372 195.799Z" fill="#FADEB9"/>
<path d="M264.708 210.525L263.634 210.011C259.232 207.915 254.695 205.935 250.114 204.087L249.311 203.762L249.476 203.031C252.37 190.046 256.395 176.505 261.424 162.764L261.637 162.162L262.372 162.195C268.258 162.418 274.254 162.82 280.199 163.394L280.905 163.462L281.131 164.063C286.568 178.173 291.054 192.011 294.463 205.214L294.664 205.971L293.86 206.226C288.929 207.816 284.088 209.564 279.456 211.448L278.292 211.919L277.968 210.779C277.469 209.008 276.928 207.21 276.387 205.411C273.267 205.107 270.112 204.878 266.996 204.695C266.336 206.337 265.676 207.979 265.045 209.586L264.682 210.541L264.708 210.525ZM251.693 202.771C255.664 204.389 259.616 206.124 263.465 207.92C264.058 206.406 264.676 204.876 265.291 203.367L265.527 202.769L266.262 202.801C269.908 203 273.612 203.269 277.255 203.627L278.006 203.702L278.201 204.358C278.699 205.989 279.195 207.639 279.649 209.262C283.707 207.634 287.932 206.116 292.232 204.711C288.904 192.003 284.589 178.676 279.388 165.109C273.989 164.594 268.542 164.23 263.163 164.019C258.358 177.239 254.485 190.268 251.648 202.763L251.693 202.771ZM266.98 196.667L267.381 195.479C268.301 192.804 269.298 190.082 270.317 187.364L270.559 186.728L271.336 186.788C272.113 186.848 272.912 186.913 273.689 186.973L274.443 187.029L274.663 187.669C275.646 190.448 276.581 193.239 277.481 195.963L277.866 197.153L276.47 197.061C273.79 196.897 271.081 196.768 268.411 196.686L266.96 196.644L266.98 196.667ZM272.07 188.682C271.292 190.762 270.534 192.867 269.805 194.936C271.554 194.992 273.32 195.091 275.085 195.19C274.389 193.063 273.651 190.908 272.891 188.75C272.618 188.721 272.342 188.711 272.07 188.682V188.682Z" fill="black"/>
<path d="M353.152 175.631C335.764 205.214 328.284 219.426 327.162 220.502C324.123 219.593 321.074 218.742 317.993 217.946C316.02 211.177 313.665 204.199 310.877 197.043C308.667 203.116 306.572 209.051 304.596 214.827C300.351 213.941 296.111 213.175 291.832 212.502C293.171 200.977 295.716 185.294 300.285 164.683C305.821 165.583 311.331 166.638 316.819 167.829C319.07 174.309 321.067 180.643 322.792 186.808C326.331 181.654 330.071 176.396 334.006 171.074C340.44 172.416 346.823 173.928 353.148 175.65L353.152 175.631Z" fill="#FADEB9"/>
<path d="M327.547 221.667L326.842 221.46C323.847 220.559 320.776 219.705 317.717 218.913L317.054 218.733L316.873 218.141C315.187 212.303 313.181 206.307 310.906 200.263C309.094 205.309 307.337 210.306 305.671 215.159L305.398 215.988L304.389 215.806C300.193 214.908 295.907 214.134 291.699 213.454L290.577 213.251L290.684 212.312C292.235 198.908 295.084 182.782 299.149 164.419L299.342 163.515L300.397 163.705C305.935 164.586 311.512 165.653 317 166.844L317.673 166.966L317.873 167.581C319.807 173.164 321.604 178.743 323.189 184.203C326.325 179.676 329.638 175.06 333.037 170.48L333.449 169.935L334.211 170.073C340.641 171.434 347.111 172.982 353.436 174.704L354.808 175.072L354.17 176.155C345.08 191.613 338.733 202.832 334.525 210.262C330.062 218.126 328.637 220.645 328.01 221.231L327.544 221.686L327.547 221.667ZM318.901 217.169C321.491 217.856 324.079 218.563 326.634 219.325C327.495 218.002 329.564 214.36 332.472 209.252C336.581 202.004 342.734 191.129 351.505 176.213C345.927 174.726 340.256 173.382 334.586 172.178C330.829 177.253 327.207 182.352 323.787 187.347L322.39 189.412L321.7 186.971C320.018 180.973 318.085 174.811 315.947 168.632C311.081 167.593 306.133 166.639 301.207 165.829C297.35 183.331 294.638 198.763 293.094 211.688C296.671 212.274 300.261 212.923 303.815 213.645C305.706 208.113 307.718 202.404 309.801 196.687L310.837 193.858L311.979 196.781C314.651 203.656 317.002 210.513 318.946 217.177L318.901 217.169Z" fill="black"/>
<path d="M374.143 191.848C381.503 196.132 384.78 201.535 384.06 207.394C379.078 207.373 374.167 207.484 369.323 207.748C368.229 205.673 366.54 203.991 364.298 202.727C358.757 199.75 353.772 200.746 349.724 205.346C347.187 209.599 348.138 212.845 352.4 215.312C354.047 215.969 355.645 216.078 357.236 215.666C355.917 214.55 354.594 213.452 353.227 212.347C354.578 210.994 355.929 209.641 357.305 208.272C362.642 210.374 367.899 212.681 373.016 215.142C371.674 217.435 370.223 219.409 368.71 221.053C362.543 227.765 354.821 229.265 345.234 226.755C344.224 226.433 342.724 225.723 340.656 224.67C335.571 222.155 333.648 217.076 334.57 208.838C334.901 206.801 335.832 204.334 337.409 201.445C342.733 192.105 351.55 187.129 363.97 188.114C368.706 189.369 372.097 190.66 374.101 191.821L374.143 191.848Z" fill="#FADEB9"/>
<path d="M348.033 228.279C347.046 228.101 346.043 227.88 345.002 227.612L344.957 227.604C343.948 227.282 342.463 226.615 340.209 225.429C334.72 222.701 332.605 217.387 333.599 208.703L333.605 208.664C333.955 206.511 334.924 203.951 336.53 201.027C339.308 196.138 342.997 192.472 347.505 190.152C352.192 187.724 357.751 186.752 364.041 187.249L364.243 187.285C368.825 188.492 372.443 189.804 374.656 191.102C382.228 195.504 385.83 201.186 385.056 207.515L384.94 208.232L384.133 208.226C379.244 208.202 374.307 208.328 369.466 208.572L368.746 208.602L368.427 208.005C367.42 206.106 365.872 204.549 363.797 203.396C358.785 200.714 354.337 201.528 350.574 205.799C348.346 209.569 349.039 212.27 352.83 214.512C353.589 214.809 354.349 214.966 355.082 214.998C354.247 214.309 353.413 213.619 352.576 212.948L351.841 212.357L352.45 211.728C353.779 210.371 355.155 209.002 356.528 207.653L356.994 207.198L357.667 207.46C363.024 209.585 368.348 211.904 373.443 214.361L374.341 214.803L373.894 215.561C372.553 217.854 371.07 219.882 369.496 221.614C363.922 227.655 356.874 229.836 348.017 228.236L348.033 228.279ZM345.503 225.946C355.068 228.452 362.203 226.726 367.943 220.515C369.265 219.057 370.528 217.389 371.691 215.482C367.126 213.32 362.407 211.25 357.637 209.351C356.644 210.349 355.629 211.344 354.658 212.346C355.759 213.244 356.857 214.161 357.932 215.074L359.171 216.116L357.606 216.512C355.798 216.984 353.928 216.846 352.062 216.11L351.973 216.094L351.889 216.039C347.124 213.262 346.095 209.502 348.826 204.905L348.836 204.846L348.912 204.8C351.067 202.335 353.503 200.838 356.168 200.341C358.882 199.833 361.791 200.398 364.764 201.993C366.986 203.233 368.684 204.857 369.865 206.827C374.238 206.619 378.688 206.504 383.094 206.521C383.406 201.187 380.146 196.386 373.588 192.566C372.173 191.752 369.314 190.457 363.825 189.007C352.241 188.132 343.643 192.469 338.281 201.902C336.774 204.644 335.855 207.034 335.534 209.012C334.649 216.878 336.42 221.61 341.076 223.928C343.183 225.027 344.558 225.655 345.458 225.938L345.503 225.946Z" fill="black"/>
<path d="M372.362 230.733L372.661 231.027C373.618 232.819 373.522 234.121 372.377 234.913C370.109 236.502 367.201 236.197 363.535 234.155C363.394 234.03 363.256 233.885 363.114 233.76C361.745 232.513 361.825 231.308 363.341 230.083L363.821 229.69C365.947 227.975 368.858 228.261 372.359 230.753L372.362 230.733ZM397.253 205.208C400.811 212.187 402.167 215.93 402.146 216.346C385.293 225.514 377.091 230.208 376.454 230.293C376.155 229.999 373.862 228.466 369.464 225.952C369.57 225.871 369.586 225.774 369.483 225.696C371.655 224.129 380.44 217.402 396.71 204.99C396.884 205.061 397.079 205.137 397.253 205.208Z" fill="#FADEB9"/>
<path d="M367.69 236.603C366.299 236.352 364.755 235.753 363.08 234.831L362.974 234.772L362.894 234.697C362.752 234.572 362.611 234.446 362.473 234.301C361.647 233.553 361.222 232.756 361.213 231.955C361.217 231.077 361.699 230.244 362.683 229.443L363.163 229.05C364.919 227.628 368.057 226.656 372.903 230.11L372.964 230.161L373.423 230.603L373.498 230.717C374.954 233.418 374.031 234.831 372.989 235.562C371.476 236.627 369.711 236.968 367.668 236.599L367.69 236.603ZM364.124 233.521C368.496 235.909 370.593 235.089 371.793 234.246C372.081 234.038 372.938 233.454 371.9 231.448L371.762 231.303C368.756 229.181 366.316 228.84 364.513 230.273L364.033 230.666C363.422 231.155 363.116 231.62 363.117 232.039C363.108 232.378 363.343 232.78 363.809 233.184C363.931 233.286 364.031 233.384 364.15 233.505L364.124 233.521ZM376.149 231.176L375.789 230.831C375.526 230.603 373.426 229.165 369.006 226.647L367.949 226.037L368.295 225.76L368.115 225.587L368.873 225.045C370.757 223.686 377.742 218.372 390.378 208.703L396.522 204.016L397.087 204.238C397.26 204.309 397.456 204.385 397.629 204.456L397.975 204.599L398.133 204.907C401.304 211.136 403.16 215.648 403.104 216.418L403.086 216.814L402.705 217.025C395.812 220.777 390.308 223.8 386.298 226.014C378.384 230.36 377.216 231.009 376.697 231.075L376.178 231.141L376.149 231.176ZM370.853 225.802C373.578 227.373 375.591 228.637 376.564 229.332C377.716 228.781 380.814 227.062 385.201 224.656C389.109 222.504 394.463 219.554 401.103 215.936C400.731 214.81 399.437 211.538 396.71 206.129L391.648 209.991C380.281 218.671 373.501 223.862 370.849 225.821L370.853 225.802Z" fill="black"/>
<path d="M222.843 163.167C232.51 164.593 237.636 168.971 238.451 175.464C238.257 178.362 236.646 181.184 233.792 183.981C234.967 184.133 236.142 184.285 237.34 184.442C246.496 186.594 251.629 190.793 253.007 196.37C253.827 199.99 253.423 203.19 251.975 206.001C247.889 211.13 237.153 213.023 219.71 214.442C212.2 201.014 203.862 186.857 194.651 171.964C203.207 165.448 213.009 162.489 222.869 163.152L222.843 163.167ZM217.36 175.766C218.107 177.417 218.854 179.069 219.582 180.697C223.275 179.268 225.043 177.472 224.771 175.168C224.481 174.537 223.853 174.145 222.886 173.99C221.131 173.853 219.261 174.433 217.363 175.746L217.36 175.766ZM228.382 202.1C234.54 200.977 237.513 199.578 237.171 197.561C237.168 196.443 236.401 195.766 234.867 195.549C231.951 195.182 229.11 195.627 226.415 196.876C227.076 198.632 227.718 200.364 228.359 202.096L228.382 202.1Z" fill="#FADEB9"/>
<path d="M219.032 215.5L218.659 214.814C211.055 201.249 202.643 186.979 193.612 172.398L193.175 171.681L193.833 171.181C202.495 164.584 212.53 161.467 222.847 162.153L222.959 162.173C235.578 164.033 238.972 170.412 239.591 175.413L239.566 175.568C239.419 178.176 238.248 180.698 236.012 183.247C236.486 183.313 236.96 183.378 237.411 183.44L237.546 183.464C246.881 185.649 252.603 190.054 254.096 196.21C254.916 199.97 254.567 203.399 252.988 206.447L252.975 206.524L252.895 206.589C248.522 212.066 237.482 213.983 219.851 215.429L219.009 215.496L219.032 215.5ZM196.06 172.242C204.776 186.347 212.937 200.172 220.325 213.359C236.35 212.003 247.074 210.188 250.937 205.438C252.267 202.784 252.595 199.771 251.859 196.485C250.539 191.118 245.603 187.413 237.16 185.41C236.008 185.262 234.858 185.094 233.703 184.965L231.465 184.681L232.917 183.267C235.662 180.57 237.114 178.019 237.306 175.419C236.505 169.268 231.607 165.471 222.776 164.155C213.326 163.527 204.103 166.331 196.06 172.242V172.242ZM227.614 203.282L227.256 202.359C226.615 200.627 225.951 198.891 225.312 197.139L225.025 196.349L225.824 195.974C228.72 194.622 231.798 194.14 234.964 194.532C237.084 194.835 238.294 195.911 238.33 197.534C238.8 200.752 233.727 202.151 228.689 203.057L227.643 203.247L227.614 203.282ZM227.803 197.429C228.238 198.585 228.67 199.761 229.106 200.917C235.046 199.715 236.166 198.5 236.026 197.657L236.039 197.579L236.006 197.494C236.015 197.156 236.017 196.717 234.752 196.549C232.38 196.24 230.044 196.557 227.803 197.429V197.429ZM218.972 182.046L218.495 181.002C217.767 179.374 217.02 177.723 216.273 176.071L215.97 175.378L216.593 174.952C218.724 173.481 220.838 172.825 222.909 172.999L222.999 173.015C224.731 173.288 225.489 174.163 225.817 174.841L225.888 174.974L225.911 175.118C226.251 177.853 224.34 179.962 220.103 181.612L218.972 182.046V182.046ZM218.731 176.136C219.205 177.199 219.681 178.243 220.158 179.287C223.578 177.69 223.699 176.095 223.629 175.384C223.536 175.248 223.331 175.091 222.815 174.998C221.538 174.907 220.182 175.3 218.751 176.159L218.731 176.136Z" fill="black"/>
</svg>
