<svg width="17" height="10" viewBox="0 0 17 10" fill="none" xmlns="http://www.w3.org/2000/svg">
<path d="M8.39853 6.67162C8.6181 6.41282 8.81862 6.20167 8.98917 5.96938C9.21562 5.66237 9.40455 5.3267 9.63856 5.02722C9.87257 4.72775 10.1484 4.43341 10.4155 4.14839C10.6827 3.86337 10.9629 3.57571 11.2431 3.2956C11.7364 2.80228 12.2317 2.3106 12.7287 1.82056C12.7919 1.75947 12.8766 1.72275 12.9401 1.66311C13.0882 1.52145 13.2264 1.36817 13.3762 1.22767C13.8199 0.814858 14.3068 0.526232 14.9529 0.592068C15.2319 0.62028 15.5219 0.597941 15.7649 0.754252C16.1591 1.0084 16.4848 1.32772 16.5421 1.82812C16.5745 2.17173 16.4897 2.5162 16.3015 2.80551C16.1749 3.03339 16.0311 3.25126 15.8714 3.45722C15.6515 3.71457 15.3912 3.9363 15.1516 4.17801C15.0623 4.26702 14.9943 4.37891 14.9059 4.45717C14.4894 4.81012 14.0665 5.15381 13.6491 5.5024C13.5463 5.58844 13.4501 5.68208 13.3613 5.78252C13.043 6.13183 12.6913 6.44919 12.3113 6.73009C12.095 6.90063 11.9434 7.15175 11.7379 7.33824C11.4229 7.62538 11.077 7.8795 10.7567 8.16317C10.4825 8.40581 10.2378 8.68178 9.95806 8.9195C9.67835 9.15723 9.35219 9.39678 9.04168 9.61656C8.87497 9.7333 8.68395 9.89421 8.49409 9.89631C8.15565 9.88299 7.82008 9.82854 7.49478 9.73417C7.11572 9.62449 6.78036 9.39921 6.53551 9.08976C6.28471 8.80514 6.08146 8.4792 5.83443 8.1908C5.47072 7.76588 5.1331 7.32058 4.68274 6.97509C4.41132 6.74066 4.15439 6.48995 3.9134 6.22433C3.51803 5.83702 3.12072 5.45262 2.72149 5.07113C2.42017 4.78312 2.10523 4.50995 1.80768 4.21816C1.34055 3.75977 0.868519 3.3069 0.507764 2.75453C0.433723 2.66898 0.368015 2.57655 0.311553 2.4785C0.153173 2.09065 0.415413 1.82626 0.618128 1.55878C0.780479 1.3595 0.957209 1.17237 1.1469 0.998908C1.46565 0.685338 2.31716 0.377438 2.79744 0.728973C3.36668 1.14711 3.9385 1.55566 4.50688 1.977C4.8511 2.23066 5.21069 2.47065 5.52535 2.74992C5.73756 2.95235 5.93331 3.17138 6.11071 3.40493C6.26727 3.59682 6.41773 3.79599 6.55805 3.99721C6.80812 4.3605 7.04893 4.7302 7.29378 5.09757C7.38549 5.23008 7.47577 5.37797 7.57271 5.51394C7.82482 5.87985 8.09027 6.24457 8.39853 6.67162Z" fill="black"/>
</svg>
