<svg width="24" height="24" viewBox="0 0 24 24" fill="none" xmlns="http://www.w3.org/2000/svg">
<path d="M21.0347 5.0633C19.4613 3.76016 17.5732 3.10859 15.5802 3L15.2655 3.32578C17.0487 3.76016 18.6221 4.62892 20.0907 5.82346C18.3075 4.84611 16.3145 4.19454 14.2166 3.97735C13.5872 3.86876 13.0628 3.86876 12.4334 3.86876C11.804 3.86876 11.2796 3.86876 10.6502 3.97735C8.55235 4.19454 6.55937 4.84611 4.77617 5.82346C6.24468 4.62892 7.81809 3.76016 9.60128 3.32578L9.2866 3C7.29362 3.10859 5.40553 3.76016 3.83213 5.0633C2.04894 8.53833 1.10489 12.4477 1 16.4657C2.57341 18.2033 4.77617 19.2892 7.08383 19.2892C7.08383 19.2892 7.81809 18.4204 8.34256 17.6603C6.97894 17.3345 5.72022 16.5743 4.88107 15.3798C5.61532 15.8142 6.34958 16.2485 7.08383 16.5743C8.02788 17.0087 8.97192 17.2259 9.91596 17.4431C10.7551 17.5517 11.5943 17.6603 12.4334 17.6603C13.2726 17.6603 14.1117 17.5517 14.9509 17.4431C15.8949 17.2259 16.8389 17.0087 17.783 16.5743C18.5172 16.2485 19.2515 15.8142 19.9858 15.3798C19.1466 16.5743 17.8879 17.3345 16.5243 17.6603C17.0487 18.4204 17.783 19.2892 17.783 19.2892C20.0907 19.2892 22.2934 18.2033 23.8668 16.4657C23.7619 12.4477 22.8179 8.53833 21.0347 5.0633ZM8.97192 14.511C7.92298 14.511 6.97894 13.5337 6.97894 12.3391C6.97894 11.1446 7.92298 10.1672 8.97192 10.1672C10.0209 10.1672 10.9649 11.1446 10.9649 12.3391C10.9649 13.5337 10.0209 14.511 8.97192 14.511ZM15.8949 14.511C14.846 14.511 13.9019 13.5337 13.9019 12.3391C13.9019 11.1446 14.846 10.1672 15.8949 10.1672C16.9438 10.1672 17.8879 11.1446 17.8879 12.3391C17.8879 13.5337 16.9438 14.511 15.8949 14.511Z" fill="#C8C492"/>
</svg>
