<svg width="872" height="10" viewBox="0 0 872 10" fill="none" xmlns="http://www.w3.org/2000/svg">
<path d="M871.417 8.10328C864.838 8.56863 858.349 7.41841 851.806 6.61063C844.549 5.7326 837.292 5.88187 829.987 6.06625C815.764 6.43503 801.565 7.45354 787.33 7.89255C758.569 8.77058 730.019 7.42719 701.325 4.92482C672.903 2.44879 644.48 2.94048 616.058 3.06341C587.89 3.18633 559.722 2.98438 531.553 2.96682C502.714 2.96682 473.892 3.51998 445.077 4.20484C416.473 4.88092 388.105 3.4673 359.544 1.86929C345.393 1.07907 331.581 2.43123 317.479 3.62534C303.903 4.81068 290.266 4.50337 276.684 4.50337C248.201 4.50337 219.7 4.67898 191.254 2.4927C175.313 1.26346 159.56 -0.545276 143.583 0.157144C127.776 0.850785 111.998 2.6683 96.1784 3.00195C64.2971 3.68681 32.4399 -0.185288 0.58281 3.06341C-0.191243 3.14243 -0.197291 4.89848 0.58281 4.81946C29.0051 1.92197 57.4939 4.48581 85.9585 4.81946C114.218 5.11799 142.476 -0.202854 170.729 2.31708C199.212 4.85458 227.574 6.24187 256.135 6.29455C269.808 6.29455 283.487 6.38235 297.16 6.29455C311.287 6.17163 325.274 3.86242 339.37 3.34438C353.467 2.82635 367.406 4.22241 381.405 5.22336C395.689 6.24187 409.985 6.47015 424.286 6.356C453.15 6.12772 482.002 4.88093 510.871 4.78434C539.052 4.69654 567.232 4.88092 595.413 4.89848C623.901 4.89848 652.414 4.16094 680.897 5.40774C696.935 6.11016 712.893 8.37547 728.913 9.27983C744.932 10.1842 761.06 10.0086 777.122 9.89445C793.062 9.78908 808.985 8.58619 824.895 8.02425C832.757 7.74328 840.685 7.31305 848.534 8.02425C856.178 8.73545 863.749 10.4388 871.435 9.89445C872.191 9.80665 872.191 8.0506 871.417 8.10328Z" fill="#0C0C0B"/>
</svg>
