<svg width="427" height="502" viewBox="0 0 427 502" fill="none" xmlns="http://www.w3.org/2000/svg">
<path d="M177.784 387.09L179.159 425.789L186.302 459.06L220.388 446.199L221.954 388.585L177.784 387.09Z" fill="#BEB293"/>
<path d="M185.103 461.078L177.544 425.833L176.122 385.566L223.584 387.177L221.954 447.171L185.103 461.078V461.078ZM180.74 425.63L187.484 457.042L218.806 445.226L220.308 389.993L179.414 388.6L180.724 425.644L180.74 425.63Z" fill="black"/>
<path d="M213.869 436.27L214.397 392.548L217.065 436.197L213.869 436.27Z" fill="black"/>
<path d="M208.691 434.499C208.483 431.088 208.435 427.676 208.419 424.265C208.387 420.854 208.483 417.443 208.579 414.032C208.707 410.62 208.851 407.224 209.107 403.812L209.506 398.703C209.698 397.004 209.826 395.306 210.065 393.608C210.193 395.321 210.209 397.019 210.289 398.732L210.337 403.856C210.369 407.267 210.273 410.678 210.177 414.09C210.049 417.501 209.905 420.898 209.65 424.309C209.41 427.706 209.138 431.117 208.691 434.513V434.499Z" fill="black"/>
<path d="M196.019 446.91L196.993 392.243L199.215 446.881L196.019 446.91Z" fill="black"/>
<path d="M187.373 436.27L187.773 396.888L190.553 436.198L187.373 436.27Z" fill="black"/>
<path d="M16.3809 499.951H405.234C405.234 499.951 407.36 479.382 383.133 484.956C387.656 474.316 385.578 461.048 368.479 457.376C341.712 451.628 310.949 485.827 309.351 483.562C307.753 481.298 308.057 476.58 308.057 476.58C308.057 476.58 316.047 465.78 308.76 458.798C301.473 451.816 286.483 450.539 274.897 456.984C275.792 444.007 273.907 421.507 262.513 419.33C251.118 417.152 246.436 431.668 246.436 431.668C243.847 424.962 242.249 413.61 229.257 415.251C216.265 416.891 202.698 429.912 195.203 443.107C190.313 432.699 179.526 420.883 163.849 423.873C148.172 426.863 133.981 441.292 128.292 451.366L123.099 452.455C123.099 452.455 122.396 432.496 104.322 433.308C86.2476 434.121 77.1548 458.987 77.3625 470.876C65.473 467.726 49.7163 470.208 58.3138 489.137C39.6006 483.025 16.3969 499.966 16.3969 499.966L16.3809 499.951Z" fill="#BEB293"/>
<path d="M406.689 501.403H11.8428L15.3744 498.819C16.3013 498.151 37.076 483.171 55.6773 486.93C53.3281 480.456 53.7916 475.506 57.0836 472.182C61.3663 467.857 69.1968 467.639 75.7648 469.003C76.4679 455.75 86.2639 432.67 104.21 431.857C109.388 431.625 113.75 432.96 117.17 435.82C122.556 440.334 124.09 447.404 124.505 450.67L127.19 450.104C132.847 440.494 146.83 425.644 163.498 422.465C178.328 419.635 189.354 429.186 195.299 439.899C202.938 427.72 215.818 415.498 229.034 413.828C241.003 412.333 244.359 420.709 246.596 427.357C249.409 422.175 254.842 416.412 262.832 417.936C274.786 420.23 277.135 440.871 276.624 454.487C288.066 449.392 302.464 450.699 309.911 457.826C317.294 464.895 311.03 474.998 309.623 477.06C309.575 478.395 309.719 480.384 310.199 481.792C311.349 481.022 313.267 479.498 315.121 478.018C325.923 469.439 348.376 451.599 368.831 455.997C376.118 457.565 381.488 461.005 384.348 465.955C387.113 470.731 387.512 476.842 385.531 483.026C392.258 481.937 397.548 482.851 401.256 485.74C407.696 490.748 406.849 499.748 406.801 500.125L406.673 501.446L406.689 501.403ZM21.3671 498.5H403.669C403.637 496.09 403.077 490.922 399.178 487.903C395.79 485.276 390.517 484.753 383.517 486.364L380.529 487.047L381.647 484.434C384.3 478.206 384.268 471.95 381.552 467.276C379.091 463.023 374.568 460.178 368.128 458.784C349.287 454.734 327.649 471.906 317.246 480.166C312.132 484.23 310.742 485.29 309.32 485.101C308.776 485.029 308.297 484.753 308.009 484.347C306.188 481.763 306.427 477.031 306.459 476.493L306.491 476.102L306.731 475.768C306.811 475.666 313.906 465.839 307.594 459.8C300.562 453.065 286.276 452.368 275.729 458.218L273.108 459.67L273.3 456.883C274.227 443.383 272.037 422.625 262.177 420.738C252.349 418.851 248.003 431.93 247.955 432.06L246.564 436.386L244.918 432.133C244.551 431.175 244.199 430.13 243.832 429.041C241.163 421.072 238.574 415.512 229.465 416.659C216.537 418.285 203.369 431.843 196.609 443.746L195.059 446.489L193.733 443.658C188.715 433.004 178.312 422.581 164.169 425.281C148.364 428.301 134.637 443.281 129.699 452.02L129.363 452.615L121.549 454.255L121.485 452.499C121.485 452.397 121.069 443.005 115.013 437.939C112.248 435.631 108.669 434.542 104.386 434.76C88.2295 435.486 78.7371 458.537 78.9449 470.847L78.9769 472.806L76.8993 472.255C71.1943 470.745 63.2201 470.324 59.4806 474.113C56.6681 476.958 56.7799 481.951 59.7843 488.556L61.1586 491.59L57.7707 490.487C44.5548 486.176 28.6702 494.13 21.3991 498.5H21.3671Z" fill="black"/>
<path d="M111.066 472.734C109.804 468.64 110.539 464.01 112.696 460.076C114.87 456.157 118.449 452.673 123.291 451.003C125.672 450.234 128.565 449.973 131.106 450.931C133.631 451.86 135.612 453.645 136.763 455.649C139.16 459.684 139.368 464.271 138.345 468.365C138.041 464.169 137.034 460.032 134.637 456.839C132.288 453.573 128.197 452.266 124.346 453.732C122.412 454.328 120.623 455.402 119.041 456.694C117.426 457.971 116.052 459.51 114.854 461.179C112.536 464.547 111.13 468.495 111.05 472.734H111.066Z" fill="black"/>
<path d="M159.407 478.409C160.206 474.998 161.229 471.602 162.763 468.364C164.217 465.098 166.151 461.977 168.468 459.103C173.023 453.311 179.623 448.594 187.389 446.489L188.843 446.126L190.346 445.879C191.336 445.691 192.343 445.618 193.366 445.56C195.395 445.415 197.425 445.545 199.534 445.952C203.689 446.895 207.269 449.857 208.739 453.312C210.401 456.723 210.849 460.366 210.817 463.894C210.737 467.435 210.209 470.934 209.219 474.302C209.506 470.818 209.602 467.348 209.235 463.952C208.915 460.555 208.116 457.187 206.486 454.299C204.904 451.381 202.139 449.291 198.815 448.637C195.475 448.057 191.688 448.376 188.268 449.291C184.784 450.176 181.492 451.715 178.504 453.631C175.484 455.532 172.799 457.884 170.434 460.497C165.624 465.694 162.204 471.935 159.407 478.409V478.409Z" fill="black"/>
<path d="M209.202 474.302C208.914 469.874 210.209 465.113 213.485 461.411C215.083 459.553 217.192 458.029 219.541 456.911C221.906 455.808 224.543 455.257 227.18 455.155C229.817 455.097 232.454 455.503 234.899 456.302C237.328 457.129 239.613 458.276 241.595 459.742C245.606 462.602 248.594 466.376 250.607 470.44C248.993 468.742 247.427 467.073 245.686 465.578C243.96 464.082 242.106 462.732 240.14 461.586C236.225 459.307 231.751 457.884 227.292 458.058C222.817 458.116 218.535 459.945 215.354 462.892C212.158 465.868 210.225 469.961 209.186 474.302H209.202Z" fill="black"/>
<path d="M229.913 441.844C231.447 439.449 233.876 437.46 236.769 436.241C239.661 435.007 243.001 434.528 246.229 434.963C249.457 435.384 252.526 436.778 254.843 438.796C257.176 440.813 258.71 443.455 259.205 446.199C257.463 443.92 255.53 441.975 253.261 440.538C250.991 439.1 248.435 438.201 245.766 437.823C243.097 437.475 240.332 437.649 237.664 438.346C234.979 439.042 232.422 440.262 229.913 441.844V441.844Z" fill="black"/>
<path d="M255.418 464.14C255.402 462.137 256.537 460.12 258.279 458.697C260.036 457.289 262.29 456.403 264.639 456.113C266.988 455.808 269.465 456.142 271.702 457.057C272.805 457.521 273.86 458.189 274.739 458.871C275.554 459.51 276.401 460.163 277.2 460.845C278.798 462.239 280.38 463.748 281.642 465.505C282.889 467.261 283.879 469.221 284.343 471.282C285.302 475.419 284.423 479.556 282.793 483.2C283.16 479.266 283.224 475.361 281.946 471.863C280.683 468.379 278.11 465.519 275.01 462.965L272.661 461.019C271.926 460.41 271.191 459.945 270.36 459.553C268.714 458.726 266.78 458.392 264.847 458.407C262.913 458.465 260.931 458.915 259.237 459.858C257.512 460.773 256.137 462.268 255.418 464.155V464.14Z" fill="black"/>
<path d="M77.8418 469.482C81.3575 470.876 84.0422 473.169 86.2155 475.681C87.3022 476.944 88.2451 478.279 89.0441 479.687C89.8272 481.095 90.4983 482.576 90.8019 484.1C90.2266 482.634 89.3478 481.298 88.357 480.064C87.3662 478.831 86.2315 477.684 85.017 476.653C82.604 474.607 79.7595 472.908 76.7871 472.226L77.8258 469.482H77.8418Z" fill="black"/>
<path d="M175.641 326.239C163.129 319.461 129.825 318.735 128.77 340.276C113.589 346.329 110.393 368.582 139.685 370.281C145.806 384.797 164.982 391.808 186.828 385.043C194.019 397.629 210.798 391.445 216.919 387.642C242.616 393.942 267.593 378.337 273.586 368.176C292.954 366.55 299.954 355.474 299.954 347.679C299.954 339.884 291.564 323.554 268.6 330.086C268.2 319.925 257.014 301.606 225.053 323.38C193.092 345.154 175.641 326.283 175.641 326.283V326.239Z" fill="#BEB293"/>
<path d="M200.507 394C198.941 394 197.375 393.84 195.857 393.492C191.702 392.548 188.41 390.284 186.077 386.771C165.143 392.78 145.487 386.524 138.583 371.645C120.477 370.295 116.802 361.455 116.066 357.666C114.692 350.568 119.454 342.817 127.237 339.304C127.844 332.554 131.632 327.299 138.216 324.077C149.546 318.531 167.46 320.099 176.457 324.962L176.696 325.093L176.872 325.281C177.544 326.007 193.812 342.788 224.095 322.16C241.945 310.011 252.955 310.62 259.06 313.262C265.692 316.136 269.224 322.509 270.023 328.155C280.825 325.572 287.889 328.155 291.98 330.884C298.564 335.268 301.552 342.642 301.552 347.636C301.552 356.941 293.098 367.653 274.577 369.511C267.769 379.948 243.112 395.146 217.223 389.18C213.596 391.285 207.091 393.985 200.523 393.985L200.507 394ZM187.611 383.243L188.25 384.347C190.168 387.714 192.997 389.834 196.64 390.675C203.895 392.33 212.493 388.614 216.025 386.422L216.632 386.045L217.351 386.219C242.105 392.272 266.555 377.016 272.196 367.465L272.595 366.782L273.458 366.71C290.573 365.273 298.372 355.823 298.372 347.65C298.372 344.08 296.167 337.286 290.11 333.236C284.677 329.607 277.613 329.012 269.096 331.436L267.098 332.002L267.018 330.101C266.811 324.962 263.854 318.575 257.702 315.89C250.079 312.58 239.132 315.556 226.028 324.483C195.09 345.56 176.776 329.433 174.651 327.372C166.341 322.988 149.753 321.754 139.75 326.646C133.837 329.535 130.689 334.136 130.385 340.32L130.337 341.22L129.426 341.583C122.427 344.37 118.048 351.062 119.231 357.158C120.541 363.879 128.036 368.132 139.814 368.8L140.836 368.858L141.204 369.729C147.244 384.027 166.213 389.877 186.333 383.635L187.627 383.229L187.611 383.243Z" fill="black"/>
<path d="M212.798 357.695C214.987 354.792 217.864 352.31 221.076 350.278C224.288 348.231 227.915 346.663 231.799 345.734C235.682 344.863 239.901 344.718 243.8 345.865C247.699 346.953 251.039 349.319 253.149 352.252C250.048 350.147 246.708 348.637 243.193 348.071C239.677 347.505 236.065 347.737 232.566 348.565C229.05 349.334 225.662 350.669 222.37 352.208C219.078 353.79 215.93 355.634 212.798 357.695Z" fill="black"/>
<path d="M234.945 346.112C236.479 343.934 238.605 342.091 241.034 340.741C243.479 339.391 246.196 338.578 248.944 338.157C251.693 337.736 254.505 337.779 257.19 338.273C259.875 338.752 262.432 339.71 264.605 341.104C259.683 339.246 254.314 339.217 249.52 340.436C247.122 341.06 244.885 342.091 242.888 343.339C240.874 344.587 239.116 346.097 237.534 347.795L234.945 346.097V346.112Z" fill="black"/>
<path d="M172.319 367.798C173.07 371.369 175.083 374.389 177.656 376.813C180.245 379.222 183.425 381.008 186.941 381.734C190.441 382.547 194.196 382.242 197.84 381.414C201.547 380.659 205.015 379.034 208.69 377.582C205.782 380.021 202.506 382.314 198.591 383.577L197.152 384.114L195.634 384.434C194.612 384.608 193.605 384.927 192.534 384.927C192.007 384.971 191.479 384.971 190.952 385C190.425 385.014 189.897 385.058 189.354 384.971C188.299 384.826 187.213 384.826 186.19 384.55C182.003 383.621 178.264 381.313 175.755 378.264C174.444 376.784 173.549 375.027 172.846 373.285C172.271 371.485 171.967 369.598 172.303 367.798H172.319Z" fill="black"/>
<path d="M134.237 349.349C133.997 352.92 134.237 356.403 135.371 359.568C136.458 362.747 138.519 365.505 141.252 367.639C143.937 369.831 147.261 371.398 150.744 372.676C154.26 373.939 158 374.751 161.803 375.724C157.888 375.956 153.877 375.768 149.977 374.839C146.094 373.924 142.291 372.313 139.127 369.816C137.56 368.568 136.234 367.058 135.131 365.447C134.652 364.605 134.189 363.748 133.789 362.863C133.486 361.948 133.07 361.077 132.958 360.134C132.175 356.432 132.702 352.658 134.237 349.363V349.349Z" fill="black"/>
<path d="M273.523 369.613C270.247 369.206 267.227 368.263 264.382 367.044C261.554 365.824 258.885 364.387 256.408 362.718C259.141 363.981 262.017 364.968 264.926 365.694C267.834 366.405 270.807 366.811 273.667 366.724L273.523 369.627V369.613Z" fill="black"/>
<path d="M105.6 335.312C104.88 339.086 104.705 342.802 105.04 346.46C105.392 350.118 106.191 353.718 107.485 357.173C108.732 360.642 110.474 363.952 112.615 367.072C114.772 370.179 117.361 373.068 120.398 375.724C116.594 374.04 113.27 371.442 110.586 368.379C107.885 365.331 105.855 361.803 104.465 358.087C103.123 354.357 102.42 350.423 102.563 346.518C102.691 342.613 103.634 338.708 105.616 335.312H105.6Z" fill="black"/>
<path d="M89.6193 354.371C90.4503 357.652 91.8566 360.584 93.8062 363.182C95.7718 365.766 98.1688 368.045 100.87 370.048C103.538 372.095 106.495 373.851 109.547 375.506C112.631 377.132 115.811 378.613 119.183 379.963C115.492 379.788 111.848 378.845 108.428 377.539C104.993 376.232 101.749 374.461 98.8241 372.298C95.9476 370.092 93.3588 367.45 91.6489 364.329C89.907 361.252 89.1079 357.71 89.6193 354.386V354.371Z" fill="black"/>
<path d="M290.973 370.701C294.537 368.8 297.957 366.855 301.057 364.619C304.141 362.369 306.969 359.858 309.143 356.969C311.364 354.11 312.978 350.887 313.729 347.418C314.496 343.949 314.448 340.305 313.937 336.589C315.727 339.971 316.574 343.847 316.206 347.737C315.887 351.642 314.209 355.416 311.764 358.624C309.271 361.818 306.059 364.46 302.479 366.463C298.915 368.481 295 369.918 290.957 370.701H290.973Z" fill="black"/>
<path d="M303.103 372.69C305.851 371.036 308.408 369.381 310.789 367.523C313.154 365.679 315.328 363.661 317.325 361.499C319.307 359.336 321.144 357.042 322.806 354.618C324.452 352.179 325.939 349.668 327.329 346.954C327.249 349.944 326.338 352.905 325.028 355.663C323.701 358.421 321.928 361.034 319.786 363.357C315.487 367.973 309.607 371.587 303.119 372.676L303.103 372.69Z" fill="black"/>
<path d="M175.036 340.117L170.913 290.501L229.45 291.401L224.831 342.875L175.036 340.117Z" fill="#BEB293"/>
<path d="M226.414 342.991L223.234 342.758L227.724 292.824L172.639 291.982L176.634 340L173.438 340.233L169.188 289.021L231.176 289.979L226.414 342.991Z" fill="black"/>
<path d="M157.729 345.473C158.289 343.92 159.471 342.555 160.942 341.554C162.396 340.508 164.122 339.826 165.896 339.347C169.475 338.433 173.374 338.476 176.986 339.507C180.614 340.508 183.874 342.526 186.415 345.066C188.987 347.607 190.729 350.728 191.976 353.907L189.099 353.674C190.298 351.744 191.96 350.249 193.734 349C195.507 347.766 197.425 346.736 199.375 345.85C203.322 344.123 207.493 342.947 211.76 342.294C216.026 341.641 220.405 341.496 224.688 342.105C228.923 342.744 233.189 344.21 236.226 346.953C232.726 344.762 228.603 343.818 224.512 343.571C220.405 343.339 216.266 343.76 212.271 344.573C208.276 345.4 204.361 346.634 200.765 348.332C197.201 349.987 193.734 352.208 191.88 355.039L190.09 357.768L188.987 354.821C187.901 351.903 186.319 349.145 184.209 346.823C182.068 344.515 179.335 342.671 176.203 341.568C173.087 340.494 169.603 340.117 166.231 340.654C164.553 340.915 162.891 341.394 161.405 342.178C159.903 342.947 158.576 344.036 157.729 345.473V345.473Z" fill="black"/>
<path d="M223.504 291.749C222.13 295.306 221.203 299.196 220.324 303.028C219.461 306.875 218.71 310.765 218.055 314.67C217.384 318.56 216.808 322.48 216.345 326.399C215.897 330.318 215.514 334.267 215.482 338.215C215.258 334.267 215.354 330.304 215.546 326.341C215.738 322.378 216.073 318.43 216.473 314.481C216.872 310.533 217.368 306.599 217.975 302.651C218.614 298.703 219.253 294.798 220.5 290.806L223.52 291.735L223.504 291.749Z" fill="black"/>
<path d="M212.653 291.619C211.119 299.37 209.969 307.224 208.978 315.106C208.483 319.039 208.051 322.988 207.652 326.936C207.268 330.884 206.884 334.833 206.661 338.796C206.613 334.833 206.725 330.855 206.853 326.893C206.98 322.93 207.156 318.952 207.38 314.99C207.827 307.049 208.451 299.124 209.473 291.198L212.637 291.633L212.653 291.619Z" fill="black"/>
<path d="M180.901 296.482C181.573 300.691 182.084 304.886 182.563 309.096C183.059 313.291 183.426 317.501 183.794 321.696C184.129 325.906 184.449 330.101 184.657 334.31L184.96 340.625C185.008 342.729 185.104 344.849 185.088 346.954C184.737 344.863 184.481 342.758 184.177 340.668L183.426 334.368C182.931 330.159 182.563 325.949 182.196 321.739C181.86 317.53 181.541 313.32 181.333 309.096C181.109 304.886 180.917 300.677 180.901 296.467V296.482Z" fill="black"/>
<path d="M192.694 302.651C193.126 306.164 193.382 309.691 193.605 313.204C193.845 316.717 193.973 320.244 194.085 323.771C194.165 327.299 194.245 330.812 194.197 334.339L194.117 339.623C194.037 341.394 194.005 343.15 193.877 344.921C193.653 343.165 193.525 341.408 193.334 339.652L192.966 334.368C192.726 330.855 192.599 327.328 192.487 323.8C192.407 320.273 192.327 316.76 192.375 313.233C192.407 309.706 192.455 306.178 192.694 302.651V302.651Z" fill="black"/>
<path d="M304.43 284.622C307.562 281.37 310.311 277.988 312.756 274.417C315.153 270.847 317.326 267.145 319.052 263.269C320.842 259.423 322.296 255.445 323.383 251.381C324.405 247.316 325.252 243.15 324.405 238.897C325.556 240.813 325.924 243.048 326.163 245.226C326.259 247.418 326.195 249.624 325.844 251.787C325.22 256.127 323.83 260.351 322.008 264.387C320.139 268.408 317.742 272.24 314.801 275.695C311.877 279.15 308.425 282.27 304.43 284.608V284.622Z" fill="black"/>
<path d="M307.482 286.93C310.567 284.535 313.475 282.111 316.24 279.542C318.972 276.972 321.577 274.301 323.942 271.485C326.355 268.684 328.513 265.737 330.462 262.645C332.38 259.539 334.026 256.316 335.32 252.818C335.352 256.519 334.298 260.206 332.716 263.647C331.134 267.101 328.96 270.295 326.483 273.256C323.958 276.188 321.114 278.888 317.918 281.211C314.753 283.548 311.27 285.551 307.498 286.93H307.482Z" fill="black"/>
<path d="M89.5899 231C88.1836 234.281 86.9691 237.489 86.3938 240.784C85.8345 244.05 85.8665 247.359 86.6655 250.538C87.4006 253.732 88.8708 256.766 90.7725 259.611C92.7061 262.456 95.0873 265.069 97.8359 267.536C94.3202 266.056 91.204 263.719 88.743 260.917C86.2501 258.116 84.4443 254.748 83.5494 251.163C82.7024 247.563 82.8302 243.774 83.9648 240.305C85.0674 236.821 87.049 233.656 89.5739 231.015L89.5899 231Z" fill="black"/>
<path d="M73.0964 241.452C73.2722 244.718 73.6557 247.868 74.4547 250.887C75.2697 253.892 76.4523 256.795 78.0823 259.481C79.6484 262.195 81.6619 264.706 83.8832 267.102C86.1205 269.482 88.6294 271.703 91.2022 273.997C87.8783 272.719 84.81 270.905 82.0933 268.684C79.3607 266.477 77.0276 263.806 75.2537 260.845C73.5278 257.869 72.3613 254.589 71.9937 251.25C71.6102 247.926 71.9458 244.544 73.0804 241.438L73.0964 241.452Z" fill="black"/>
<path d="M192.694 222.451C164.936 217.733 110.203 203.028 116.196 240.595C99.2244 242.047 89.4283 261.281 113.799 269.076C119.791 285.043 140.358 291.024 159.343 286.858C163.802 300.096 195.491 306.875 208.883 293.332C220.468 306.091 243.033 303.914 251.63 293.216C272.805 294.116 279.5 285.145 280.299 278.337C293.18 277.974 301.777 274.708 307.562 266.724C313.347 258.74 312.948 242.221 298.581 238.592C298.389 228.155 292.684 219.722 280.699 218.633C268.714 217.544 260.132 221.173 256.632 227.517C253.74 221.434 241.722 214.815 230.536 226.065C219.35 237.315 192.71 222.436 192.71 222.436L192.694 222.451Z" fill="#BEB293"/>
<path d="M230.168 303.551C221.826 303.551 214.187 300.648 208.818 295.48C200.684 302.535 188.139 303.144 178.807 301.286C168.755 299.269 161.068 294.464 158.32 288.57C140.31 292.054 119.311 286.93 112.536 270.222C97.7536 265.229 97.1942 256.882 97.6577 253.485C98.6005 246.561 105.664 240.682 114.389 239.347C113.366 231.029 115.348 224.686 120.27 220.476C132.831 209.735 161.979 215.236 183.265 219.257C186.733 219.91 190.009 220.534 192.965 221.028L193.253 221.072L193.509 221.217C193.764 221.362 219.141 235.326 229.305 225.107C235.665 218.705 241.898 218.096 246.005 218.705C250.751 219.417 254.458 221.957 256.616 224.686C261.186 218.981 269.991 216.209 280.81 217.181C292.332 218.226 299.475 225.789 300.083 237.504C305.308 239.129 309.112 242.526 311.125 247.374C313.762 253.761 312.819 262.035 308.856 267.508C303.183 275.332 294.745 279.135 281.641 279.73C280.011 287.612 271.573 295.291 252.349 294.682C247.746 299.922 239.708 303.29 231.111 303.522C230.775 303.522 230.456 303.522 230.136 303.522L230.168 303.551ZM208.93 291.111L210.112 292.417C215.066 297.861 222.721 300.88 231.063 300.633C239.037 300.415 246.42 297.251 250.335 292.359L250.847 291.72L251.71 291.764C275.137 292.795 278.301 281.617 278.717 278.177L278.86 276.914L280.251 276.871C293.147 276.508 300.93 273.227 306.235 265.911C309.623 261.237 310.438 253.877 308.185 248.39C306.954 245.4 304.206 241.51 298.149 239.986L296.998 239.695V238.607C296.775 227.749 290.782 220.999 280.538 220.07C269.8 219.097 261.378 222.117 258.054 228.17L256.52 230.957L255.161 228.097C253.899 225.455 250.351 222.291 245.525 221.565C240.763 220.854 235.985 222.741 231.718 227.038C220.26 238.563 195.139 225.441 192.134 223.815C189.226 223.321 186.03 222.712 182.658 222.073C162.059 218.183 133.853 212.87 122.507 222.567C118.033 226.384 116.499 232.205 117.793 240.378L118.033 241.887L116.355 242.032C108.333 242.715 101.669 247.795 100.854 253.819C100.071 259.64 104.977 264.706 114.341 267.697L115.076 267.929L115.332 268.597C121.357 284.622 141.844 289.209 158.991 285.435L160.461 285.116L160.908 286.422C162.714 291.807 170.033 296.511 179.542 298.427C188.507 300.227 200.604 299.573 207.731 292.359L208.978 291.096L208.93 291.111Z" fill="black"/>
<path d="M159.325 286.872C158.255 279.788 159.325 273.692 159.325 273.692V286.872Z" fill="#BEB293"/>
<path d="M157.744 287.061C157.632 282.488 158.16 277.988 159.326 273.677C159.214 278.105 159.774 282.503 160.908 286.669L157.744 287.061Z" fill="black"/>
<path d="M117.426 253.486C111.401 263.647 115.396 276.101 136.97 273.692L117.426 253.486Z" fill="#BEB293"/>
<path d="M117.426 253.486C116.467 256.374 115.907 259.248 116.163 261.992C116.419 264.706 117.474 267.247 119.567 268.989C121.596 270.774 124.409 271.877 127.413 272.545C130.434 273.271 133.662 273.343 136.97 273.692C133.806 274.534 130.434 275.129 127.014 274.78C123.626 274.49 120.03 273.431 117.33 271.064C114.549 268.756 113.446 265.156 113.686 262.007C113.91 258.798 115.316 255.823 117.442 253.5L117.426 253.486Z" fill="black"/>
<path d="M116.179 240.595C125.016 241.495 128.5 244.471 128.5 244.471L116.179 240.595Z" fill="#BEB293"/>
<path d="M116.371 239.158C117.49 239.405 118.592 239.681 119.695 240C120.782 240.334 121.852 240.683 122.891 241.118C123.93 241.539 124.937 242.018 125.895 242.57C126.838 243.121 127.765 243.731 128.516 244.471C127.589 243.92 126.567 243.542 125.544 243.223C124.521 242.904 123.466 242.686 122.412 242.497C121.357 242.308 120.286 242.207 119.216 242.134C118.145 242.062 117.074 242.047 116.02 242.047L116.371 239.158Z" fill="black"/>
<path d="M208.866 293.332C215.131 287.583 216.92 278.816 216.92 278.816L208.866 293.332Z" fill="#BEB293"/>
<path d="M207.731 292.315C208.786 291.474 209.825 290.574 210.72 289.528C211.631 288.498 212.494 287.424 213.245 286.262C214.763 283.954 216.025 281.443 216.92 278.816C216.553 281.559 215.786 284.259 214.683 286.887C214.14 288.207 213.468 289.485 212.701 290.748C211.95 292.011 211.007 293.201 210.001 294.348L207.731 292.301V292.315Z" fill="black"/>
<path d="M251.614 293.216C240.763 291.517 236.496 285.711 235.298 283.664L251.614 293.216Z" fill="#BEB293"/>
<path d="M251.342 294.653C249.648 294.232 247.954 293.767 246.356 293.1C244.758 292.446 243.208 291.691 241.818 290.748C239.005 288.89 236.672 286.466 235.298 283.679C237.136 286.248 239.772 288.193 242.649 289.514C244.087 290.196 245.621 290.675 247.155 291.053C248.689 291.459 250.304 291.633 251.87 291.793L251.326 294.653H251.342Z" fill="black"/>
<path d="M280.282 278.337C279.515 271.558 276.191 267.145 276.191 267.145L280.282 278.337Z" fill="#BEB293"/>
<path d="M278.7 278.482C278.748 276.595 278.572 274.664 278.173 272.763C277.757 270.861 277.15 268.945 276.207 267.145C277.613 268.698 278.732 270.455 279.691 272.313C280.634 274.171 281.385 276.145 281.88 278.192L278.7 278.482V278.482Z" fill="black"/>
<path d="M216.265 28.9102C210.672 9.79278 206.453 -1.03611 183.505 1.93965C161.931 4.7267 132.703 21.42 122.348 41.0164C121.309 31.2182 119.056 28.4312 114.917 28.5619C110.794 28.678 99.2081 41.2632 95.4686 58.2033C72.8243 51.4244 48.4539 55.5469 33.2725 76.5949C18.091 97.643 20.6958 120.143 50.2437 133.091C37.7949 138.287 31.9301 154.386 51.7779 161.034C54.0471 176.029 68.2218 190.545 102.979 175.666C104.178 189.456 125.144 204.335 162.299 188.367C177.081 203.246 203.513 205.424 212.877 198.528C242.202 210.867 276.16 210.141 297.734 191.271C303.119 205.235 320.17 204.378 328.688 200.343C337.877 195.988 341.872 187.279 339.267 178.569C352.052 180.921 363.238 176.566 367.425 171.863C387.8 172.589 414.759 154.748 414.503 122.567C414.232 90.385 391.332 82.4013 380.145 82.1691C378.212 70.9773 371.42 58.8275 352.851 68.6257C359.035 53.5582 360.441 33.2359 328.688 39.7681C330.686 18.8942 310.518 -4.14251 262.976 27.0667C258.581 21.3184 242.873 17.6894 232.885 34.4988C227.963 29.8973 220.276 29.244 216.233 28.9392L216.265 28.9102Z" fill="#BEB293"/>
<path d="M252.206 208.196C239.549 208.196 226.173 205.554 213.085 200.183C202.922 206.556 177.209 204.654 161.932 190.109C136.475 200.749 120.958 196.206 113.926 192.504C107.39 189.064 102.948 183.664 101.685 177.771C85.8805 184.187 73.0802 185.087 63.6037 180.413C56.5084 176.914 51.8261 170.426 50.3239 162.05C39.3294 158.058 37.3956 151.627 37.2518 148.086C37.0121 142.424 40.8315 136.589 46.8242 133.105C34.6471 127.183 26.7207 119.126 23.8282 109.648C20.6481 99.2396 23.4447 87.5253 31.9304 75.7674C45.7855 56.5629 68.9892 49.3485 94.2703 56.3161C98.3134 40.2616 109.404 27.2553 114.853 27.0956C114.949 27.0956 115.061 27.0956 115.157 27.0956C120.031 27.0956 122.172 30.6665 123.275 36.3857C135.628 17.8054 163.274 3.08632 183.266 0.502486C206.997 -2.57488 211.951 8.73302 217.512 27.5601C221.347 27.8795 227.676 28.6779 232.502 32.1907C238.734 22.8134 246.389 21.028 250.528 20.8102C256.105 20.5054 260.707 22.5957 263.28 25.0634C291.278 7.03462 307.914 8.73302 316.975 13.4071C325.78 17.9361 330.83 27.2262 330.446 37.9244C341.68 35.9357 349.623 37.2857 354.081 41.9163C360.042 48.1146 358.172 58.3774 355.695 65.6353C361.608 63.1966 366.738 62.8918 370.973 64.7208C377.541 67.5659 380.353 74.7658 381.552 80.7463C394.128 81.6173 415.894 91.1688 416.149 122.523C416.277 137.707 410.301 151.381 399.322 161.048C390.533 168.785 379.187 173.3 368.687 173.3C368.528 173.3 368.352 173.3 368.192 173.3C363.478 178.017 352.979 181.777 341.377 180.325C342.943 189.02 338.356 197.382 329.471 201.591C324.022 204.175 315.201 205.569 307.722 202.898C302.992 201.199 299.38 198.049 297.159 193.724C285.301 203.29 269.433 208.181 252.222 208.181L252.206 208.196ZM212.67 196.801L213.581 197.178C244.391 210.141 276.991 207.398 296.663 190.196L298.453 188.628L299.268 190.762C301.042 195.378 304.286 198.557 308.888 200.198C315.408 202.549 323.175 201.301 327.985 199.022C336.391 195.045 340.226 187.148 337.765 178.917L337.094 176.653L339.635 177.117C351.412 179.295 362.119 175.55 366.242 170.919L366.754 170.353L367.553 170.382C377.477 170.701 388.583 166.477 397.117 158.973C407.456 149.871 413.097 136.937 412.969 122.552C412.714 92.3446 392.243 83.8528 380.177 83.5915L378.851 83.5624L378.643 82.3722C377.876 77.8868 375.671 69.9756 369.63 67.3482C365.555 65.5918 360.218 66.4337 353.73 69.845L349.862 71.8771L351.428 68.074C353.554 62.9063 357.837 50.2049 351.7 43.8179C347.801 39.7534 340.194 38.8535 329.104 41.147L326.962 41.5825L327.154 39.6083C328.129 29.4036 323.526 20.099 315.424 15.9329C303.599 9.83622 285.317 14.2054 263.967 28.2133L262.641 29.0843L261.714 27.8649C260.036 25.673 255.849 23.4231 250.735 23.7134C244.359 24.0327 238.526 28.1117 234.339 35.1665L233.301 36.9084L231.782 35.4858C227.196 31.2036 219.733 30.6375 216.138 30.3472L215.019 30.2601L214.731 29.273C209.186 10.3298 205.303 0.575023 183.745 3.36208C163.162 6.01849 134.158 22.0296 123.802 41.6261L121.325 46.3292L120.782 41.1325C119.679 30.7101 117.282 29.9407 114.997 29.9843C112.073 30.0714 100.758 41.6841 97.0669 58.4499L96.7153 60.0612L95.0054 59.5532C70.5392 52.2371 47.9748 58.8854 34.6471 77.3497C26.6888 88.3963 24.02 99.2832 26.9445 108.864C29.8369 118.328 37.923 126.021 50.9791 131.741L54.0313 133.076L50.9471 134.368C44.5549 137.039 40.2562 142.628 40.4959 147.969C40.7036 152.992 44.9225 157.144 52.3694 159.64L53.2643 159.945L53.3922 160.802C54.0793 165.345 56.5243 173.605 65.1698 177.858C73.9591 182.183 86.8074 180.964 102.324 174.316L104.418 173.416L104.594 175.506C105.089 181.211 109.18 186.625 115.556 189.964C122.14 193.433 136.874 197.657 161.644 187.003L162.715 186.538L163.514 187.337C177.72 201.635 203.321 203.652 211.887 197.338L212.654 196.772L212.67 196.801Z" fill="black"/>
<path d="M273.891 183.621C277.742 184.898 281.577 185.929 285.46 186.509C289.344 187.075 293.259 187.264 297.158 187.003C301.073 186.8 304.957 186.175 308.84 185.377C312.723 184.564 316.575 183.519 320.538 182.532C317.134 184.622 313.442 186.292 309.543 187.554C305.66 188.832 301.553 189.63 297.366 189.906C293.179 190.124 288.928 189.79 284.917 188.716C280.89 187.671 277.119 185.958 273.907 183.635L273.891 183.621Z" fill="black"/>
<path d="M381.792 81.9949C382.16 88.048 381.137 94.0576 378.995 99.6607C376.854 105.264 373.594 110.49 369.279 114.844C373.179 110.185 375.879 104.799 377.461 99.2398C379.027 93.6657 379.475 87.8593 378.612 82.2707L381.792 81.9949V81.9949Z" fill="black"/>
<path d="M328.719 60.787C333.913 59.9161 339.714 60.6419 344.444 63.4725C346.809 64.8515 348.807 66.7967 350.261 69.0321C351.699 71.2821 352.498 73.8804 352.658 76.4787C352.77 79.1061 352.178 81.69 351.188 84.0415C350.149 86.3931 348.807 88.585 347.161 90.5592C343.933 94.522 339.889 97.8752 335.303 100.328C339.058 96.9317 342.414 93.2736 345.083 89.2963C347.704 85.348 349.686 80.9496 349.446 76.5949C349.302 72.2256 346.841 68.0596 342.974 65.287C339.09 62.4709 333.993 61.1065 328.703 60.7726L328.719 60.787Z" fill="black"/>
<path d="M353.89 122.842C358.86 122.436 364.181 122.726 368.911 125.107C371.276 126.254 373.322 128.083 374.728 130.231C376.119 132.408 376.79 134.847 377.093 137.228C377.317 139.594 377.317 142.047 376.71 144.413C376.119 146.765 375.144 149 373.865 151.047C371.308 155.14 367.809 158.639 363.686 161.266C366.898 157.768 369.662 154.023 371.644 150.031C373.626 146.01 374.521 141.829 373.929 137.533C373.546 133.279 371.516 129.389 367.617 127.038C363.766 124.628 358.828 123.626 353.906 122.857L353.89 122.842Z" fill="black"/>
<path d="M329.728 164.576C329.392 166.129 329.184 167.726 329.328 169.264C329.456 170.803 330.047 172.24 331.102 173.314C332.141 174.403 333.531 175.187 335.033 175.782C336.535 176.377 338.165 176.798 339.795 177.161L338.82 179.919C337.142 179.295 335.48 178.584 333.898 177.684C332.332 176.784 330.83 175.637 329.807 174.156C328.753 172.676 328.401 170.905 328.529 169.264C328.641 167.624 329.136 166.056 329.728 164.561V164.576Z" fill="black"/>
<path d="M368.575 172.879L366.386 170.774C369.534 168.059 370.764 163.777 370.844 160.671C370.908 158.247 370.317 156.127 369.278 155.14L371.595 153.137C373.241 154.705 374.136 157.477 374.056 160.744C373.96 164.431 372.474 169.555 368.607 172.879H368.575Z" fill="black"/>
<path d="M92.4167 149.697C90.3233 153.761 90.8986 158.276 92.5446 162.079C94.4143 165.853 97.6903 168.887 101.733 170.76L103.236 171.5C103.763 171.689 104.322 171.848 104.85 172.037C105.936 172.371 106.991 172.806 108.158 172.966L111.577 173.677C112.744 173.779 113.926 173.895 115.109 174.04C115.7 174.098 116.292 174.185 116.883 174.214L118.673 174.243L122.284 174.345C124.697 174.316 127.11 174.156 129.587 174.185C127.238 174.795 124.841 175.332 122.412 175.768L118.721 176.145L116.867 176.305C116.244 176.334 115.62 176.305 114.997 176.305C113.751 176.29 112.488 176.261 111.242 176.203L107.486 175.651C106.224 175.521 105.025 175.056 103.811 174.708C103.204 174.519 102.596 174.345 101.989 174.142L100.263 173.329L98.5533 172.487C98.0259 172.153 97.5145 171.776 96.9871 171.413C96.4757 171.05 95.9484 170.702 95.453 170.31L94.1266 168.989C92.3368 167.232 91.1223 165.069 90.2434 162.863C89.5882 160.584 89.1407 158.232 89.5562 155.924C89.9398 153.645 90.7548 151.366 92.4487 149.697H92.4167Z" fill="black"/>
<path d="M50.1951 161.107C49.7477 157.071 50.6586 152.891 52.7999 149.276C53.8547 147.462 55.229 145.821 56.8909 144.384C57.7219 143.673 58.6168 143.02 59.6235 142.454C60.6303 141.887 61.733 141.394 63.1233 141.176L62.1805 143.6C59.1921 140.436 57.7698 136.488 57.3543 132.597C56.9548 128.693 57.5461 124.715 59.256 121.13C60.934 117.559 63.7306 114.423 67.2463 112.304C70.762 110.17 74.885 109.111 78.96 108.733C74.9329 109.444 71.0177 110.809 67.8855 113.102C64.7054 115.323 62.3403 118.386 61.0458 121.768C59.7514 125.151 59.3679 128.809 59.9432 132.307C60.4865 135.805 62.0526 139.188 64.5616 141.612L66.5271 143.513L63.6187 144.05C62.2284 144.312 60.5504 145.386 59.256 146.576C57.9137 147.795 56.811 149.233 55.8842 150.757C54.9733 152.295 54.3181 153.95 53.9026 155.649C53.4711 157.347 53.3433 159.118 53.3912 160.889L50.1951 161.092V161.107Z" fill="black"/>
<path d="M56.4609 107.601C57.9152 104.494 60.3442 101.707 63.3805 99.5881C66.4008 97.4398 70.0124 96.0027 73.7199 95.1608C77.4433 94.3769 81.2946 94.1736 85.0341 94.5365C88.7735 94.8704 92.433 95.7123 95.8209 97.0768C92.1134 96.8881 88.5018 96.7139 84.9382 96.801C81.3745 96.9171 77.8589 97.222 74.471 97.9913C71.0671 98.7026 67.8231 99.8639 64.7868 101.461C61.7505 103.072 59.0338 105.177 56.4769 107.615L56.4609 107.601Z" fill="black"/>
<path d="M64.5791 93.2591C67.1679 90.3124 70.8594 88.1785 74.7427 86.756C78.6419 85.3044 82.8128 84.535 86.9997 84.2302C91.1866 83.9979 95.4214 84.2302 99.5124 85.1447C103.556 86.0592 107.631 87.627 110.523 90.356C106.848 88.6431 102.964 87.8446 99.049 87.3801C95.1178 86.9446 91.1546 86.8576 87.2234 87.1334C83.2763 87.3656 79.377 87.9463 75.5577 88.8898C71.7384 89.8624 68.0629 91.2269 64.5791 93.2591V93.2591Z" fill="black"/>
<path d="M96.1409 56.8532L98.6658 58.1886C99.4648 58.6966 100.296 59.1467 101.079 59.6838C102.645 60.7289 104.115 61.8902 105.458 63.1386C106.784 64.416 107.998 65.7659 109.021 67.232C110.028 68.6981 110.907 70.2659 111.386 71.9207C110.651 70.3384 109.564 68.9449 108.382 67.6675C107.183 66.3901 105.825 65.2434 104.387 64.2127C102.933 63.1966 101.398 62.2966 99.7844 61.5127C99.0013 61.1063 98.1544 60.787 97.3394 60.4096L94.8145 59.4805L96.1409 56.8386V56.8532Z" fill="black"/>
<path d="M256.808 50.4371C257.463 54.6322 257.24 58.9289 256.52 63.124C255.817 67.3336 254.555 71.4561 252.941 75.448C251.279 79.4254 249.249 83.2866 246.74 86.8865C244.231 90.472 241.275 93.8687 237.647 96.5251C240.284 93.0413 242.538 89.4558 244.567 85.7688C246.565 82.0672 248.386 78.2931 249.952 74.4319C251.566 70.5852 252.909 66.6514 254.091 62.6595C255.242 58.6676 256.153 54.6032 256.824 50.4226L256.808 50.4371Z" fill="black"/>
<path d="M267.595 69.8594C267.403 73.5319 266.572 77.1464 265.438 80.6592C264.319 84.1866 262.817 87.5978 261.123 90.922C259.381 94.2171 257.431 97.4396 255.146 100.473C252.877 103.493 250.32 106.41 247.22 108.762C249.313 105.627 251.183 102.491 253.005 99.3122C254.81 96.1187 256.568 92.9252 258.23 89.6881C259.94 86.4656 261.522 83.1995 263.088 79.9044C264.638 76.6093 266.109 73.2851 267.595 69.8739V69.8594Z" fill="black"/>
<path d="M264.399 26.3262C265.102 27.8068 265.757 29.3165 266.189 30.8697C266.668 32.4083 266.924 33.9906 267.099 35.5584C267.259 37.1261 267.211 38.7083 267.052 40.2615C266.876 41.8147 266.556 43.3534 265.997 44.805C266.3 43.2953 266.332 41.7566 266.253 40.247C266.157 38.7373 265.933 37.2422 265.517 35.7906C265.102 34.339 264.623 32.9309 263.935 31.5809C263.296 30.2309 262.465 28.9536 261.618 27.7343L264.415 26.3262H264.399Z" fill="black"/>
<path d="M334.648 33.0182C334.217 29.3892 333.657 25.8618 332.65 22.4941C331.612 19.141 330.189 15.9183 328.048 13.1603C325.971 10.3733 323.158 8.10884 319.85 6.49758C316.526 4.88631 312.771 3.95732 308.808 3.26056C312.771 2.75251 316.974 3.04282 320.889 4.43635L322.359 4.9589C322.822 5.17664 323.27 5.43791 323.733 5.67016L325.108 6.39596L326.37 7.28141C326.786 7.58624 327.201 7.87658 327.601 8.21044L328.687 9.25555C329.454 9.93779 330.062 10.7072 330.685 11.4911C333.066 14.67 334.504 18.328 335.095 22.0151C335.703 25.7021 335.559 29.4327 334.664 33.0036L334.648 33.0182Z" fill="black"/>
<path d="M342.24 29.752C342.512 27.3714 342.752 25.1214 342.832 22.8859C342.912 20.6505 342.816 18.4441 342.528 16.2812C342.224 14.1183 341.745 11.9845 340.946 9.92324C340.131 7.86199 339.044 5.90232 337.446 4.00073C339.875 4.94427 341.857 6.84591 343.199 8.96523C344.558 11.0991 345.373 13.5087 345.692 15.9328C346.028 18.357 345.868 20.8247 345.293 23.1763C344.733 25.5278 343.743 27.8068 342.224 29.7665L342.24 29.752Z" fill="black"/>
<path d="M381.855 178.54C387.257 176.813 392.227 174.418 396.813 171.543C401.384 168.64 405.586 165.302 409.31 161.557C413.081 157.855 416.405 153.761 419.33 149.436C422.254 145.095 424.731 140.509 427 135.718C426.026 140.842 424.124 145.85 421.519 150.539C418.93 155.242 415.574 159.611 411.675 163.516C407.728 167.392 403.205 170.818 398.156 173.445C393.138 176.087 387.577 177.989 381.871 178.54H381.855Z" fill="black"/>
<path d="M392.849 182.532C396.285 181.051 399.353 179.222 402.294 177.234C405.218 175.216 408.03 173.082 410.699 170.803C413.416 168.553 415.989 166.173 418.514 163.734C421.007 161.252 423.436 158.755 425.593 155.924C424.634 159.292 422.637 162.355 420.447 165.171C418.226 168.002 415.653 170.571 412.857 172.951C410.028 175.288 406.992 177.422 403.636 179.135C400.312 180.848 396.652 182.213 392.833 182.532H392.849Z" fill="black"/>
<path d="M13.1052 76.9287C10.3565 80.7609 8.56675 85.0721 7.84763 89.4994C7.06458 93.9123 7.19239 98.4412 8.00739 102.81C8.87034 107.18 10.3566 111.462 12.6738 115.323C14.943 119.17 18.0112 122.697 21.9424 124.962L24.9308 126.689L21.5269 127.589C19.4654 128.141 17.5478 129.186 16.0616 130.696C14.5754 132.191 13.4407 134.02 12.6897 135.994C11.1715 139.957 11.1556 144.399 12.2103 148.565C13.3129 152.745 15.5662 156.708 18.6824 160.061C20.2325 161.745 22.0063 163.284 23.924 164.677C25.8576 166.056 27.9351 167.247 30.0765 168.379C25.4581 166.739 21.1594 164.242 17.5318 161.019C13.9841 157.739 11.2195 153.66 9.7972 149.145C8.34297 144.645 8.24709 139.724 9.7972 135.123C10.5802 132.829 11.9226 130.652 13.7284 128.794C15.5183 126.936 17.9793 125.513 20.648 124.802L20.2325 127.429C15.6621 124.73 12.3542 120.796 9.97306 116.601C7.63991 112.362 6.1217 107.804 5.51444 103.144C4.87522 98.4993 5.09901 93.7526 6.28157 89.2236C7.54403 84.7237 9.73336 80.3835 13.0733 76.9287H13.1052Z" fill="black"/>
<path d="M1.51925 137.721C1.40739 141.858 1.72703 145.894 2.74978 149.726C3.78851 153.558 5.49843 157.187 7.84756 160.468C10.1488 163.777 13.1051 166.724 16.3332 169.424C19.5932 172.124 23.1728 174.534 26.8643 176.958C22.5655 175.608 18.4746 173.663 14.7512 171.166C11.0277 168.698 7.71972 165.606 5.14686 162.021C2.62194 158.421 0.880099 154.328 0.288821 150.118C-0.350399 145.908 0.0810744 141.626 1.48736 137.692L1.51925 137.721Z" fill="black"/>
<path d="M234.116 33.5117C237.823 37.7649 240.141 42.7729 241.339 47.8825C241.93 50.4373 242.25 53.0501 242.266 55.6485C242.266 58.2468 241.978 60.8451 241.243 63.3273C242.17 58.2468 241.435 53.0647 239.805 48.2599C238.143 43.4552 235.442 38.9552 231.719 35.4424L234.132 33.5262L234.116 33.5117Z" fill="black"/>
<path d="M216.122 30.3472C210.992 30.0714 205.766 30.2891 200.684 31.0149C195.603 31.7698 190.601 32.9746 186.062 34.9923C181.508 36.981 177.481 39.8406 174.46 43.426C171.392 46.9969 169.57 51.3517 168.676 55.8807L168.068 58.958L165.735 56.679C164.057 55.0387 162.139 53.6016 160.078 52.3532C157.985 51.1339 155.715 50.205 153.366 49.4356C151.001 48.7389 148.556 48.3178 146.063 48.1872C143.586 48.1727 141.077 48.3179 138.696 48.9711C133.902 50.1469 129.475 52.8033 126.071 56.1855C124.489 57.9564 123.227 60.0031 122.604 62.2676C121.949 64.5176 121.853 66.9128 122.092 69.2934C121.517 66.9708 121.357 64.5176 121.805 62.108C122.22 59.6983 123.291 57.3612 124.905 55.3435C125.704 54.3419 126.631 53.413 127.638 52.6001L129.108 51.3372L130.738 50.2194C131.792 49.4211 133.023 48.884 134.19 48.2308C134.781 47.9114 135.436 47.7082 136.059 47.4614C136.698 47.2291 137.322 46.9534 137.993 46.8082C140.614 45.9954 143.378 45.7195 146.127 45.6469C148.892 45.6905 151.64 46.0534 154.293 46.7356C156.93 47.4759 159.471 48.492 161.82 49.813C164.153 51.1484 166.326 52.7307 168.244 54.5597L165.304 55.358C166.182 50.4226 168.116 45.5018 171.52 41.4083C174.844 37.2713 179.478 34.1358 184.432 31.9584C189.418 29.781 194.756 28.431 200.141 27.7633C205.527 27.1101 210.96 26.9359 216.377 27.4295L216.106 30.3181L216.122 30.3472Z" fill="black"/>
<path d="M158.736 83.8239C156.498 82.2416 154.629 80.1658 153.462 77.6836C152.311 75.2159 151.96 72.3708 152.583 69.6563C153.158 66.9274 154.709 64.387 156.818 62.3693C158.959 60.3516 161.74 58.9436 164.648 58.1452C167.621 57.4195 170.609 57.2162 173.613 57.5355C176.602 57.8984 179.574 58.8855 181.987 60.5694C186.893 63.8935 189.386 69.2789 189.498 74.3885C188.06 69.4531 185.024 64.9531 180.581 62.4419C176.202 59.9016 170.465 59.6839 165.543 60.9323C160.589 62.1226 156.418 65.6645 154.98 70.1934C154.261 72.4434 154.213 74.8965 154.916 77.2336C155.571 79.5997 156.978 81.7916 158.72 83.8239H158.736Z" fill="black"/>
<path d="M237.214 243.295C240.794 225.601 248.465 188.687 251.613 180.224C255.8 168.989 231.302 161.005 231.302 161.005L182.992 152.049L140.484 155.924L149.242 165.882C149.242 165.882 163.384 229.955 163.512 240.596L237.198 243.295H237.214Z" fill="#BEB293"/>
<path d="M238.781 243.557L235.632 243.034C239.692 222.988 246.979 188.12 250.095 179.759C253.563 170.469 232.484 162.979 230.854 162.413L182.913 153.529L143.569 157.115L150.744 165.258L150.824 165.606C151.399 168.234 164.999 229.941 165.127 240.595L161.93 240.624C161.803 230.638 148.874 171.616 147.756 166.521L137.4 154.763L183.073 150.597L231.845 159.655C232.9 160.003 257.765 168.263 253.131 180.703C249.951 189.195 242.041 227.502 238.781 243.571V243.557Z" fill="black"/>
<path d="M100.199 125.746C95.8045 134.455 102.388 148.419 118.768 143.528C118.369 162.95 140.534 172.922 164.712 161.121C172.894 177.451 195.267 171.645 195.267 171.645C195.267 171.645 208.835 187.932 230.408 185.943C251.982 183.954 267.771 171.282 271.174 164.75C281.562 170.382 296.136 171.282 303.327 152.963L100.183 125.746H100.199Z" fill="#BEB293"/>
<path d="M100.2 125.746C98.1221 130.71 99.3366 136.589 103.14 140.247C105.026 142.076 107.599 143.194 110.299 143.44C113 143.716 115.765 143.252 118.385 142.439L120.047 141.916V143.542C120.015 148.013 121.358 152.44 124.154 155.968C126.887 159.524 130.978 162.122 135.58 163.414C140.167 164.735 145.153 164.851 149.979 164.14C154.821 163.443 159.503 161.818 163.914 159.727L165.528 158.958L166.295 160.453C167.461 162.732 169.012 164.837 171.057 166.463C173.071 168.118 175.516 169.322 178.152 170.077C180.789 170.832 183.618 171.166 186.446 171.151C189.259 171.151 192.199 170.847 194.836 170.237L195.859 170.005L196.546 170.759C201.005 175.637 206.981 179.716 213.501 182.14C216.777 183.33 220.229 184.143 223.729 184.404C227.228 184.724 230.744 184.39 234.292 183.838C241.355 182.721 248.147 180.311 254.347 177.045C257.448 175.405 260.388 173.503 263.073 171.355C264.415 170.28 265.694 169.148 266.844 167.943C268.011 166.753 269.081 165.476 269.833 164.169L270.584 162.834L271.926 163.589C274.707 165.156 277.759 166.361 280.923 166.913C284.087 167.435 287.395 167.348 290.415 166.289C293.452 165.258 296.057 163.269 298.182 160.932C300.323 158.566 301.921 155.808 303.312 152.963C302.369 155.968 301.026 158.885 299.093 161.556C297.159 164.198 294.474 166.521 291.166 167.929C287.874 169.366 284.055 169.714 280.492 169.221C276.896 168.727 273.508 167.522 270.392 165.926L272.501 165.345C270.711 168.727 268.059 171.253 265.246 173.605C262.418 175.927 259.349 177.988 256.105 179.759C249.633 183.359 242.378 185.783 234.883 187.003C231.16 187.583 227.261 187.917 223.393 187.554C219.526 187.249 215.755 186.335 212.191 185C208.643 183.65 205.303 181.879 202.267 179.788C199.215 177.669 196.45 175.361 193.973 172.545L195.683 173.067C192.567 173.793 189.547 174.113 186.414 174.156C183.314 174.185 180.166 173.837 177.114 172.995C174.077 172.153 171.153 170.759 168.74 168.8C166.295 166.869 164.441 164.387 163.099 161.789L165.48 162.514C160.83 164.779 155.78 166.521 150.49 167.305C145.217 168.118 139.655 167.943 134.462 166.361C129.3 164.808 124.522 161.789 121.534 157.565C118.481 153.384 117.235 148.347 117.458 143.499L119.12 144.616C117.65 145.008 116.148 145.328 114.598 145.487C113.048 145.618 111.466 145.589 109.932 145.328C106.831 144.849 103.907 143.353 101.941 141.176C99.9279 139.028 98.8253 136.313 98.5696 133.599C98.2819 130.884 98.7933 128.112 100.152 125.76L100.2 125.746Z" fill="black"/>
<path d="M194.244 170.396C198.527 169.671 202.618 167.45 205.974 164.619C207.668 163.182 209.186 161.585 210.48 159.814C211.759 158.043 212.797 156.098 213.341 154.008C213.069 156.156 212.254 158.232 211.183 160.177C210.097 162.122 208.722 163.951 207.14 165.635C203.976 168.959 199.965 171.834 195.027 173.227L194.26 170.411L194.244 170.396Z" fill="black"/>
<path d="M148.22 133.062C149.163 138.113 150.745 142.976 153.238 147.374C154.516 149.552 155.954 151.627 157.744 153.413C159.486 155.213 161.516 156.781 163.817 157.826C168.371 160.09 173.885 160.337 179.142 159.321C181.795 158.827 184.416 158.073 186.988 157.115C189.593 156.229 192.07 155.068 194.643 153.964C192.47 155.605 190.169 157.115 187.676 158.392C186.445 159.06 185.135 159.597 183.84 160.163C182.498 160.656 181.156 161.15 179.749 161.498C176.969 162.268 173.996 162.631 170.992 162.514C168.004 162.369 164.999 161.629 162.315 160.352C156.897 157.739 153.19 153.108 150.984 148.289C148.763 143.411 147.852 138.142 148.22 133.018V133.062Z" fill="black"/>
<path d="M142.355 249.668C143.586 246.736 145.679 243.978 148.62 242.105C151.528 240.204 155.092 239.115 158.735 239.013C160.557 238.97 162.427 239.129 164.249 239.783C166.071 240.45 167.605 241.51 168.899 242.686C170.193 243.876 171.344 245.168 172.303 246.576C172.798 247.273 173.23 247.999 173.629 248.753C173.997 249.552 174.396 250.234 174.572 251.381L172.239 250.887C174.716 247.287 178.104 244.021 182.387 242.033C186.621 240 191.543 239.187 196.306 239.623C198.671 239.841 201.052 240.32 203.289 241.176C205.51 242.018 207.588 243.179 209.442 244.558C211.295 245.952 212.925 247.578 214.236 249.421C215.53 251.265 216.633 253.297 216.857 255.75L214.3 255.053C216.09 252.963 218.087 251.018 220.324 249.276C222.578 247.563 225.055 246.083 227.691 244.921C232.965 242.526 238.83 241.452 244.599 241.278C247.507 241.191 250.336 241.321 253.26 241.626C256.169 242.004 259.125 242.86 261.57 244.515C264.015 246.155 265.805 248.536 266.62 251.105C267.467 253.66 267.579 256.36 267.019 258.886C266.955 256.316 266.444 253.79 265.373 251.526C264.287 249.276 262.609 247.316 260.419 246.01C256.041 243.252 250.192 243.412 244.743 243.629C239.277 243.992 233.828 245.023 229.018 247.302C226.621 248.42 224.351 249.784 222.258 251.337C220.196 252.934 218.327 254.749 216.601 256.65L214.523 258.929L214.044 255.953C213.788 254.298 212.829 252.542 211.663 251.003C210.496 249.436 209.058 247.999 207.444 246.779C204.216 244.297 200.269 242.729 196.034 242.352C191.831 241.916 187.516 242.584 183.745 244.326C179.958 246.039 176.793 248.841 174.428 252.107L172.83 254.313L172.111 251.613C171.999 251.221 171.648 250.437 171.28 249.828C170.897 249.174 170.513 248.521 170.05 247.897C169.155 246.649 168.212 245.4 167.093 244.326C165.991 243.252 164.776 242.279 163.418 241.684C162.059 241.075 160.413 240.813 158.783 240.755C155.507 240.668 152.136 241.365 149.243 242.933C146.351 244.486 143.97 246.881 142.403 249.697L142.355 249.668Z" fill="black"/>
<path d="M258.662 243.658C261.075 241.495 263.983 240.247 267.004 239.594C270.04 238.97 273.236 238.999 276.176 239.841C279.117 240.668 281.69 242.323 283.639 244.37C285.605 246.431 286.835 248.913 287.89 251.366C286.58 249 285.141 246.678 283.048 244.863C280.987 243.063 278.462 241.757 275.761 241.249C273.06 240.712 270.232 240.929 267.627 241.699C265.054 242.468 262.641 243.847 261.043 245.56L258.63 243.658H258.662Z" fill="black"/>
<path d="M160.701 162.892C162.683 169.961 164.329 177.103 165.847 184.274C167.381 191.445 168.66 198.645 169.938 205.844C171.089 213.059 172.207 220.288 173.102 227.546C173.981 234.804 174.764 242.076 174.94 249.378C174.508 245.749 174.045 242.134 173.502 238.52C172.99 234.905 172.447 231.291 171.872 227.691C170.737 220.476 169.618 213.262 168.356 206.062C167.205 198.848 165.895 191.662 164.632 184.462L162.683 173.677L160.701 162.892V162.892Z" fill="black"/>
<path d="M186.686 172.487L189.035 202.665L190.153 217.762C190.505 222.799 190.888 227.821 191.096 232.858C190.617 227.836 189.978 222.828 189.354 217.82L187.453 202.796L183.521 172.763L186.702 172.487H186.686Z" fill="black"/>
<path d="M234.196 185.885L221.987 228.983L231.096 185.203L234.196 185.885Z" fill="black"/>
<path d="M243.464 183.345C241.61 188.57 240.204 193.854 238.766 199.152C237.375 204.451 236.017 209.749 234.754 215.076C232.102 225.702 229.625 236.386 226.477 246.997C226.748 241.495 227.467 236.052 228.346 230.623C229.209 225.194 230.36 219.809 231.638 214.438C232.309 211.767 233.029 209.096 233.796 206.439C234.643 203.798 235.394 201.141 236.384 198.528C238.27 193.317 240.396 188.106 243.464 183.345V183.345Z" fill="black"/>
<path d="M184.304 242.584C181.811 210.33 174.236 171.108 174.156 170.716L175.722 170.469C175.802 170.861 183.377 210.156 185.886 242.483L184.288 242.584H184.304Z" fill="black"/>
</svg>
