<svg width="24" height="24" viewBox="0 0 24 24" fill="none" xmlns="http://www.w3.org/2000/svg">
<path d="M7.66759 12.04C7.66759 10.0077 9.38336 8.35971 11.5005 8.35971C13.6176 8.35971 15.3343 10.0077 15.3343 12.04C15.3343 14.0723 13.6176 15.7203 11.5005 15.7203C9.38336 15.7203 7.66759 14.0723 7.66759 12.04ZM5.59511 12.04C5.59511 15.1709 8.23893 17.7089 11.5005 17.7089C14.762 17.7089 17.4058 15.1709 17.4058 12.04C17.4058 8.90906 14.762 6.37109 11.5005 6.37109C8.23893 6.37109 5.59511 8.90906 5.59511 12.04ZM16.2595 6.14632C16.2594 6.40834 16.3403 6.66451 16.4918 6.88243C16.6434 7.10035 16.8588 7.27023 17.111 7.3706C17.3631 7.47097 17.6406 7.49731 17.9083 7.4463C18.176 7.39528 18.422 7.2692 18.615 7.084C18.8081 6.8988 18.9397 6.66279 18.993 6.40582C19.0464 6.14886 19.0192 5.88247 18.9148 5.64036C18.8105 5.39824 18.6337 5.19127 18.4068 5.04561C18.1799 4.89995 17.9131 4.82215 17.6401 4.82205C17.2743 4.82221 16.9229 4.96177 16.6641 5.21007C16.4054 5.45836 16.2599 5.7951 16.2595 6.14632ZM6.85427 21.0263C5.73303 20.9773 5.12359 20.798 4.71859 20.6465C4.18166 20.4459 3.79856 20.2069 3.39576 19.8207C2.99297 19.4346 2.74364 19.0672 2.53553 18.5517C2.37765 18.1631 2.19088 17.5779 2.13991 16.5016C2.08416 15.3379 2.07303 14.9883 2.07303 12.0401C2.07303 9.09188 2.08508 8.74328 2.13991 7.5786C2.19098 6.50225 2.37912 5.91819 2.53553 5.52843C2.74456 5.013 2.99352 4.64523 3.39576 4.25857C3.798 3.8719 4.18074 3.63255 4.71859 3.43277C5.12341 3.28122 5.73303 3.10193 6.85427 3.053C8.06651 2.99948 8.43067 2.98879 11.5005 2.98879C14.5703 2.98879 14.9348 3.00036 16.148 3.053C17.2693 3.10202 17.8777 3.28263 18.2837 3.43277C18.8206 3.63255 19.2037 3.87243 19.6065 4.25857C20.0093 4.6447 20.2577 5.013 20.4668 5.52843C20.6246 5.91704 20.8114 6.50225 20.8624 7.5786C20.9181 8.74328 20.9293 9.09188 20.9293 12.0401C20.9293 14.9883 20.9181 15.3369 20.8624 16.5016C20.8113 17.5779 20.6236 18.163 20.4668 18.5517C20.2577 19.0672 20.0088 19.4349 19.6065 19.8207C19.2043 20.2065 18.8206 20.4459 18.2837 20.6465C17.8789 20.7981 17.2693 20.9774 16.148 21.0263C14.9358 21.0798 14.5716 21.0905 11.5005 21.0905C8.42929 21.0905 8.06615 21.0798 6.85427 21.0263ZM6.75905 1.06686C5.53476 1.12038 4.69817 1.30674 3.96757 1.57964C3.21093 1.86147 2.5704 2.23957 1.93033 2.85304C1.29026 3.46651 0.897404 4.08237 0.60382 4.80871C0.319529 5.5105 0.125401 6.31315 0.0696468 7.48843C0.0129725 8.66556 0 9.04189 0 12.04C0 15.0381 0.0129725 15.4144 0.0696468 16.5916C0.125401 17.7669 0.319529 18.5695 0.60382 19.2713C0.897404 19.9972 1.29035 20.6138 1.93033 21.227C2.57031 21.8402 3.21093 22.2177 3.96757 22.5004C4.69955 22.7733 5.53476 22.9596 6.75905 23.0131C7.98592 23.0667 8.3773 23.08 11.5005 23.08C14.6236 23.08 15.0156 23.0675 16.2419 23.0131C17.4663 22.9596 18.3023 22.7733 19.0334 22.5004C19.7895 22.2177 20.4305 21.8404 21.0706 21.227C21.7107 20.6135 22.1027 19.9972 22.3971 19.2713C22.6814 18.5695 22.8764 17.7668 22.9313 16.5916C22.987 15.4136 23 15.0381 23 12.04C23 9.04189 22.987 8.66556 22.9313 7.48843C22.8755 6.31307 22.6814 5.51006 22.3971 4.80871C22.1027 4.08281 21.7096 3.46748 21.0706 2.85304C20.4315 2.2386 19.7895 1.86147 19.0343 1.57964C18.3023 1.30674 17.4662 1.1195 16.2428 1.06686C15.0166 1.01334 14.6245 1 11.5014 1C8.37822 1 7.98592 1.01245 6.75905 1.06686Z" fill="white"/>
</svg>
