<svg width="71" height="72" viewBox="0 0 71 72" fill="none" xmlns="http://www.w3.org/2000/svg">
<mask id="mask0_54_486" style="mask-type:alpha" maskUnits="userSpaceOnUse" x="0" y="0" width="74" height="75">
<circle cx="37" cy="37.8287" r="37" fill="black"/>
</mask>
<g mask="url(#mask0_54_486)">
<path d="M49.6162 102.609L49.4288 42.4609L22.8444 42.9617L22.3835 102.874L49.6162 102.609Z" fill="#FDDA7E"/>
<path d="M49.429 43.9666C49.8037 43.4376 51.3626 42.1796 52.0203 39.2601C52.7904 35.8505 52.9853 24.3497 49.236 19.4131C47.7876 17.5058 42.8841 16.4123 38.0705 16.138C37.306 16.0938 37.1617 16.6883 36.3804 16.6865C35.5896 16.6865 35.1606 16.0956 34.3736 16.138C29.0279 16.4264 23.5922 17.7057 22.0314 20.0643C20.4931 22.3892 20.0865 23.6561 20.1352 32.4817C20.1558 36.3017 20.1858 39.1026 20.6767 41.1215C21.1714 43.1545 22.1794 43.7631 22.8427 44.4691C23.506 45.1751 26.326 46.3517 27.6713 46.4402C31.3738 46.6826 33.9464 45.421 35.7976 45.3715C37.6489 45.3219 41.3008 46.8294 44.2331 46.5853C45.837 46.4526 48.6045 45.1273 49.4271 43.9666H49.429Z" fill="#FDDA7E"/>
<path d="M20.2738 37.7987C20.2232 39.9042 20.2119 43.834 25.0124 45.7219C29.6461 47.5443 33.6296 45.4353 35.8594 45.4353C38.0891 45.4353 41.1733 47.0843 45.035 46.3925C50.5719 45.4016 52.2826 39.476 52.232 37.9438C52.232 37.9438 49.9835 42.9493 46.9612 44.5736C44.3754 45.9625 39.1553 45.6741 36.266 45.2442C33.9501 44.8991 30.3356 47.4948 25.5708 44.7169C20.8059 41.9408 20.2756 37.7987 20.2756 37.7987H20.2738Z" fill="#D8B76C"/>
<path d="M20.2288 27.6268C20.2288 27.6268 6.1871 27.5825 6.00535 27.165C5.8236 26.7474 14.8999 24.173 17.4425 23.7094C19.9833 23.2458 20.6279 23.7554 20.6279 23.7554C20.6279 23.7554 20.3262 26.0096 20.2288 27.625V27.6268Z" fill="#5B5126"/>
<path d="M50.4313 22.2797C50.4313 22.2797 51.6211 24.7639 51.9996 27.1649C51.9996 27.1649 67.737 25.7548 67.9168 24.8276C68.0986 23.9022 50.4294 22.2797 50.4294 22.2797H50.4313Z" fill="#5B5126"/>
<path d="M35.9025 44.0747C32.8071 44.0747 29.663 43.7014 27.6282 42.7265C23.8657 40.927 21.5535 38.3685 20.3506 34.6741C19.3332 31.5529 20.2045 24.0827 20.2419 23.766C20.2588 23.6209 20.3993 23.5147 20.553 23.5324C20.7066 23.5483 20.819 23.6793 20.8003 23.8261C20.7909 23.9022 19.9047 31.5034 20.8865 34.5202C22.0576 38.1155 24.2161 40.5006 27.8811 42.2541C31.4918 43.981 39.0485 43.7191 42.8915 42.8787C47.5646 41.8577 50.3658 37.3211 51.194 35.0651C52.8091 30.67 50.8642 23.428 50.8454 23.3555C50.8061 23.2139 50.8979 23.0688 51.0478 23.0317C51.1977 22.9945 51.3513 23.0812 51.3907 23.2228C51.4731 23.5253 53.3974 30.6913 51.7261 35.2385C50.8623 37.59 47.9299 42.3213 43.0189 43.3953C41.162 43.8005 38.5482 44.0747 35.9006 44.0747H35.9025Z" fill="#5F2B1F"/>
<path d="M40.9579 43.7563C40.585 43.4059 39.5039 42.9459 38.8237 43.1635C38.2822 43.3369 37.9655 43.7545 37.8494 43.9916C37.499 44.7065 37.4297 45.1754 37.6433 45.8336C37.8157 46.3627 38.6794 46.0973 38.9867 45.8035C39.4889 45.3222 39.1535 44.2924 39.1535 44.2924C40.0004 46.4971 41.2108 45.8955 41.5069 45.4036C41.7224 45.0444 41.3308 44.1084 40.9598 43.7581L40.9579 43.7563ZM38.4808 45.2302C38.2185 45.4903 37.7557 45.2922 38.256 44.4587C38.6101 43.8695 38.7431 44.9701 38.4808 45.2302ZM40.9035 44.7277C40.9616 45.1594 39.933 45.1081 39.8449 44.1102C39.7906 43.5068 40.8455 44.296 40.9035 44.7277Z" fill="#5F2B1F"/>
<path d="M38.7524 48.0434C38.7411 48.0434 38.728 48.0434 38.7168 48.0417C38.5631 48.0222 38.4545 47.8895 38.4732 47.7444C38.6194 46.6616 38.6718 45.4602 38.6737 45.4478C38.6793 45.3009 38.803 45.1841 38.966 45.193C39.1215 45.1983 39.2414 45.3222 39.2358 45.469C39.2358 45.4814 39.1815 46.704 39.0316 47.8099C39.0128 47.9444 38.8929 48.0417 38.7524 48.0417V48.0434Z" fill="#5F2B1F"/>
<path d="M40.5924 47.5162C40.48 47.5162 40.3732 47.4507 40.3301 47.3463C39.9685 46.4563 39.723 45.3381 39.7118 45.2921C39.6799 45.1488 39.7792 45.009 39.931 44.9789C40.0809 44.9488 40.2308 45.0426 40.2626 45.1859C40.2645 45.1966 40.5081 46.3077 40.8547 47.157C40.911 47.2932 40.8379 47.4472 40.6936 47.5003C40.6599 47.5126 40.6261 47.518 40.5924 47.518V47.5162Z" fill="#5F2B1F"/>
<path d="M38.8029 44.4534C38.7823 44.4534 38.7598 44.4463 38.743 44.4321C38.3476 44.1208 38.0403 43.8077 38.0272 43.7953C37.9916 43.7599 37.9935 43.7033 38.0328 43.6697C38.0703 43.6361 38.1303 43.6379 38.1659 43.675C38.1696 43.6785 38.4788 43.9917 38.8648 44.2977C38.9041 44.3295 38.9097 44.3844 38.876 44.4215C38.8573 44.4428 38.831 44.4534 38.8048 44.4534H38.8029Z" fill="#321413"/>
<path d="M39.1535 44.3771C39.1122 44.3771 39.0748 44.3506 39.0635 44.3117L38.7562 43.259C38.7431 43.2113 38.7712 43.1635 38.8218 43.1511C38.8724 43.1387 38.923 43.1653 38.938 43.213L39.2453 44.2657C39.2584 44.3134 39.2303 44.3612 39.1797 44.3736C39.1722 44.3753 39.1628 44.3771 39.1553 44.3771H39.1535Z" fill="#321413"/>
<path d="M39.3651 44.2906C39.3183 44.2906 39.277 44.257 39.2714 44.211C39.2264 43.8023 39.6312 43.4219 39.7829 43.2803C39.7998 43.2644 39.8129 43.252 39.8185 43.2467C39.8466 43.206 39.901 43.1954 39.9459 43.2202C39.989 43.2449 40.0022 43.3033 39.9741 43.3458C39.9647 43.3617 39.9497 43.3741 39.916 43.4077C39.7942 43.5227 39.4232 43.8695 39.4569 44.1951C39.4625 44.2428 39.4251 44.2871 39.3726 44.2924C39.3688 44.2924 39.367 44.2924 39.3632 44.2924L39.3651 44.2906Z" fill="#321413"/>
<path d="M34.9881 12.8313C33.7777 12.8313 24.5814 16.8124 20.1632 18.9409C15.7468 21.0695 6.46817 25.8308 6.00349 27.1649C5.76178 27.8585 18.1059 22.5062 36.2585 22.738C60.096 23.0423 66.7683 24.7816 67.9188 24.8276C69.0074 24.8718 58.9661 20.045 49.026 16.9061C42.4305 14.8236 37.1054 12.8331 34.9881 12.8331V12.8313Z" fill="#91712B"/>
<path d="M13.4478 23.8687C13.4122 23.8687 13.3784 23.851 13.3653 23.8245C13.3485 23.7891 13.3728 23.7519 13.4178 23.7395C13.5302 23.7077 24.825 20.6342 36.4402 20.7262C48.0498 20.8182 60.229 22.0568 60.3508 22.0692C60.3976 22.0745 60.4313 22.1081 60.4257 22.1435C60.4201 22.1807 60.3751 22.2055 60.3283 22.2001C60.2065 22.1878 48.0367 20.9492 36.4383 20.8589C24.84 20.7651 13.5883 23.8333 13.4759 23.8634C13.4665 23.8669 13.4553 23.8669 13.4459 23.8669L13.4478 23.8687Z" fill="#5B5126"/>
<path d="M27.9092 18.6384C27.8642 18.6384 27.8267 18.6118 27.823 18.5782C27.8192 18.541 27.853 18.5092 27.9017 18.5057L33.7702 18.0899C33.817 18.0863 33.8601 18.1129 33.8657 18.15C33.8695 18.1872 33.8357 18.219 33.787 18.2226L27.9185 18.6384C27.9185 18.6384 27.9129 18.6384 27.911 18.6384H27.9092Z" fill="#5B5126"/>
<path d="M17.8642 21.2767C17.8267 21.2767 17.7911 21.2572 17.7799 21.2271C17.7668 21.1917 17.7949 21.1546 17.8417 21.1457L22.5616 20.1742C22.6084 20.1636 22.6553 20.1848 22.6684 20.222C22.6815 20.2574 22.6534 20.2945 22.6066 20.3034L17.8867 21.2749C17.8867 21.2749 17.8717 21.2767 17.8642 21.2767Z" fill="#5B5126"/>
<path d="M38.9809 15.0271L36.1366 14.9811C36.0879 14.9811 36.0504 14.9492 36.0523 14.9138C36.0523 14.8784 36.0916 14.8484 36.1384 14.8484L38.9828 14.8944C39.0315 14.8944 39.0689 14.9262 39.0671 14.9616C39.0671 14.997 39.0277 15.0271 38.9809 15.0271Z" fill="#5B5126"/>
<path d="M40.4949 16.2302C40.4481 16.2302 40.4087 16.2019 40.4087 16.1648C40.4087 16.1276 40.4462 16.0975 40.4949 16.0975L43.7027 16.0515C43.7496 16.0515 43.7889 16.0799 43.7889 16.117C43.7889 16.1542 43.7514 16.1842 43.7027 16.1842L40.4949 16.2302Z" fill="#5B5126"/>
<path d="M42.5504 18.4526H38.6174C38.5687 18.4526 38.5312 18.4225 38.5312 18.3854C38.5312 18.3482 38.5706 18.3181 38.6174 18.3181H42.5504C42.5991 18.3181 42.6366 18.3482 42.6366 18.3854C42.6366 18.4225 42.5972 18.4526 42.5504 18.4526Z" fill="#5B5126"/>
<path d="M50.7799 17.8049H50.7762L47.4484 17.713C47.3997 17.713 47.3622 17.6812 47.3641 17.644C47.366 17.6069 47.3997 17.5786 47.454 17.5804L50.7818 17.6723C50.8305 17.6723 50.868 17.7042 50.8661 17.7413C50.8661 17.7766 50.8249 17.8049 50.7799 17.8049Z" fill="#5B5126"/>
<path d="M46.7869 19.332C46.7401 19.332 46.7007 19.3019 46.7007 19.2665C46.7007 19.2293 46.7382 19.1993 46.7869 19.1993L52.1121 19.1533C52.1589 19.1533 52.1983 19.1833 52.1983 19.2187C52.1983 19.2559 52.1608 19.286 52.1121 19.286L46.7869 19.332Z" fill="#5B5126"/>
<path d="M23.6128 17.4812C23.5697 17.4812 23.5323 17.4564 23.5266 17.4228C23.521 17.3857 23.5547 17.3538 23.6035 17.3485L26.7494 17.0707C26.7963 17.0672 26.8413 17.0919 26.845 17.1291C26.8506 17.1663 26.8169 17.1981 26.7682 17.2034L23.6222 17.4812C23.6222 17.4812 23.6147 17.4812 23.6128 17.4812Z" fill="#5B5126"/>
<path d="M13.9311 24.9338C13.9199 24.9338 13.9087 24.9338 13.8974 24.9285C13.8524 24.9143 13.8318 24.8754 13.8506 24.8418L14.5776 23.4988C14.5963 23.4652 14.6469 23.4493 14.6919 23.4634C14.7368 23.4776 14.7574 23.5165 14.7387 23.5501L14.0117 24.8931C13.9986 24.9178 13.9649 24.9338 13.9311 24.9338V24.9338Z" fill="#5B5126"/>
<path d="M25.2466 22.8035C25.2466 22.8035 25.2297 22.8035 25.2204 22.7999C25.1735 22.7893 25.1492 22.7522 25.1623 22.7168L25.6457 21.5136C25.6607 21.4782 25.7075 21.4588 25.7544 21.4694C25.8012 21.48 25.8256 21.5172 25.8125 21.5525L25.329 22.7557C25.3178 22.784 25.2822 22.8035 25.2466 22.8035Z" fill="#5B5126"/>
<path d="M30.45 21.0446C30.45 21.0446 30.4425 21.0446 30.4388 21.0446C30.3919 21.0393 30.3582 21.0057 30.3638 20.9703L30.6655 19.2578C30.6711 19.2206 30.7161 19.1958 30.7629 19.2012C30.8098 19.2065 30.8435 19.2401 30.8379 19.2755L30.5362 20.988C30.5306 21.0216 30.4931 21.0464 30.45 21.0464V21.0446Z" fill="#5B5126"/>
<path d="M36.8637 20.8605C36.8168 20.8605 36.7775 20.8322 36.7775 20.7968L36.7175 19.454C36.7175 19.4169 36.7531 19.3868 36.8018 19.385C36.8468 19.3797 36.8899 19.4115 36.8918 19.4487L36.9518 20.7915C36.9518 20.8287 36.9161 20.8587 36.8674 20.8605H36.8637V20.8605Z" fill="#5B5126"/>
<path d="M46.0599 22.4336C46.0318 22.4336 46.0037 22.423 45.9868 22.4036L44.8982 21.1066C44.8719 21.0765 44.8832 21.0341 44.9244 21.0146C44.9638 20.9952 45.0181 21.004 45.0443 21.0341L46.133 22.331C46.1592 22.3611 46.1479 22.4036 46.1067 22.423C46.0917 22.4301 46.0749 22.4336 46.0599 22.4336Z" fill="#5B5126"/>
<path d="M57.4371 23.313C57.4052 23.313 57.3734 23.2988 57.3584 23.2741L56.5115 21.8852C56.4909 21.8516 56.5115 21.8127 56.5527 21.7968C56.5958 21.7809 56.6482 21.7968 56.6689 21.8286L57.5158 23.2175C57.5364 23.2511 57.5158 23.29 57.4746 23.3059C57.4633 23.3095 57.4502 23.313 57.4371 23.313Z" fill="#5B5126"/>
<path d="M52.8991 21.5543C52.8691 21.5543 52.8391 21.5419 52.8241 21.5207L52.0371 20.4555C52.0128 20.4237 52.0278 20.383 52.0709 20.3653C52.1121 20.3476 52.1664 20.3582 52.1889 20.3901L52.9759 21.4552C53.0002 21.4871 52.9852 21.5278 52.9421 21.5455C52.929 21.5508 52.914 21.5543 52.8991 21.5543Z" fill="#5B5126"/>
<path d="M40.9184 19.4259C40.8847 19.4259 40.8528 19.4117 40.8397 19.3869L40.2945 18.4615C40.2739 18.4278 40.2945 18.3889 40.3376 18.373C40.3807 18.3588 40.4331 18.373 40.4519 18.4066L40.9971 19.3321C41.0177 19.3657 40.9971 19.4046 40.954 19.4206C40.9428 19.4241 40.9297 19.4259 40.9184 19.4259V19.4259Z" fill="#5B5126"/>
<path d="M43.1557 17.1114C43.122 17.1114 43.0901 17.0955 43.0751 17.0707L42.5917 16.1913C42.5729 16.1577 42.5936 16.1188 42.6385 16.1046C42.6835 16.0905 42.7341 16.1046 42.7528 16.14L43.2362 17.0194C43.255 17.053 43.2344 17.0919 43.1894 17.1061C43.1782 17.1096 43.1669 17.1114 43.1557 17.1114V17.1114Z" fill="#5B5126"/>
<path d="M21.1319 21.4163C21.1207 21.4163 21.1076 21.4145 21.0963 21.4109C21.0532 21.3968 21.0326 21.3561 21.0513 21.3225L21.5348 20.4891C21.5535 20.4555 21.606 20.4396 21.6491 20.4555C21.6922 20.4696 21.7128 20.5103 21.694 20.544L21.2106 21.3773C21.1956 21.4021 21.1638 21.4163 21.1319 21.4163V21.4163Z" fill="#5B5126"/>
<path d="M33.6372 37.4875C34.1188 37.2787 35.1043 36.9956 36.0993 37.1301C37.0942 37.2645 38.1828 37.4875 38.7037 37.8449C39.2246 38.2023 39.2715 38.6057 38.7037 38.6057C38.136 38.6057 34.1581 38.3368 33.8752 38.2041C33.5922 38.0714 33.0226 37.7564 33.6391 37.4893L33.6372 37.4875Z" fill="#231F20"/>
<path d="M38.7037 37.8449C38.1828 37.4875 37.0941 37.2645 36.0992 37.1301C35.1042 36.9956 34.1187 37.2787 33.6371 37.4875L33.2792 41.3482C33.2792 41.3482 37.0192 42.0082 38.9135 41.3836L38.7037 37.8467V37.8449Z" fill="white"/>
<path d="M36.0073 37.1291L35.9606 41.6444L36.148 41.6462L36.1947 37.1308L36.0073 37.1291Z" fill="#231F20"/>
<path d="M38.7656 38.6658V38.4889C38.9229 38.4889 39.0297 38.457 39.0485 38.4022C39.0785 38.3172 38.9492 38.1226 38.6494 37.9156C38.2297 37.6272 37.3434 37.3866 36.088 37.2167C35.183 37.0946 34.2237 37.3282 33.6784 37.567C33.4648 37.6608 33.418 37.7422 33.4217 37.7741C33.4254 37.8041 33.4854 37.8431 33.5866 37.8554L33.5604 38.0306C33.3767 38.0058 33.2549 37.9191 33.2362 37.7988C33.2231 37.7174 33.2531 37.5564 33.5997 37.406C34.1693 37.1583 35.1699 36.9141 36.1142 37.0415C37.4202 37.2185 38.3102 37.4644 38.7599 37.7723C39.1216 38.02 39.2921 38.2695 39.2284 38.457C39.1946 38.5526 39.0897 38.6658 38.7674 38.6658H38.7656Z" fill="#231F20"/>
<path d="M36.2302 30.1197C36.2302 30.1197 33.7569 29.5712 31.6208 29.4863C29.4848 29.3996 28.0495 29.573 26.8278 29.3713C25.6062 29.1696 23.9592 27.0074 23.9592 27.0074C23.9592 27.0074 25.8816 27.9009 26.5842 27.9292C27.2869 27.9575 29.1794 27.6992 30.2174 27.5541C31.2554 27.409 33.9424 27.5824 34.4295 27.7842C34.9167 27.9859 35.8329 28.6494 36.2302 30.1197Z" fill="#231F20"/>
<path d="M30.2174 27.5543C31.2573 27.4233 33.9423 27.5826 34.4295 27.7843C34.9167 27.9859 35.8329 28.6494 36.2302 30.1196C36.2302 30.1196 33.7568 29.5712 31.6208 29.4862C30.4347 29.4385 29.466 29.4473 28.6285 29.4739C28.2312 29.4862 27.2325 29.396 26.6142 29.0546C26.2601 28.8582 26.3088 28.6795 26.766 28.5928C27.2232 28.5061 28.3137 28.1894 28.7502 28.016C29.2805 27.8073 29.7583 27.6126 30.2155 27.5543H30.2174Z" fill="white"/>
<path d="M32.5971 29.5429C32.833 29.5429 33.0243 29.3623 33.0243 29.1395C33.0243 28.9167 32.833 28.7361 32.5971 28.7361C32.3612 28.7361 32.1699 28.9167 32.1699 29.1395C32.1699 29.3623 32.3612 29.5429 32.5971 29.5429Z" fill="#231F20"/>
<path d="M36.2304 30.2083C36.2304 30.2083 36.2154 30.2083 36.2098 30.2065C36.1854 30.2012 33.7215 29.6598 31.6173 29.5748C30.7254 29.5395 29.9534 29.5483 29.2733 29.5554C28.3008 29.5678 27.5326 29.5766 26.8131 29.4581C25.5689 29.2528 23.9519 27.149 23.8844 27.0588C23.8601 27.0252 23.862 26.9809 23.8882 26.9509C23.9144 26.9208 23.9631 26.9102 24.0006 26.9279C24.0193 26.9367 25.9137 27.8143 26.5882 27.8409C27.2984 27.8709 29.2601 27.5985 30.2026 27.4675C31.2856 27.3171 33.9613 27.4958 34.4672 27.7046C34.6939 27.7984 35.85 28.354 36.3222 30.0986C36.3297 30.1286 36.3222 30.1605 36.2978 30.1817C36.281 30.1994 36.2566 30.2083 36.2304 30.2083V30.2083ZM30.2345 29.3714C30.6636 29.3714 31.1245 29.3767 31.6248 29.3979C33.4442 29.4722 35.5259 29.8827 36.0992 30.0013C35.6289 28.4478 34.5984 27.9523 34.3923 27.8656C33.9163 27.6692 31.2669 27.4976 30.2307 27.6409C29.2826 27.7719 27.3096 28.0461 26.5807 28.016C26.0467 27.9948 24.8625 27.5029 24.2686 27.2428C24.7613 27.832 25.9399 29.1325 26.8449 29.2829C27.5457 29.3997 28.3064 29.3908 29.2714 29.3784C29.5749 29.3749 29.8953 29.3714 30.2364 29.3714H30.2345Z" fill="#231F20"/>
<path d="M36.4213 30.1197C36.4213 30.1197 38.8946 29.5712 41.0307 29.4863C43.1667 29.3996 44.602 29.573 45.8236 29.3713C47.0453 29.1696 48.6923 27.0074 48.6923 27.0074C48.6923 27.0074 46.7699 27.9009 46.0672 27.9292C45.3646 27.9575 43.4721 27.6992 42.4341 27.5541C41.396 27.409 38.7091 27.5824 38.2219 27.7842C37.7329 27.9859 36.8185 28.6494 36.4213 30.1197Z" fill="#231F20"/>
<path d="M42.4341 27.5543C41.3942 27.4233 38.7091 27.5826 38.2219 27.7843C37.7329 27.9859 36.8185 28.6494 36.4213 30.1196C36.4213 30.1196 38.8946 29.5712 41.0307 29.4862C42.2167 29.4385 43.1854 29.4473 44.023 29.4739C44.4202 29.4862 45.4189 29.396 46.0373 29.0546C46.3914 28.8582 46.3427 28.6795 45.8855 28.5928C45.4283 28.5061 44.3378 28.1894 43.9012 28.016C43.3709 27.8073 42.8932 27.6126 42.436 27.5543H42.4341Z" fill="white"/>
<path d="M40.0526 29.5429C40.2886 29.5429 40.4798 29.3623 40.4798 29.1395C40.4798 28.9167 40.2886 28.7361 40.0526 28.7361C39.8167 28.7361 39.6254 28.9167 39.6254 29.1395C39.6254 29.3623 39.8167 29.5429 40.0526 29.5429Z" fill="#231F20"/>
<path d="M36.4213 30.2083C36.397 30.2083 36.3726 30.1994 36.3539 30.1817C36.3314 30.1605 36.322 30.1286 36.3295 30.0985C36.7998 28.3539 37.9559 27.7983 38.1845 27.7045C38.6885 27.4957 41.3642 27.317 42.4472 27.4674C43.3897 27.5983 45.3515 27.8708 46.0616 27.8407C46.7362 27.8124 48.6305 26.9365 48.6492 26.9277C48.6886 26.91 48.7336 26.9188 48.7617 26.9507C48.7898 26.9825 48.7916 27.0268 48.7654 27.0586C48.698 27.1489 47.0809 29.2527 45.8368 29.458C45.1191 29.5766 44.3509 29.5677 43.3766 29.5553C42.6964 29.5465 41.9244 29.5376 41.0325 29.5748C38.9302 29.6597 36.4644 30.2012 36.4401 30.2065C36.4326 30.2065 36.4251 30.2083 36.4194 30.2083H36.4213ZM41.3586 27.5877C40.1594 27.5877 38.6117 27.7204 38.2594 27.8655C38.0533 27.9504 37.0228 28.4476 36.5525 30.0012C37.1258 29.8827 39.2075 29.4704 41.0269 29.3978C41.9244 29.3607 42.6983 29.3713 43.3822 29.3784C44.3453 29.3908 45.106 29.3996 45.8087 29.2828C46.7137 29.1342 47.8904 27.8336 48.385 27.2426C47.7911 27.5028 46.6088 27.9947 46.0729 28.0159C45.344 28.046 43.371 27.7717 42.4229 27.6408C42.1549 27.6036 41.7783 27.5877 41.3604 27.5877H41.3586Z" fill="#231F20"/>
<path d="M34.205 35.1625C34.6022 35.1625 35.0519 35.2244 35.183 35.5924C35.3685 36.1179 35.1999 36.762 34.7427 36.8239C34.2855 36.8859 32.706 36.762 31.9883 36.9478C31.2707 37.1336 30.3676 37.9351 30.2945 38.7933C30.2139 39.731 30.0509 44.7331 29.9685 46.1008C29.9066 47.1465 29.8373 49.6856 29.8373 49.6856C29.8373 49.6856 29.2059 46.0247 29.0878 45.1613C28.908 43.8537 28.61 39.4302 28.7618 38.4995C28.9735 37.2079 30.0809 35.9764 31.2707 35.6066C32.6666 35.1731 33.6166 35.1607 34.2031 35.1607L34.205 35.1625Z" fill="#231F20"/>
<path d="M38.3517 35.1943C37.9544 35.1943 37.5048 35.2563 37.3736 35.6243C37.1881 36.1498 37.3567 36.7938 37.8139 36.8558C38.2711 36.9177 39.8507 36.7938 40.5683 36.9796C41.2859 37.1654 42.1891 37.9669 42.2621 38.8251C42.3427 39.7628 42.5057 44.7648 42.5882 46.1325C42.65 47.1782 42.7193 49.7173 42.7193 49.7173C42.7193 49.7173 43.3508 46.0565 43.4688 45.193C43.6487 43.8855 43.9466 39.462 43.7948 38.5314C43.5831 37.2397 42.4757 36.0082 41.2859 35.6384C39.89 35.2049 38.94 35.1926 38.3536 35.1926L38.3517 35.1943Z" fill="#231F20"/>
</g>
</svg>
