<svg width="66" height="67" viewBox="0 0 66 67" fill="none" xmlns="http://www.w3.org/2000/svg">
<g id="fishing">
<g id="Group 10865">
<g id="b">
<path id="Vector" d="M48.8989 109.499L48.6843 39.7183L18.23 40.2992L17.702 109.807L48.8989 109.499Z" fill="#FADEB9"/>
<path id="Vector_2" d="M48.6843 41.4652C49.1136 40.8514 50.8995 39.3919 51.6529 36.0049C52.5351 32.0493 52.7583 18.7065 48.4632 12.9794C46.804 10.7665 41.1867 9.4979 35.6723 9.17973C34.7966 9.12841 34.6313 9.81813 33.7362 9.81608C32.8304 9.81608 32.3389 9.13046 31.4373 9.17973C25.3134 9.51433 19.0865 10.9985 17.2985 13.7348C15.5362 16.4321 15.0704 17.9018 15.1262 28.1409C15.1498 32.5727 15.1842 35.8222 15.7466 38.1644C16.3132 40.523 17.468 41.2292 18.2279 42.0482C18.9877 42.8672 22.2182 44.2323 23.7594 44.3349C28.0008 44.6162 30.9479 43.1526 33.0687 43.0951C35.1894 43.0376 39.3729 44.7865 42.7321 44.5033C44.5695 44.3493 47.7399 42.8118 48.6822 41.4652H48.6843Z" fill="#FADEB9"/>
<path id="Vector_3" d="M15.285 34.3093C15.227 36.7521 15.2142 41.3112 20.7134 43.5015C26.0217 45.6158 30.5851 43.1689 33.1394 43.1689C35.6937 43.1689 39.2268 45.0821 43.6507 44.2795C49.9936 43.1299 51.9533 36.2553 51.8954 34.4776C51.8954 34.4776 49.3196 40.2848 45.8573 42.1693C42.8952 43.7807 36.9151 43.4461 33.6052 42.9473C30.9522 42.547 26.8116 45.5583 21.3531 42.3355C15.8946 39.1148 15.2871 34.3093 15.2871 34.3093H15.285Z" fill="#DDBC8E"/>
</g>
<g id="c">
<g id="Group">
<g id="Group_2">
<path id="Vector_4" opacity="0.2" d="M26.7709 30.2592C26.069 30.2592 25.3864 30.1176 24.7532 29.8302C23.3902 29.2144 22.42 28.0094 22.0207 26.437C21.6236 24.8728 21.8404 23.128 22.6303 21.5289C23.4202 19.9278 24.6909 18.6612 26.2063 17.9612C27.7304 17.2571 29.3187 17.2079 30.6839 17.8237C33.4894 19.0902 34.4424 22.8139 32.8089 26.125C32.019 27.7261 30.7483 28.9927 29.2329 29.6947C28.4172 30.0724 27.5822 30.2613 26.773 30.2613L26.7709 30.2592ZM28.6641 17.5999C27.887 17.5999 27.0843 17.7826 26.2986 18.146C24.8262 18.8275 23.5919 20.0591 22.8235 21.6172C22.0551 23.1752 21.8426 24.8708 22.2289 26.3898C22.6131 27.9006 23.5426 29.0583 24.8455 29.6454C26.1484 30.2346 27.6724 30.1853 29.1363 29.5079C30.6088 28.8264 31.843 27.5947 32.6114 26.0367C34.1956 22.8283 33.2876 19.2257 30.5895 18.0084C29.9863 17.7354 29.3338 17.5999 28.6641 17.5999Z" fill="#231F20"/>
<path id="Vector_5" d="M32.7101 26.0799C34.3219 22.8146 33.3933 19.1585 30.6361 17.9138C27.8788 16.669 24.337 18.307 22.7252 21.5723C21.1134 24.8376 22.042 28.4937 24.7992 29.7384C27.5565 30.9832 31.0983 29.3452 32.7101 26.0799Z" fill="white"/>
<path id="Vector_6" d="M30.3254 23.9121C30.7249 23.9121 31.0488 23.6024 31.0488 23.2203C31.0488 22.8383 30.7249 22.5286 30.3254 22.5286C29.9259 22.5286 29.6021 22.8383 29.6021 23.2203C29.6021 23.6024 29.9259 23.9121 30.3254 23.9121Z" fill="#231F20"/>
<path id="Vector_7" opacity="0.2" d="M38.0055 29.6905C36.4901 28.9885 35.2194 27.722 34.4295 26.1208C32.796 22.8098 33.7491 19.0861 36.5545 17.8195C37.9175 17.2037 39.5081 17.253 41.0321 17.9571C42.5475 18.6591 43.8182 19.9257 44.6081 21.5247C45.398 23.1259 45.6148 24.8687 45.2177 26.4328C44.8185 28.0052 43.8483 29.2102 42.4852 29.826C41.852 30.1113 41.1695 30.255 40.4676 30.255C39.6583 30.255 38.8233 30.0662 38.0077 29.6885L38.0055 29.6905ZM36.6468 18.0063C33.9487 19.2257 33.0407 22.8262 34.6248 26.0346C35.3933 27.5926 36.6275 28.8263 38.1 29.5058C39.5639 30.1832 41.0879 30.2325 42.3908 29.6433C43.6937 29.0542 44.6231 27.8985 45.0074 26.3877C45.3937 24.8687 45.1812 23.1731 44.4128 21.6151C43.6443 20.057 42.4101 18.8233 40.9376 18.1439C40.152 17.7805 39.3492 17.5979 38.5722 17.5979C37.9025 17.5979 37.25 17.7333 36.6468 18.0063Z" fill="#231F20"/>
<path id="Vector_8" d="M42.4377 29.7384C45.195 28.4937 46.1235 24.8376 44.5117 21.5723C42.8999 18.307 39.3581 16.669 36.6009 17.9137C33.8436 19.1585 32.915 22.8146 34.5268 26.0799C36.1386 29.3452 39.6805 30.9831 42.4377 29.7384Z" fill="white"/>
<path id="Vector_9" d="M36.9109 23.9121C37.3104 23.9121 37.6342 23.6024 37.6342 23.2203C37.6342 22.8383 37.3104 22.5286 36.9109 22.5286C36.5114 22.5286 36.1875 22.8383 36.1875 23.2203C36.1875 23.6024 36.5114 23.9121 36.9109 23.9121Z" fill="#231F20"/>
</g>
<path id="Vector_10" d="M14.9868 24.2261C14.9074 24.2261 14.843 24.1501 14.8408 24.0557C14.8387 23.9592 14.9031 23.8791 14.9825 23.8771L20.7007 23.6862C20.778 23.6821 20.8488 23.7601 20.851 23.8566C20.8531 23.953 20.7887 24.0331 20.7093 24.0352L14.9911 24.2261H14.9868Z" fill="#FBB040"/>
<path id="Vector_11" d="M46.4779 22.9042C46.3834 22.9042 46.3019 22.8386 46.2911 22.7503C46.2783 22.6538 46.3534 22.5676 46.4564 22.5573L51.9965 21.9785C52.0995 21.9661 52.194 22.0359 52.2047 22.1324C52.2176 22.2289 52.1424 22.3151 52.0394 22.3254L46.4993 22.9042C46.4993 22.9042 46.4843 22.9042 46.4779 22.9042Z" fill="#FBB040"/>
<path id="Vector_12" d="M34.7365 20.8042C34.7365 20.8042 34.333 20.5927 33.4379 20.6297C32.5471 20.6687 32.4999 20.8514 32.4956 20.8575L32.3969 20.7877C32.4162 20.761 32.4827 20.5537 33.4315 20.5127C34.3781 20.4716 34.7902 20.6913 34.8202 20.72L34.7344 20.8021L34.7365 20.8042Z" fill="#FBB040"/>
<path id="Vector_13" d="M35.6896 20.2007H31.4525V20.3177H35.6896V20.2007Z" fill="#FBB040"/>
<path id="Vector_14" opacity="0.6" d="M27.1316 19.6157C25.438 19.6486 22.7013 19.8374 21.5894 21.2353C20.2349 22.935 20.8703 25.8478 21.3361 26.9809C21.8019 28.1141 23.3838 30.5014 25.2105 30.5014C28.7608 30.5014 30.6346 28.9393 31.7229 27.7692C33.0344 26.3569 33.8608 23.0561 33.4809 21.8819C33.1546 20.8802 31.2378 19.5357 27.1337 19.6157H27.1316Z" fill="#8E5729"/>
<path id="Vector_15" opacity="0.6" d="M40.1005 19.6157C41.7941 19.6486 44.5308 19.8374 45.6427 21.2353C46.9972 22.935 46.3618 25.8478 45.896 26.9809C45.4302 28.1141 44.0672 30.5014 42.2384 30.5014C38.9436 30.5014 36.9667 29.2369 35.4362 27.5906C34.1247 26.1783 33.3713 23.0561 33.7512 21.8819C34.0775 20.8802 35.9943 19.5357 40.0984 19.6157H40.1005Z" fill="#8E5729"/>
<path id="Vector_16" opacity="0.6" d="M27.1316 19.6157C25.438 19.6486 22.7013 19.8374 21.5894 21.2353C20.2349 22.935 20.8703 25.8478 21.3361 26.9809C21.8019 28.1141 23.3838 30.5014 25.2105 30.5014C28.7608 30.5014 30.6346 28.9393 31.7229 27.7692C33.0344 26.3569 33.8608 23.0561 33.4809 21.8819C33.1546 20.8802 31.2378 19.5357 27.1337 19.6157H27.1316Z" fill="url(#paint0_linear_54_303)"/>
<path id="Vector_17" opacity="0.6" d="M40.1005 19.6157C41.7941 19.6486 44.5308 19.8374 45.6427 21.2353C46.9972 22.935 46.3618 25.8478 45.896 26.9809C45.4302 28.1141 44.0672 30.5014 42.2384 30.5014C38.9436 30.5014 36.9667 29.2369 35.4362 27.5906C34.1247 26.1783 33.3713 23.0561 33.7512 21.8819C34.0775 20.8802 35.9943 19.5357 40.0984 19.6157H40.1005Z" fill="url(#paint1_linear_54_303)"/>
<path id="Vector_18" d="M25.2105 30.5588C23.4225 30.5588 21.789 28.2433 21.2781 27.0014C20.8939 26.0654 20.1147 22.9883 21.54 21.1983C22.7785 19.6423 26.054 19.5787 27.1294 19.5561C30.9931 19.4802 33.1589 20.6995 33.5367 21.8634C33.9166 23.0376 33.1117 26.3589 31.768 27.8061C30.9824 28.6518 29.0999 30.5588 25.2105 30.5588V30.5588ZM27.1337 19.6731C26.0712 19.6936 22.8408 19.7573 21.6387 21.2681C20.2478 23.015 21.0141 26.0366 21.394 26.9583C21.892 28.1694 23.4804 30.4418 25.2126 30.4418C29.0548 30.4418 30.9072 28.5594 31.6778 27.7281C33.0001 26.3076 33.7921 23.0396 33.4229 21.8983C33.161 21.0916 31.5104 19.5869 27.1359 19.6731H27.1337Z" fill="#FBB040"/>
<path id="Vector_19" d="M42.2406 30.5588C38.6045 30.5588 36.6211 28.9494 35.3933 27.6275C34.0496 26.1803 33.3156 23.0376 33.6955 21.8634C34.0733 20.6995 36.2391 19.4802 40.1027 19.5561C41.1781 19.5766 44.4536 19.6423 45.6922 21.1983C47.1174 22.9862 46.3383 26.0633 45.954 27.0014C45.4432 28.2433 44.0308 30.5588 42.2406 30.5588ZM39.7421 19.6711C35.6338 19.6711 34.0668 21.1141 33.8114 21.9003C33.44 23.0417 34.1634 26.131 35.4835 27.5515C36.6984 28.8591 38.6517 30.4438 42.2406 30.4438C43.9728 30.4438 45.3423 28.1715 45.8403 26.9603C46.218 26.0387 46.9865 23.017 45.5956 21.2701C44.3914 19.7593 41.1609 19.6957 40.1006 19.6752C39.9804 19.6731 39.8602 19.6711 39.7443 19.6711H39.7421Z" fill="#FBB040"/>
</g>
<g id="Group_3">
<path id="Vector_20" d="M28.1767 33.7551H38.0935C38.0935 33.7551 34.7879 38.1398 33.6138 38.1398C32.4397 38.1398 28.1746 33.7551 28.1746 33.7551H28.1767Z" fill="#231F20"/>
<path id="Vector_21" d="M30.1837 35.6991C29.089 34.6912 28.1768 33.7551 28.1768 33.7551H38.0935C38.0935 33.7551 37.3637 34.724 36.4686 35.7504L30.1837 35.6991Z" fill="white"/>
<path id="Vector_22" d="M38.1901 33.7078C38.1708 33.6729 38.1343 33.6523 38.0935 33.6523H28.1768C28.1339 33.6523 28.0952 33.677 28.0781 33.7139C28.0609 33.7509 28.0695 33.794 28.0974 33.8248C28.2734 34.0054 32.4097 38.2423 33.6138 38.2423C34.818 38.2423 37.8381 34.2682 38.1794 33.8145C38.203 33.7837 38.2052 33.7427 38.188 33.7078H38.1901ZM37.8832 33.8576C37.6471 34.1635 37.1019 34.8573 36.4686 35.5901C36.4515 35.6086 36.4365 35.6271 36.4193 35.6476L35.3224 35.6394V33.8597H37.8832V33.8576ZM35.1078 33.8576V35.6353L33.1888 35.6189V33.8556H35.1078V33.8576ZM32.9742 33.8576V35.6189L30.95 35.6024V33.8576H32.9742ZM30.7354 33.8576V35.6004L30.2267 35.5963C30.1816 35.5532 30.1344 35.5121 30.0893 35.469C30.0485 35.43 30.0077 35.3931 29.967 35.3541C29.9498 35.3376 29.9326 35.3212 29.9154 35.3069C29.2543 34.6869 28.6941 34.1286 28.4258 33.8576H30.7354ZM33.616 38.037C33.0708 38.037 31.7163 36.947 30.4542 35.8036L36.239 35.8508C35.2409 36.9757 34.1483 38.039 33.616 38.039V38.037Z" fill="#231F20"/>
</g>
<g id="Group_4">
<path id="Vector_23" d="M8.02142 21.6438L16.5601 14.6892L18.7302 4.28587C18.7302 4.28587 23.489 0.664837 32.7274 0.837267C41.9659 1.0097 47.4244 3.36624 47.4244 3.36624L50.5046 14.7466L58.9725 23.4256C58.9725 23.4256 56.167 22.4547 53.5826 21.4139C51.3245 20.5046 48.2636 22.0462 45.5333 21.299C42.803 20.5518 37.205 19.0574 33.2168 18.77C29.2287 18.4826 25.0988 19.2298 22.1581 19.977C19.2196 20.7242 13.4091 22.0462 8.02142 21.6438Z" fill="#A49571"/>
<path id="Vector_24" d="M14.8773 21.3975C12.6857 21.6746 10.316 21.8142 8.02139 21.6438L13.2223 17.409C13.2223 17.409 16.3497 17.3905 17.4702 16.241C18.5907 15.0915 19.4299 12.2176 20.4087 12.9648C21.3875 13.712 21.4584 15.6662 22.7892 15.3214C24.12 14.9765 25.028 17.3331 23.6285 17.448C22.2289 17.563 18.8697 18.1377 19.0092 19.1148C19.1488 20.0919 14.8773 21.3975 14.8773 21.3975V21.3975Z" fill="#BFAD86"/>
<path id="Vector_25" d="M39.4546 19.7759C37.3296 19.3099 35.0951 18.9055 33.2169 18.7721C31.3387 18.6386 29.5121 18.7269 27.7455 18.9322C27.7455 18.9322 26.0069 17.2777 27.4772 15.7833C28.9476 14.2889 30.9073 17.1627 31.4654 16.3006C32.0235 15.4384 29.9264 13.1393 30.9052 12.6795C31.884 12.2197 34.8933 12.7945 34.7538 13.8291C34.6143 14.8637 34.5434 16.5305 36.0825 16.7029C37.6215 16.8753 41.4723 15.151 42.0304 15.8408C42.5884 16.5305 42.6679 17.8504 42.8696 18.6571C43.3419 20.5313 39.4503 19.7759 39.4503 19.7759H39.4546Z" fill="#BFAD86"/>
<path id="Vector_26" d="M53.8037 18.1296L58.9703 23.4256C58.9703 23.4256 55.9609 23.1383 53.5805 21.414C53.5805 21.414 50.1504 19.5747 49.4507 20.2069C48.7509 20.8392 47.2806 21.0116 47.141 19.977C47.0015 18.9425 47.184 15.4939 50.0109 17.4481C52.6704 19.2873 53.8016 18.1296 53.8016 18.1296H53.8037Z" fill="#BFAD86"/>
<path id="Vector_27" d="M48.9806 9.12424L47.4223 3.3663C47.4223 3.3663 44.9903 2.3153 40.6244 1.56605C40.6244 1.56605 37.4841 1.12471 37.0655 2.33172C36.647 3.53873 41.9638 3.3663 42.1741 4.28593C42.3845 5.20556 40.4248 6.64247 41.4035 7.27472C42.3823 7.90696 45.6021 7.90696 45.4626 9.40135C45.323 10.8957 40.2831 10.6084 39.5146 11.4705C38.7441 12.3327 37.4841 13.7121 39.0939 14.2869C40.7038 14.8616 44.6233 12.5626 45.9519 13.0224C47.2806 13.4822 48.9785 9.12424 48.9785 9.12424H48.9806Z" fill="#BFAD86"/>
<path id="Vector_28" d="M24.2382 1.85327C20.5892 2.87143 18.7303 4.28577 18.7303 4.28577L17.2793 11.2425C17.2793 11.2425 18.6595 9.6311 19.6404 10.1484C20.6214 10.6657 22.7206 11.8152 23.7703 11.7577C24.8199 11.7003 27.7584 11.9876 28.0396 10.4933C28.3187 8.99886 30.2097 8.36662 31.7487 8.36662C33.2878 8.36662 36.9969 6.46988 34.8976 4.57315C32.7984 2.67642 30.6283 4.86054 28.1083 4.17082C25.5883 3.4811 24.2382 1.85327 24.2382 1.85327V1.85327Z" fill="#BFAD86"/>
<path id="Vector_29" d="M50.5025 14.7467L49.9766 12.7986C49.9766 12.7986 40.7746 9.97612 33.498 9.74622C26.2193 9.51631 16.9444 12.8541 16.9444 12.8541L16.5623 14.6892C16.5623 14.6892 25.8695 11.8154 33.3585 12.1028C40.8476 12.3901 50.5046 14.7467 50.5046 14.7467H50.5025Z" fill="#7C7058"/>
</g>
</g>
</g>
<g id="f">
<path id="Vector_30" d="M15.4203 34.5637C13.4691 34.2927 13.8255 36.4009 14.3556 38.1868C14.4522 38.509 14.4286 39.3158 14.5123 39.5621C14.6304 39.907 14.9717 40.1492 15.0017 40.2416C15.2207 40.9333 15.3065 41.1078 15.6757 41.8427C15.811 42.1136 15.9569 43.1257 16.0964 43.3761C16.2531 43.6573 16.6588 43.7887 16.8048 44.0248C17.5153 45.1722 18.039 48.2719 18.1764 49.5323C18.1764 49.5323 45.1061 50.2897 48.6907 49.4563C48.6907 49.4563 48.4396 46.2068 49.7683 44.3429C49.8799 44.1849 50.3543 43.5731 50.4702 43.3494C50.5517 43.1913 50.8115 42.2963 50.8909 42.1178C51.2837 41.2269 51.2214 41.3233 51.3803 40.7424C51.4533 40.4735 51.8053 39.6483 51.8869 39.3712C51.9684 39.092 52.0156 38.4372 52.0994 38.158C52.8013 35.8241 53.3465 33.9212 51.9491 33.6933C50.4294 33.4449 48.8346 36.1443 41.5666 37.066C37.9991 37.5176 27.2538 37.5463 22.2354 36.4009C19.8184 35.8487 17.8158 34.8962 15.4246 34.5637H15.4203Z" fill="#FADEB9"/>
<path id="Vector_31" d="M51.947 33.6933C50.4273 33.4449 48.8324 36.1443 41.5644 37.066C37.997 37.5176 27.2517 37.5463 22.2332 36.4009C19.8163 35.8487 17.8136 34.8962 15.4225 34.5637C15.4225 34.5637 15.7058 34.5575 16.369 34.6684C17.9446 34.9311 21.1321 35.7994 24.1286 36.3865C25.8071 36.715 33.9466 36.9757 37.6171 36.8812C41.2403 36.7889 46.6409 36.015 50.2963 33.9417C51.1184 33.4757 51.947 33.6933 51.947 33.6933V33.6933Z" fill="#DDBC8E"/>
<path id="Vector_32" d="M14.9973 40.293L15.2871 41.0812C15.2871 41.0812 20.1403 42.9102 30.306 42.6557C30.306 42.6557 18.3888 41.4507 14.9973 40.293V40.293Z" fill="#DDBC8E"/>
<path id="Vector_33" d="M16.7834 43.9839C16.7834 43.9839 17.0495 44.454 17.1204 44.6757C17.1891 44.8892 17.3264 45.2833 17.3264 45.2833C17.3264 45.2833 27.5437 48.2988 42.0539 46.088C42.0539 46.088 26.8611 46.8926 16.7834 43.9839V43.9839Z" fill="#DDBC8E"/>
</g>
</g>
<defs>
<linearGradient id="paint0_linear_54_303" x1="30.2182" y1="29.1199" x2="24.7661" y2="19.2427" gradientUnits="userSpaceOnUse">
<stop offset="0.19" stop-color="white" stop-opacity="0"/>
<stop offset="0.27" stop-color="white" stop-opacity="0.11"/>
<stop offset="0.43" stop-color="white" stop-opacity="0.4"/>
<stop offset="0.67" stop-color="white" stop-opacity="0.86"/>
<stop offset="0.74" stop-color="white"/>
</linearGradient>
<linearGradient id="paint1_linear_54_303" x1="43.8397" y1="29.9369" x2="37.8219" y2="19.0381" gradientUnits="userSpaceOnUse">
<stop offset="0.19" stop-color="white" stop-opacity="0"/>
<stop offset="0.27" stop-color="white" stop-opacity="0.11"/>
<stop offset="0.43" stop-color="white" stop-opacity="0.4"/>
<stop offset="0.67" stop-color="white" stop-opacity="0.86"/>
<stop offset="0.74" stop-color="white"/>
</linearGradient>
</defs>
</svg>
