<svg width="222" height="49" viewBox="0 0 222 49" fill="none" xmlns="http://www.w3.org/2000/svg">
<path d="M36.9642 3.24594C36.9642 3.40773 36.5581 4.74251 35.7459 7.25027C34.6132 10.6277 33.972 12.5692 33.8224 13.0748C33.0743 15.4814 32.5293 17.1296 32.1874 18.0195C31.3752 20.2644 30.5203 22.125 29.6226 23.6013C29.4303 23.9047 28.8532 24.0563 27.8915 24.0563C26.374 24.0563 24.91 22.7317 23.4993 20.0823C22.6872 18.242 21.8643 16.4016 21.0308 14.5612C18.979 16.6038 16.9379 18.6464 14.9075 20.6891C11.5947 23.8844 9.26509 25.4821 7.91861 25.4821C7.5339 25.4821 6.96752 25.3203 6.21947 24.9967C5.32182 24.6125 4.83024 24.208 4.74475 23.7833C4.63789 23.1968 4.21043 20.6992 3.46239 16.2904C2.88532 12.9939 2.351 10.3648 1.85943 8.40303C1.75257 8.07945 1.39992 7.35139 0.801478 6.21885C0.267159 5.26833 0 4.50993 0 3.94366C0 3.62008 0.192355 3.1347 0.577064 2.48754C1.06864 1.63814 1.62433 1.21343 2.24414 1.21343C2.67159 1.21343 3.28072 1.4359 4.07151 1.88082C4.88368 2.30553 5.35388 2.71 5.48211 3.09426C6.05918 4.93463 6.77516 7.48285 7.63007 10.7389C8.61322 14.4196 9.31852 16.978 9.74598 18.4139C11.7336 16.3915 13.7106 14.3792 15.6769 12.377C18.8401 9.38389 21.2338 7.88732 22.8582 7.88732C24.2046 7.88732 25.455 8.70639 26.6091 10.3445C27.0793 11.0119 27.7953 12.3467 28.757 14.3489C29.6974 13.7421 30.7447 10.1322 31.8988 3.51896C31.963 3.17515 32.2729 2.74034 32.8286 2.21452C33.4056 1.6887 33.9293 1.42579 34.3995 1.42579C35.1261 1.42579 35.7353 1.59769 36.2268 1.9415C36.7184 2.2853 36.9642 2.72011 36.9642 3.24594Z" fill="white"/>
<path d="M86.4081 13.8635C86.1944 14.9354 85.97 15.623 85.7349 15.9263C85.4998 16.2297 85.1044 16.3814 84.5487 16.3814C84.4205 16.3814 84.1533 16.3713 83.7472 16.351C83.3411 16.3308 82.9992 16.3207 82.7213 16.3207C82.7641 16.3207 82.3794 16.3611 81.5672 16.442C80.9047 16.5027 80.4451 16.5027 80.1887 16.442C80.0604 17.3926 79.9322 18.3431 79.804 19.2936C79.5047 21.2553 79.1093 22.8227 78.6178 23.9957C77.9338 25.654 77.1003 26.4832 76.1172 26.4832C74.6638 26.4832 73.9371 24.8552 73.9371 21.5991C73.9371 20.7902 73.9799 19.8801 74.0654 18.8689C74.1722 17.8375 74.2257 17.3521 74.2257 17.4128C74.1829 17.3723 74.1616 17.2914 74.1616 17.1701C74.1829 17.0285 74.1188 16.9577 73.9692 16.9577C73.5204 16.9577 72.2701 17.0892 70.2183 17.3521C67.6535 17.6959 65.6872 18.0599 64.3194 18.4442C64.2125 18.4644 63.8064 18.9296 63.1011 19.8397C62.2676 20.9115 61.776 21.5283 61.6264 21.6901C60.7929 22.7418 59.9594 23.7934 59.1258 24.8451C58.1854 25.9372 57.1275 26.4832 55.952 26.4832C54.2208 26.4832 53.3552 25.7147 53.3552 24.1777C53.3552 22.8834 56.7214 19.3138 63.4538 13.4691C67.4505 10.1322 71.4365 6.79523 75.4119 3.45829C75.8179 3.1347 76.4271 2.86168 77.2392 2.63922C77.9873 2.4572 78.6819 2.3662 79.3231 2.3662C80.3917 2.3662 81.0649 2.74034 81.3428 3.48862C81.471 3.81221 81.5352 4.55038 81.5352 5.70314L80.894 13.2264H85.3502C85.799 13.2062 86.1517 13.4186 86.4081 13.8635ZM74.4501 13.0444C74.3646 12.2759 74.2791 11.5074 74.1936 10.7389C74.0867 9.78837 73.8303 9.13109 73.4242 8.76706C72.6334 9.31311 71.693 10.1928 70.603 11.4063C69.7908 12.3568 68.9787 13.2972 68.1665 14.2275L74.4501 13.0444Z" fill="white"/>
<path d="M136.528 1.78982C136.528 2.63922 135.727 4.83351 134.124 8.3727C132.392 12.2152 130.64 15.5016 128.866 18.2319C126.665 21.6092 124.901 23.2979 123.576 23.2979C122.401 23.2979 121.161 22.2564 119.857 20.1733C118.917 18.6768 117.955 16.6645 116.972 14.1365C116.502 12.8624 116.032 11.5883 115.561 10.3142C114.258 12.9231 112.826 16.8971 111.265 22.2362C111.159 22.6609 110.731 23.1058 109.983 23.571C109.256 24.0361 108.701 24.2687 108.316 24.2687C107.354 24.2687 106.617 23.8541 106.104 23.0249C105.719 22.4182 105.527 21.7508 105.527 21.0228C105.527 19.9509 105.719 18.97 106.104 18.0802C107.087 15.8353 108.733 12.7107 111.041 8.70639C112.43 6.27952 113.734 4.45937 114.952 3.24594C115.123 3.08415 115.54 2.9628 116.203 2.88191C117.164 2.76056 117.731 2.67967 117.902 2.63922C120.231 6.21885 121.717 11.1231 122.358 17.3521C122.636 17.5948 123.074 17.9791 123.672 18.5049C124.912 16.4623 126.451 13.3579 128.289 9.19177C129.464 6.56266 130.234 4.91441 130.597 4.24702C132.221 1.41567 133.771 0 135.246 0C135.887 0 136.293 0.252799 136.464 0.758396C136.507 0.87974 136.528 1.22355 136.528 1.78982Z" fill="white"/>
<path d="M177.351 22.2059C177.351 22.489 176.496 22.9744 174.787 23.662C172.906 24.4305 170.822 25.0675 168.535 25.5731C165.735 26.2203 163.139 26.5439 160.745 26.5439C155.872 26.5439 153.435 24.1979 153.435 19.506C153.435 17.5038 154.493 15.1174 156.609 12.3467C158.618 9.73781 160.991 7.47273 163.726 5.55146C166.59 3.52907 169.016 2.51788 171.004 2.51788C172.222 2.51788 173.397 2.81112 174.53 3.39762C175.855 4.08523 176.518 4.96497 176.518 6.03684C176.518 6.92669 176.037 7.99855 175.075 9.25244C174.071 10.5872 173.098 11.2546 172.158 11.2546C171.688 11.2546 171.346 10.8198 171.132 9.95016C170.811 8.55471 170.619 7.7862 170.555 7.64464C170.192 6.83568 169.561 6.49187 168.663 6.61322C167.338 6.77501 165.051 8.41315 161.803 11.5276C158.49 14.7028 156.834 16.9577 156.834 18.2925C156.834 19.6475 157.603 20.6688 159.142 21.3564C160.275 21.8823 161.546 22.1452 162.957 22.1452C163.619 22.1452 164.357 21.9935 165.169 21.6901C166.173 21.2857 166.676 20.8003 166.676 20.234C166.676 20.2138 166.686 20.0722 166.708 19.8093C166.729 19.6071 166.729 19.4352 166.708 19.2936C166.686 19.1116 166.644 19.0105 166.58 18.9902C166.537 18.9498 165.639 18.7172 163.887 18.2925C162.561 17.9689 161.899 17.5645 161.899 17.0791C161.899 15.7645 164.025 15.1073 168.279 15.1073C168.642 15.1073 169.005 15.1073 169.369 15.1073C169.732 15.1275 169.892 15.1376 169.85 15.1376C172.372 15.1376 174.092 15.5623 175.011 16.4117C176.016 17.3016 176.796 19.2329 177.351 22.2059Z" fill="white"/>
<path d="M222 20.416C222 22.1553 220.75 23.6721 218.249 24.9664C216.39 25.9372 213.964 26.7259 210.972 27.3326C208.77 27.7775 207.157 28 206.131 28C205.725 28 204.912 27.8685 203.694 27.6056C202.284 27.3023 201.151 26.9787 200.296 26.6349V25.3304C200.275 24.1979 200.841 23.2069 201.995 22.3575L210.811 23.1766C213.141 23.0957 215.321 22.4688 217.351 21.2958V20.6284C216.048 19.0711 213.665 18.0701 210.202 17.6251C207.467 17.3016 204.742 16.978 202.027 16.6544C199.42 16.0072 198.116 14.5612 198.116 12.3164C198.116 10.8805 199.206 9.27266 201.386 7.49296C203.224 6.01661 205.457 4.67172 208.086 3.45829C210.544 2.34597 212.34 1.78982 213.472 1.78982C215.054 1.78982 215.952 1.81004 216.165 1.85049C217.042 2.05273 217.437 2.60888 217.351 3.51896C217.245 4.67172 216.122 5.59191 213.985 6.27952C211.955 6.86602 209.935 7.45251 207.926 8.039C205.725 8.90863 204.506 10.1221 204.271 11.6793C206.473 11.9827 208.663 12.286 210.843 12.5894C214.135 13.0748 216.657 13.7927 218.409 14.7432C220.803 16.078 222 17.9689 222 20.416Z" fill="white"/>
<path d="M96.6263 12.6509C95.7066 12.6194 93.7433 13.3466 93.1355 14.5951C92.5277 15.8441 92.8858 16.8084 93.4003 16.9823C93.9148 17.1557 95.302 16.6975 95.302 16.6975C95.302 16.6975 95.645 17.709 96.8761 18.1992C96.8761 18.1992 96.5176 19.7956 97.5777 19.8744C98.6374 19.9538 99.3234 18.7047 98.9804 17.9775C98.6374 17.2502 97.9047 17.1557 97.9047 17.1557C97.9047 17.1557 97.5461 16.2866 97.9357 16.0653C98.3254 15.8441 99.2296 16.1126 99.4167 14.9745C99.6037 13.8363 97.5461 12.683 96.6263 12.6509ZM97.4995 14.8641C97.2658 15.2751 96.1745 15.5284 96.1745 15.5284C95.2082 14.6587 95.6289 13.7733 96.3771 13.8054C97.1248 13.8369 97.7331 14.4532 97.4995 14.8641Z" fill="white"/>
<path d="M97.5045 17.3378C97.6554 17.1391 97.6399 16.8368 97.4057 16.718C97.4234 16.6865 97.4384 16.6539 97.4495 16.6207C97.4989 16.4783 97.3191 16.4135 97.2253 16.4884C97.0948 16.5931 96.9844 16.7563 96.8123 16.794C96.5131 16.8599 96.4343 16.5593 96.547 16.3313C96.6252 16.1732 96.7429 16.0369 96.8728 15.9199C96.9894 15.8146 97.1503 15.7493 97.2275 15.6086C97.2669 15.5371 97.2153 15.4684 97.1431 15.4594C96.8817 15.4279 96.5919 15.7499 96.4465 15.9368C96.3483 16.0628 96.2567 16.2137 96.2089 16.3736C96.149 16.3533 96.0779 16.3623 96.0274 16.4124C95.5978 16.8374 96.0152 17.8393 96.6263 17.7706C96.9139 17.7385 97.3224 17.5759 97.5033 17.3378H97.5045Z" fill="#A7B5BF"/>
<path d="M98.594 17.7476C98.5002 17.7521 98.4048 17.7678 98.3098 17.7909C98.3104 17.7577 98.2954 17.7234 98.266 17.7093C97.9979 17.5815 97.6704 17.7543 97.4556 17.9243C97.2075 18.1208 96.9866 18.4163 96.9577 18.7416C96.9488 18.839 97.0304 18.8959 97.1126 18.8975C97.1625 18.9842 97.2985 19.0281 97.3684 18.9398C97.5344 18.7298 97.6854 18.5227 97.9096 18.3718C98.1372 18.2187 98.3764 18.154 98.6407 18.1005C98.8355 18.0611 98.7922 17.7386 98.5935 17.7481L98.594 17.7476Z" fill="#A7B5BF"/>
<path d="M99.7475 14.3752C99.5699 13.9046 99.2257 13.559 98.8433 13.2522C98.4636 12.9477 98.0695 12.6505 97.6155 12.4692C96.6474 12.0831 95.5812 12.3887 94.6847 12.8267C93.8444 13.237 93.0051 13.8956 92.6049 14.7709C92.4006 15.2184 92.2746 15.667 92.3484 16.1629C92.4167 16.6216 92.6743 17.059 93.0723 17.3005C93.5335 17.5802 94.0947 17.5177 94.5898 17.3787C94.6103 17.3731 94.6314 17.3669 94.652 17.3607C94.9212 17.2813 95.2115 17.3782 95.3802 17.6056C95.5317 17.8093 95.7127 17.99 95.9358 18.1442C96.0208 18.2028 96.109 18.2501 96.1995 18.2861C96.3638 18.3514 96.4681 18.5163 96.4637 18.6953C96.4498 19.2908 96.7074 19.9663 97.2946 20.1836C98.0706 20.4706 98.7556 19.9061 99.1047 19.2396C99.4033 18.67 99.405 17.8099 98.8794 17.3331C98.7023 17.1727 98.538 17.077 98.3964 16.965C98.1983 16.8091 98.2571 16.4894 98.4964 16.4134C98.8583 16.2985 99.2768 16.1049 99.5094 15.837C99.8618 15.4311 99.9362 14.8761 99.7469 14.3752H99.7475ZM96.4754 15.0309C96.2822 15.0602 96.0824 14.9983 95.9481 14.8542C95.9231 14.8272 95.9003 14.7979 95.882 14.7652C95.7899 14.6043 95.8542 14.3949 95.973 14.2682C96.1412 14.0887 96.4165 14.0538 96.6469 14.092C96.8362 14.1236 97.1437 14.2305 97.2008 14.4472C97.2513 14.638 97.0704 14.8159 96.9194 14.9003C96.7879 14.9741 96.6324 15.0067 96.4754 15.0304V15.0309ZM98.1123 19.3117C97.6915 19.5025 97.2602 19.2486 97.2208 18.7859C97.2175 18.7499 97.2164 18.7139 97.2169 18.679C97.2197 18.4319 97.3557 18.2062 97.5638 18.0778C97.6155 18.0463 97.6671 18.012 97.7182 17.9759C97.9441 17.8155 98.2405 17.7857 98.4803 17.9225C98.5075 17.9382 98.5335 17.9551 98.5585 17.9742C99.0337 18.3367 98.5269 19.1237 98.1123 19.3117ZM98.795 15.3146C98.4364 15.6417 97.9246 15.5972 97.5355 15.8488C97.1614 16.0908 97.1892 16.5164 97.3829 16.8873C97.4539 17.0235 97.4162 17.1918 97.2991 17.2898C97.2569 17.3252 97.2169 17.3568 97.1886 17.3765C97.0249 17.4896 96.8306 17.6224 96.6225 17.5943C96.3555 17.5588 96.1934 17.3483 96.0752 17.1068C95.978 16.9087 96.0147 16.6706 96.1618 16.5074C96.2828 16.3728 96.3782 16.2259 96.4376 16.07C96.5137 15.8696 96.6841 15.7182 96.8917 15.6743C97.1031 15.6298 97.303 15.5437 97.4678 15.4013C97.8059 15.1086 97.9063 14.6977 97.7182 14.2935C97.3962 13.6034 96.3627 13.3456 95.7449 13.7656C95.4463 13.9688 95.2553 14.3341 95.2614 14.7005C95.2642 14.8705 95.3142 15.0411 95.4046 15.184C95.4807 15.3039 95.7121 15.4542 95.7177 15.6045C95.7299 15.9163 95.1044 16.1522 94.8923 16.2546C94.5632 16.4134 94.0841 16.607 93.7111 16.5395C93.4203 16.4865 93.286 16.1809 93.231 15.9158C93.1561 15.555 93.2149 15.1745 93.3853 14.8514C93.4824 14.6673 93.5713 14.4866 93.7117 14.3329C93.8677 14.1624 94.0408 14.0076 94.2273 13.8731C94.5926 13.6102 94.9978 13.3952 95.4163 13.2353C95.8348 13.0755 96.275 12.9618 96.7251 12.9758C97.1814 12.9899 97.5944 13.1717 97.9563 13.447C98.4492 13.8213 99.5038 14.6667 98.7939 15.3146H98.795Z" fill="black"/>
<path d="M45.2759 12.6509C44.3561 12.6194 42.3929 13.3466 41.7851 14.5951C41.1773 15.8441 41.5353 16.8084 42.0498 16.9823C42.5644 17.1557 43.9515 16.6975 43.9515 16.6975C43.9515 16.6975 44.2945 17.709 45.5257 18.1992C45.5257 18.1992 45.1671 19.7956 46.2273 19.8744C47.2869 19.9538 47.973 18.7047 47.6299 17.9775C47.2869 17.2502 46.5542 17.1557 46.5542 17.1557C46.5542 17.1557 46.1956 16.2866 46.5853 16.0653C46.9749 15.8441 47.8791 16.1126 48.0662 14.9745C48.2533 13.8363 46.1956 12.683 45.2759 12.6509ZM46.149 14.8641C45.9153 15.2751 44.8241 15.5284 44.8241 15.5284C43.8577 14.6587 44.2784 13.7733 45.0267 13.8054C45.7743 13.8369 46.3827 14.4532 46.149 14.8641Z" fill="white"/>
<path d="M46.154 17.3378C46.305 17.1391 46.2894 16.8368 46.0552 16.718C46.073 16.6865 46.0879 16.6539 46.099 16.6207C46.1484 16.4783 45.9686 16.4135 45.8748 16.4884C45.7444 16.5931 45.6339 16.7563 45.4618 16.794C45.1626 16.8599 45.0838 16.5593 45.1965 16.3313C45.2748 16.1732 45.3924 16.0369 45.5223 15.9199C45.6389 15.8146 45.7999 15.7493 45.877 15.6086C45.9164 15.5371 45.8648 15.4684 45.7926 15.4594C45.5312 15.4279 45.2415 15.7499 45.096 15.9368C44.9978 16.0628 44.9062 16.2137 44.8585 16.3736C44.7985 16.3533 44.7275 16.3623 44.677 16.4124C44.2473 16.8374 44.6648 17.8393 45.2759 17.7706C45.5634 17.7385 45.9719 17.5759 46.1529 17.3378H46.154Z" fill="#A7B5BF"/>
<path d="M47.2436 17.7476C47.1498 17.7521 47.0543 17.7678 46.9594 17.7909C46.9599 17.7577 46.9449 17.7234 46.9155 17.7093C46.6474 17.5815 46.3199 17.7543 46.1051 17.9243C45.857 18.1208 45.6361 18.4163 45.6072 18.7416C45.5984 18.839 45.6799 18.8959 45.7621 18.8975C45.8121 18.9842 45.948 19.0281 46.018 18.9398C46.1839 18.7298 46.3349 18.5227 46.5592 18.3718C46.7867 18.2187 47.026 18.154 47.2902 18.1005C47.485 18.0611 47.4417 17.7386 47.243 17.7481L47.2436 17.7476Z" fill="#A7B5BF"/>
<path d="M48.397 14.3752C48.2193 13.9046 47.8752 13.559 47.4927 13.2522C47.1131 12.9477 46.719 12.6505 46.2649 12.4692C45.2969 12.0831 44.2306 12.3887 43.3342 12.8267C42.4938 13.237 41.6546 13.8956 41.2544 14.7709C41.0501 15.2184 40.9241 15.667 40.9979 16.1629C41.0662 16.6216 41.3237 17.059 41.7217 17.3005C42.183 17.5802 42.7442 17.5177 43.2393 17.3787C43.2598 17.3731 43.2809 17.3669 43.3014 17.3607C43.5707 17.2813 43.8609 17.3782 44.0297 17.6056C44.1812 17.8093 44.3622 17.99 44.5853 18.1442C44.6702 18.2028 44.7585 18.2501 44.849 18.2861C45.0133 18.3514 45.1176 18.5163 45.1132 18.6953C45.0993 19.2908 45.3569 19.9663 45.9441 20.1836C46.7201 20.4706 47.4051 19.9061 47.7542 19.2396C48.0528 18.67 48.0545 17.8099 47.5288 17.3331C47.3518 17.1727 47.1875 17.077 47.0459 16.965C46.8478 16.8091 46.9066 16.4894 47.1458 16.4134C47.5077 16.2985 47.9263 16.1049 48.1588 15.837C48.5113 15.4311 48.5857 14.8761 48.3964 14.3752H48.397ZM45.1248 15.0309C44.9317 15.0602 44.7319 14.9983 44.5975 14.8542C44.5725 14.8272 44.5498 14.7979 44.5315 14.7652C44.4393 14.6043 44.5037 14.3949 44.6225 14.2682C44.7907 14.0887 45.066 14.0538 45.2964 14.092C45.4856 14.1236 45.7931 14.2305 45.8503 14.4472C45.9008 14.638 45.7199 14.8159 45.5689 14.9003C45.4373 14.9741 45.2819 15.0067 45.1248 15.0304V15.0309ZM46.7617 19.3117C46.341 19.5025 45.9097 19.2486 45.8703 18.7859C45.867 18.7499 45.8659 18.7139 45.8664 18.679C45.8692 18.4319 46.0052 18.2062 46.2133 18.0778C46.2649 18.0463 46.3166 18.012 46.3676 17.9759C46.5935 17.8155 46.89 17.7857 47.1297 17.9225C47.1569 17.9382 47.183 17.9551 47.208 17.9742C47.6831 18.3367 47.1764 19.1237 46.7617 19.3117ZM47.4445 15.3146C47.0859 15.6417 46.5741 15.5972 46.185 15.8488C45.8109 16.0908 45.8387 16.5164 46.0324 16.8873C46.1034 17.0235 46.0657 17.1918 45.9486 17.2898C45.9064 17.3252 45.8664 17.3568 45.8381 17.3765C45.6744 17.4896 45.4801 17.6224 45.2719 17.5943C45.0049 17.5588 44.8429 17.3483 44.7246 17.1068C44.6275 16.9087 44.6641 16.6706 44.8112 16.5074C44.9322 16.3728 45.0277 16.2259 45.0871 16.07C45.1631 15.8696 45.3335 15.7182 45.5411 15.6743C45.7526 15.6298 45.9524 15.5437 46.1173 15.4013C46.4553 15.1086 46.5558 14.6977 46.3676 14.2935C46.0457 13.6034 45.0122 13.3456 44.3944 13.7656C44.0957 13.9688 43.9048 14.3341 43.9109 14.7005C43.9137 14.8705 43.9636 15.0411 44.0541 15.184C44.1302 15.3039 44.3616 15.4542 44.3672 15.6045C44.3794 15.9163 43.7538 16.1522 43.5418 16.2546C43.2126 16.4134 42.7336 16.607 42.3606 16.5395C42.0698 16.4865 41.9354 16.1809 41.8805 15.9158C41.8055 15.555 41.8644 15.1745 42.0348 14.8514C42.1319 14.6673 42.2207 14.4866 42.3612 14.3329C42.5171 14.1624 42.6903 14.0076 42.8768 13.8731C43.2421 13.6102 43.6473 13.3952 44.0658 13.2353C44.4843 13.0755 44.9245 12.9618 45.3746 12.9758C45.8309 12.9899 46.2439 13.1717 46.6058 13.447C47.0987 13.8213 48.1533 14.6667 47.4433 15.3146H47.4445Z" fill="black"/>
<path d="M143.309 12.6509C142.389 12.6194 140.426 13.3466 139.818 14.5951C139.21 15.8441 139.568 16.8084 140.082 16.9823C140.597 17.1557 141.984 16.6975 141.984 16.6975C141.984 16.6975 142.327 17.709 143.558 18.1992C143.558 18.1992 143.2 19.7956 144.26 19.8744C145.32 19.9538 146.006 18.7047 145.663 17.9775C145.32 17.2502 144.587 17.1557 144.587 17.1557C144.587 17.1557 144.228 16.2866 144.618 16.0653C145.008 15.8441 145.912 16.1126 146.099 14.9745C146.286 13.8363 144.228 12.683 143.309 12.6509ZM144.182 14.8641C143.948 15.2751 142.857 15.5284 142.857 15.5284C141.89 14.6587 142.311 13.7733 143.059 13.8054C143.807 13.8369 144.415 14.4532 144.182 14.8641Z" fill="white"/>
<path d="M144.187 17.3378C144.338 17.1391 144.322 16.8368 144.088 16.718C144.106 16.6865 144.121 16.6539 144.132 16.6207C144.181 16.4783 144.001 16.4135 143.907 16.4884C143.777 16.5931 143.667 16.7563 143.495 16.794C143.195 16.8599 143.117 16.5593 143.229 16.3313C143.307 16.1732 143.425 16.0369 143.555 15.9199C143.672 15.8146 143.833 15.7493 143.91 15.6086C143.949 15.5371 143.897 15.4684 143.825 15.4594C143.564 15.4279 143.274 15.7499 143.129 15.9368C143.03 16.0628 142.939 16.2137 142.891 16.3736C142.831 16.3533 142.76 16.3623 142.71 16.4124C142.28 16.8374 142.697 17.8393 143.309 17.7706C143.596 17.7385 144.005 17.5759 144.186 17.3378H144.187Z" fill="#A7B5BF"/>
<path d="M145.276 17.7476C145.182 17.7521 145.087 17.7678 144.992 17.7909C144.993 17.7577 144.978 17.7234 144.948 17.7093C144.68 17.5815 144.353 17.7543 144.138 17.9243C143.89 18.1208 143.669 18.4163 143.64 18.7416C143.631 18.839 143.713 18.8959 143.795 18.8975C143.845 18.9842 143.981 19.0281 144.051 18.9398C144.217 18.7298 144.368 18.5227 144.592 18.3718C144.819 18.2187 145.059 18.154 145.323 18.1005C145.518 18.0611 145.474 17.7386 145.276 17.7481L145.276 17.7476Z" fill="#A7B5BF"/>
<path d="M146.43 14.3752C146.252 13.9046 145.908 13.559 145.525 13.2522C145.146 12.9477 144.752 12.6505 144.298 12.4692C143.33 12.0831 142.263 12.3887 141.367 12.8267C140.527 13.237 139.687 13.8956 139.287 14.7709C139.083 15.2184 138.957 15.667 139.031 16.1629C139.099 16.6216 139.356 17.059 139.754 17.3005C140.216 17.5802 140.777 17.5177 141.272 17.3787C141.293 17.3731 141.314 17.3669 141.334 17.3607C141.603 17.2813 141.894 17.3782 142.062 17.6056C142.214 17.8093 142.395 17.99 142.618 18.1442C142.703 18.2028 142.791 18.2501 142.882 18.2861C143.046 18.3514 143.15 18.5163 143.146 18.6953C143.132 19.2908 143.39 19.9663 143.977 20.1836C144.753 20.4706 145.438 19.9061 145.787 19.2396C146.086 18.67 146.087 17.8099 145.562 17.3331C145.384 17.1727 145.22 17.077 145.079 16.965C144.88 16.8091 144.939 16.4894 145.179 16.4134C145.54 16.2985 145.959 16.1049 146.192 15.837C146.544 15.4311 146.618 14.8761 146.429 14.3752H146.43ZM143.158 15.0309C142.964 15.0602 142.765 14.9983 142.63 14.8542C142.605 14.8272 142.583 14.7979 142.564 14.7652C142.472 14.6043 142.536 14.3949 142.655 14.2682C142.823 14.0887 143.099 14.0538 143.329 14.092C143.518 14.1236 143.826 14.2305 143.883 14.4472C143.934 14.638 143.753 14.8159 143.602 14.9003C143.47 14.9741 143.315 15.0067 143.158 15.0304V15.0309ZM144.794 19.3117C144.374 19.5025 143.942 19.2486 143.903 18.7859C143.9 18.7499 143.899 18.7139 143.899 18.679C143.902 18.4319 144.038 18.2062 144.246 18.0778C144.298 18.0463 144.349 18.012 144.4 17.9759C144.626 17.8155 144.923 17.7857 145.162 17.9225C145.19 17.9382 145.216 17.9551 145.241 17.9742C145.716 18.3367 145.209 19.1237 144.794 19.3117ZM145.477 15.3146C145.119 15.6417 144.607 15.5972 144.218 15.8488C143.844 16.0908 143.871 16.5164 144.065 16.8873C144.136 17.0235 144.098 17.1918 143.981 17.2898C143.939 17.3252 143.899 17.3568 143.871 17.3765C143.707 17.4896 143.513 17.6224 143.305 17.5943C143.038 17.5588 142.876 17.3483 142.757 17.1068C142.66 16.9087 142.697 16.6706 142.844 16.5074C142.965 16.3728 143.06 16.2259 143.12 16.07C143.196 15.8696 143.366 15.7182 143.574 15.6743C143.785 15.6298 143.985 15.5437 144.15 15.4013C144.488 15.1086 144.589 14.6977 144.4 14.2935C144.078 13.6034 143.045 13.3456 142.427 13.7656C142.128 13.9688 141.938 14.3341 141.944 14.7005C141.946 14.8705 141.996 15.0411 142.087 15.184C142.163 15.3039 142.394 15.4542 142.4 15.6045C142.412 15.9163 141.787 16.1522 141.575 16.2546C141.245 16.4134 140.766 16.607 140.393 16.5395C140.102 16.4865 139.968 16.1809 139.913 15.9158C139.838 15.555 139.897 15.1745 140.067 14.8514C140.165 14.6673 140.253 14.4866 140.394 14.3329C140.55 14.1624 140.723 14.0076 140.91 13.8731C141.275 13.6102 141.68 13.3952 142.098 13.2353C142.517 13.0755 142.957 12.9618 143.407 12.9758C143.864 12.9899 144.277 13.1717 144.638 13.447C145.131 13.8213 146.186 14.6667 145.476 15.3146H145.477Z" fill="black"/>
<path d="M188.694 12.6509C187.774 12.6194 185.811 13.3466 185.203 14.5951C184.595 15.8441 184.954 16.8084 185.468 16.9823C185.983 17.1557 187.37 16.6975 187.37 16.6975C187.37 16.6975 187.713 17.709 188.944 18.1992C188.944 18.1992 188.585 19.7956 189.645 19.8744C190.705 19.9538 191.391 18.7047 191.048 17.9775C190.705 17.2502 189.972 17.1557 189.972 17.1557C189.972 17.1557 189.614 16.2866 190.003 16.0653C190.393 15.8441 191.297 16.1126 191.484 14.9745C191.671 13.8363 189.614 12.683 188.694 12.6509ZM189.567 14.8641C189.334 15.2751 188.242 15.5284 188.242 15.5284C187.276 14.6587 187.697 13.7733 188.445 13.8054C189.193 13.8369 189.801 14.4532 189.567 14.8641Z" fill="white"/>
<path d="M189.572 17.3378C189.723 17.1391 189.708 16.8368 189.473 16.718C189.491 16.6865 189.506 16.6539 189.517 16.6207C189.567 16.4783 189.387 16.4135 189.293 16.4884C189.163 16.5931 189.052 16.7563 188.88 16.794C188.581 16.8599 188.502 16.5593 188.615 16.3313C188.693 16.1732 188.811 16.0369 188.941 15.9199C189.057 15.8146 189.218 15.7493 189.295 15.6086C189.335 15.5371 189.283 15.4684 189.211 15.4594C188.949 15.4279 188.66 15.7499 188.514 15.9368C188.416 16.0628 188.324 16.2137 188.277 16.3736C188.217 16.3533 188.146 16.3623 188.095 16.4124C187.666 16.8374 188.083 17.8393 188.694 17.7706C188.982 17.7385 189.39 17.5759 189.571 17.3378H189.572Z" fill="#A7B5BF"/>
<path d="M190.662 17.7476C190.568 17.7521 190.473 17.7678 190.378 17.7909C190.378 17.7577 190.363 17.7234 190.334 17.7093C190.066 17.5815 189.738 17.7543 189.523 17.9243C189.275 18.1208 189.054 18.4163 189.025 18.7416C189.017 18.839 189.098 18.8959 189.18 18.8975C189.23 18.9842 189.366 19.0281 189.436 18.9398C189.602 18.7298 189.753 18.5227 189.977 18.3718C190.205 18.2187 190.444 18.154 190.708 18.1005C190.903 18.0611 190.86 17.7386 190.661 17.7481L190.662 17.7476Z" fill="#A7B5BF"/>
<path d="M191.815 14.3752C191.638 13.9046 191.293 13.559 190.911 13.2522C190.531 12.9477 190.137 12.6505 189.683 12.4692C188.715 12.0831 187.649 12.3887 186.752 12.8267C185.912 13.237 185.073 13.8956 184.673 14.7709C184.468 15.2184 184.342 15.667 184.416 16.1629C184.484 16.6216 184.742 17.059 185.14 17.3005C185.601 17.5802 186.162 17.5177 186.658 17.3787C186.678 17.3731 186.699 17.3669 186.72 17.3607C186.989 17.2813 187.279 17.3782 187.448 17.6056C187.599 17.8093 187.78 17.99 188.004 18.1442C188.088 18.2028 188.177 18.2501 188.267 18.2861C188.432 18.3514 188.536 18.5163 188.531 18.6953C188.518 19.2908 188.775 19.9663 189.362 20.1836C190.138 20.4706 190.823 19.9061 191.172 19.2396C191.471 18.67 191.473 17.8099 190.947 17.3331C190.77 17.1727 190.606 17.077 190.464 16.965C190.266 16.8091 190.325 16.4894 190.564 16.4134C190.926 16.2985 191.344 16.1049 191.577 15.837C191.93 15.4311 192.004 14.8761 191.815 14.3752H191.815ZM188.543 15.0309C188.35 15.0602 188.15 14.9983 188.016 14.8542C187.991 14.8272 187.968 14.7979 187.95 14.7652C187.858 14.6043 187.922 14.3949 188.041 14.2682C188.209 14.0887 188.484 14.0538 188.715 14.092C188.904 14.1236 189.211 14.2305 189.269 14.4472C189.319 14.638 189.138 14.8159 188.987 14.9003C188.856 14.9741 188.7 15.0067 188.543 15.0304V15.0309ZM190.18 19.3117C189.759 19.5025 189.328 19.2486 189.289 18.7859C189.285 18.7499 189.284 18.7139 189.285 18.679C189.287 18.4319 189.423 18.2062 189.632 18.0778C189.683 18.0463 189.735 18.012 189.786 17.9759C190.012 17.8155 190.308 17.7857 190.548 17.9225C190.575 17.9382 190.601 17.9551 190.626 17.9742C191.101 18.3367 190.595 19.1237 190.18 19.3117ZM190.863 15.3146C190.504 15.6417 189.992 15.5972 189.603 15.8488C189.229 16.0908 189.257 16.5164 189.451 16.8873C189.522 17.0235 189.484 17.1918 189.367 17.2898C189.325 17.3252 189.285 17.3568 189.256 17.3765C189.093 17.4896 188.898 17.6224 188.69 17.5943C188.423 17.5588 188.261 17.3483 188.143 17.1068C188.046 16.9087 188.082 16.6706 188.229 16.5074C188.35 16.3728 188.446 16.2259 188.505 16.07C188.581 15.8696 188.752 15.7182 188.959 15.6743C189.171 15.6298 189.371 15.5437 189.536 15.4013C189.874 15.1086 189.974 14.6977 189.786 14.2935C189.464 13.6034 188.43 13.3456 187.813 13.7656C187.514 13.9688 187.323 14.3341 187.329 14.7005C187.332 14.8705 187.382 15.0411 187.472 15.184C187.548 15.3039 187.78 15.4542 187.785 15.6045C187.798 15.9163 187.172 16.1522 186.96 16.2546C186.631 16.4134 186.152 16.607 185.779 16.5395C185.488 16.4865 185.354 16.1809 185.299 15.9158C185.224 15.555 185.283 15.1745 185.453 14.8514C185.55 14.6673 185.639 14.4866 185.779 14.3329C185.935 14.1624 186.109 14.0076 186.295 13.8731C186.66 13.6102 187.065 13.3952 187.484 13.2353C187.903 13.0755 188.343 12.9618 188.793 12.9758C189.249 12.9899 189.662 13.1717 190.024 13.447C190.517 13.8213 191.572 14.6667 190.862 15.3146H190.863Z" fill="black"/>
<path d="M33.9207 43.236C33.9207 44.0387 33.3747 44.7387 32.2827 45.336C31.4707 45.784 30.4114 46.148 29.1047 46.428C28.1434 46.6333 27.4387 46.736 26.9907 46.736C26.8134 46.736 26.4587 46.6753 25.9267 46.554C25.3107 46.414 24.8161 46.2647 24.4427 46.106V45.504C24.4334 44.9813 24.6807 44.524 25.1847 44.132L29.0347 44.51C30.0521 44.4727 31.0041 44.1833 31.8907 43.642V43.334C31.3214 42.6153 30.2807 42.1533 28.7687 41.948C27.5741 41.7987 26.3841 41.6493 25.1987 41.5C24.0601 41.2013 23.4907 40.534 23.4907 39.498C23.4907 38.8353 23.9667 38.0933 24.9187 37.272C25.7214 36.5907 26.6967 35.97 27.8447 35.41C28.9181 34.8967 29.7021 34.64 30.1967 34.64C30.8874 34.64 31.2794 34.6493 31.3727 34.668C31.7554 34.7613 31.9281 35.018 31.8907 35.438C31.8441 35.97 31.3541 36.3947 30.4207 36.712C29.5341 36.9827 28.6521 37.2533 27.7747 37.524C26.8134 37.9253 26.2814 38.4853 26.1787 39.204C27.1401 39.344 28.0967 39.484 29.0487 39.624C30.4861 39.848 31.5874 40.1793 32.3527 40.618C33.3981 41.234 33.9207 42.1067 33.9207 43.236ZM43.4549 36.348C43.4922 36.3947 43.5109 36.446 43.5109 36.502C43.5109 36.7167 43.2495 36.95 42.7269 37.202C42.3162 37.4073 42.0222 37.5193 41.8449 37.538C41.4715 37.5847 40.7949 37.6127 39.8149 37.622C39.0589 37.6313 38.4569 37.6967 38.0089 37.818C38.0089 37.9487 37.9995 38.0747 37.9809 38.196C37.9715 38.3173 37.9295 38.4667 37.8549 38.644C37.8082 38.7373 37.6355 39.47 37.3369 40.842C37.0009 42.3353 36.8329 43.2593 36.8329 43.614V45.168C36.7489 45.364 36.4175 45.462 35.8389 45.462C35.4282 45.462 35.2229 45.126 35.2229 44.454C35.2229 44.146 35.3022 43.6327 35.4609 42.914C35.5915 42.3167 35.7035 41.8687 35.7969 41.57C35.8529 41.3927 35.9509 40.8887 36.0909 40.058C36.2402 39.1713 36.3149 38.5833 36.3149 38.294C36.3149 38.2007 36.2635 38.1167 36.1609 38.042L34.1449 38.518C33.8462 38.5833 33.6969 38.2007 33.6969 37.37C33.6969 37.0527 33.7809 36.8427 33.9489 36.74C34.0609 36.6653 34.2569 36.628 34.5369 36.628C34.5742 36.628 34.6535 36.6373 34.7749 36.656C34.9055 36.6747 34.9989 36.684 35.0549 36.684L41.7469 35.676C42.3162 35.6387 42.7222 35.6853 42.9649 35.816C43.0862 35.8907 43.2495 36.068 43.4549 36.348ZM51.8978 40.52C51.7952 41.0613 51.6318 41.416 51.4078 41.584C51.2212 41.7147 50.8805 41.78 50.3858 41.78C50.0778 41.78 49.8445 41.7567 49.6858 41.71C49.5925 42.3167 49.4992 42.9233 49.4058 43.53C49.1538 44.6313 48.7852 45.182 48.2998 45.182C47.9172 45.182 47.7258 44.8273 47.7258 44.118C47.7258 43.7353 47.7818 43.2547 47.8938 42.676C48.0058 42.088 48.0618 41.808 48.0618 41.836C48.0432 41.8173 47.9405 41.8313 47.7538 41.878C47.5672 41.9153 47.4552 41.934 47.4178 41.934C47.2872 41.934 46.8298 41.9993 46.0458 42.13C45.1032 42.2793 44.3892 42.424 43.9038 42.564C43.7545 42.7693 43.5352 43.0587 43.2458 43.432C42.9565 43.8053 42.6672 44.188 42.3778 44.58C42.0418 44.9813 41.6685 45.182 41.2578 45.182C40.6605 45.182 40.3618 44.8973 40.3618 44.328C40.3618 43.852 41.5378 42.536 43.8898 40.38C45.2805 39.148 46.6712 37.916 48.0618 36.684C48.3605 36.4133 48.8132 36.278 49.4198 36.278C49.8025 36.278 50.0405 36.418 50.1338 36.698C50.1712 36.81 50.1898 37.0807 50.1898 37.51L49.9658 40.296H51.5338C51.6925 40.2867 51.8138 40.3613 51.8978 40.52ZM48.2718 40.114C48.2998 39.386 48.2858 38.9007 48.2298 38.658C48.1925 38.4807 48.1132 38.3873 47.9918 38.378C47.8238 38.3593 47.7118 38.322 47.6558 38.266C47.3758 38.4713 46.9978 38.8587 46.5218 39.428C46.1952 39.8387 45.8638 40.2493 45.5278 40.66L48.2718 40.114ZM63.1397 36.712C63.1397 37.02 62.8597 37.8273 62.2997 39.134C61.6931 40.5527 61.0817 41.766 60.4657 42.774C59.6911 44.0247 59.0704 44.65 58.6037 44.65C58.2024 44.65 57.7731 44.2627 57.3157 43.488C56.9891 42.9373 56.6531 42.1953 56.3077 41.262C56.1397 40.7953 55.9764 40.3287 55.8177 39.862C55.3604 40.814 54.8611 42.2793 54.3197 44.258C54.2731 44.4073 54.1237 44.5707 53.8717 44.748C53.6197 44.916 53.4237 45 53.2837 45C52.9477 45 52.6911 44.8507 52.5137 44.552C52.3831 44.3187 52.3177 44.0667 52.3177 43.796C52.3177 43.4133 52.3831 43.054 52.5137 42.718C52.8497 41.8873 53.4237 40.7347 54.2357 39.26C54.7211 38.364 55.1784 37.692 55.6077 37.244C55.6637 37.188 55.8084 37.1413 56.0417 37.104C56.3777 37.0667 56.5737 37.0387 56.6297 37.02C57.4417 38.336 57.9597 40.1467 58.1837 42.452C58.2864 42.536 58.4404 42.676 58.6457 42.872C59.0844 42.116 59.6257 40.9727 60.2697 39.442C60.6711 38.4713 60.9371 37.86 61.0677 37.608C61.6371 36.5627 62.1784 36.04 62.6917 36.04C62.9157 36.04 63.0557 36.1333 63.1117 36.32C63.1304 36.3667 63.1397 36.4973 63.1397 36.712ZM74.6162 39.092C74.6162 40.38 73.2302 41.654 70.4582 42.914C69.5996 43.306 68.2089 43.81 66.2862 44.426C65.8382 44.566 65.2269 44.7947 64.4522 45.112C64.0229 45.2893 63.6589 45.378 63.3602 45.378C63.0709 45.378 62.8796 45.3173 62.7862 45.196C62.7209 45.112 62.6882 44.9393 62.6882 44.678C62.6882 44.118 62.8702 43.2407 63.2342 42.046C63.5982 40.842 63.7802 39.9927 63.7802 39.498C63.7802 39.1993 63.7382 38.9333 63.6542 38.7C63.7382 38.5787 63.8922 38.518 64.1162 38.518C64.2282 38.518 64.3496 38.5367 64.4802 38.574C64.5922 38.4247 64.6856 38.154 64.7602 37.762C64.8442 37.3233 64.9189 37.034 64.9842 36.894C65.1149 36.6233 65.3296 36.488 65.6282 36.488C65.7122 36.488 65.8056 36.502 65.9082 36.53C66.0482 36.6233 66.1182 36.7913 66.1182 37.034V37.09C66.1182 37.258 66.1369 37.3933 66.1742 37.496C67.2382 36.9453 67.9802 36.6187 68.4002 36.516C68.6802 36.4507 69.3009 36.418 70.2622 36.418C71.4102 36.418 72.2969 36.53 72.9222 36.754C74.0516 37.1647 74.6162 37.944 74.6162 39.092ZM73.2022 39.414C73.2022 38.826 72.7169 38.3687 71.7462 38.042C71.0556 37.818 70.3929 37.706 69.7582 37.706C68.7502 37.706 67.8356 37.9207 67.0142 38.35C66.7342 38.49 66.4542 38.6347 66.1742 38.784C65.8476 38.9613 65.6609 39.092 65.6142 39.176C65.3436 39.7173 65.0962 40.4173 64.8722 41.276C64.6949 41.9853 64.5176 42.6993 64.3402 43.418C65.4696 43.1007 67.1402 42.606 69.3522 41.934C71.9189 41.1127 73.2022 40.2727 73.2022 39.414ZM93.465 39.456C93.465 39.54 93.367 39.6987 93.171 39.932C92.975 40.156 92.8024 40.282 92.653 40.31C92.5037 40.338 91.7337 40.4593 90.343 40.674C89.419 40.814 88.4484 41.0193 87.431 41.29C87.0484 41.3833 86.6704 41.4767 86.297 41.57C85.7744 41.71 85.373 41.8593 85.093 42.018C84.7384 42.2233 84.407 42.886 84.099 44.006C83.847 44.9673 83.595 45.9287 83.343 46.89C83.0257 47.8793 82.6664 48.374 82.265 48.374C81.8824 48.374 81.579 48.164 81.355 47.744C81.1777 47.4267 81.089 47.1187 81.089 46.82C81.089 46.204 81.355 45.4013 81.887 44.412C82.419 43.4133 82.685 42.8113 82.685 42.606C82.685 42.4753 82.5684 42.2653 82.335 41.976C82.111 41.6867 81.999 41.402 81.999 41.122C81.999 40.7393 82.279 40.5013 82.839 40.408C83.1377 40.38 83.441 40.352 83.749 40.324C83.7584 40.3053 84.267 39.05 85.275 36.558C85.5924 35.7833 85.9517 35.312 86.353 35.144C86.7077 35.004 87.585 34.934 88.985 34.934C89.041 34.934 89.167 34.9293 89.363 34.92C89.559 34.9107 89.7177 34.906 89.839 34.906C90.9404 34.906 91.491 35.2467 91.491 35.928C91.491 36.3947 91.337 36.7167 91.029 36.894C90.8237 37.006 90.5064 37.062 90.077 37.062H87.963C87.5337 37.062 87.0997 37.4073 86.661 38.098C86.2597 38.7233 86.0917 39.1667 86.157 39.428L91.981 38.728C92.317 38.728 92.6204 38.7747 92.891 38.868C93.2737 38.9987 93.465 39.1947 93.465 39.456ZM99.3116 40.016C99.3116 41.2013 98.8869 42.3307 98.0376 43.404C97.0949 44.5893 95.9702 45.182 94.6636 45.182C93.6462 45.182 92.8529 44.8833 92.2836 44.286C91.7329 43.7167 91.4576 42.9607 91.4576 42.018C91.4576 41.6447 91.5929 41.01 91.8636 40.114C92.1996 39.022 92.5916 38.1213 93.0396 37.412C93.6276 36.4973 94.2482 36.04 94.9016 36.04C96.1616 36.04 97.1882 36.362 97.9816 37.006C98.8682 37.7247 99.3116 38.728 99.3116 40.016ZM96.8336 40.576C96.8336 40.5853 96.8662 40.408 96.9316 40.044C97.0062 39.68 97.0436 39.358 97.0436 39.078C97.0436 37.9393 96.4836 37.4167 95.3636 37.51C94.7662 37.5567 94.2016 38.2333 93.6696 39.54C93.2216 40.632 92.9976 41.4627 92.9976 42.032C92.9976 42.368 93.0536 42.6713 93.1656 42.942C93.3616 43.4647 93.7209 43.726 94.2436 43.726C94.9622 43.726 95.6016 43.278 96.1616 42.382C96.6096 41.654 96.8336 41.052 96.8336 40.576ZM108.241 37.874C108.166 39.0593 107.177 39.764 105.273 39.988C105.945 40.3893 106.57 40.8373 107.149 41.332C108.017 42.0787 108.451 42.6993 108.451 43.194C108.451 43.362 108.409 43.5767 108.325 43.838C108.231 44.1647 108.124 44.328 108.003 44.328C107.937 44.328 107.713 44.0853 107.331 43.6C106.957 43.1147 106.738 42.8627 106.673 42.844L103.551 41.22C103.411 41.22 103.201 41.1827 102.921 41.108C102.547 41.0053 102.361 40.884 102.361 40.744C102.361 40.3053 102.72 39.918 103.439 39.582C103.635 39.498 104.045 39.3627 104.671 39.176C105.016 39.0827 105.282 38.9987 105.469 38.924C105.861 38.7747 106.127 38.616 106.267 38.448C106.229 38.3453 106.089 38.294 105.847 38.294C105.408 38.294 104.736 38.4667 103.831 38.812C102.897 39.1573 102.379 39.4513 102.277 39.694C102.193 39.8807 102.081 40.2493 101.941 40.8C101.81 41.3507 101.665 41.8173 101.507 42.2C101.423 42.4053 101.334 42.7787 101.241 43.32C101.175 43.684 101.04 44.0993 100.835 44.566C100.499 45.3313 100.121 45.714 99.7005 45.714C99.6258 45.714 99.5185 45.6533 99.3785 45.532C99.3598 44.8787 99.4205 44.272 99.5605 43.712C99.6445 43.3853 99.8452 42.8113 100.163 41.99C100.508 41.094 100.788 40.2773 101.003 39.54C100.779 39.484 100.545 39.3953 100.303 39.274C100.293 39.162 100.317 39.0127 100.373 38.826C100.447 38.546 100.489 38.3873 100.499 38.35C100.732 38.2847 101.003 38.1587 101.311 37.972C101.413 37.8227 101.516 37.6827 101.619 37.552C101.721 37.412 101.889 37.342 102.123 37.342C102.16 37.342 102.337 37.3653 102.655 37.412C102.981 37.4587 103.168 37.482 103.215 37.482C103.224 37.482 103.569 37.3653 104.251 37.132C104.941 36.8893 105.562 36.768 106.113 36.768C106.785 36.768 107.247 36.8007 107.499 36.866C108.031 37.0247 108.278 37.3607 108.241 37.874ZM125.629 43.236C125.629 44.0387 125.083 44.7387 123.991 45.336C123.179 45.784 122.12 46.148 120.813 46.428C119.852 46.6333 119.147 46.736 118.699 46.736C118.522 46.736 118.167 46.6753 117.635 46.554C117.019 46.414 116.524 46.2647 116.151 46.106V45.504C116.142 44.9813 116.389 44.524 116.893 44.132L120.743 44.51C121.76 44.4727 122.712 44.1833 123.599 43.642V43.334C123.03 42.6153 121.989 42.1533 120.477 41.948C119.282 41.7987 118.092 41.6493 116.907 41.5C115.768 41.2013 115.199 40.534 115.199 39.498C115.199 38.8353 115.675 38.0933 116.627 37.272C117.43 36.5907 118.405 35.97 119.553 35.41C120.626 34.8967 121.41 34.64 121.905 34.64C122.596 34.64 122.988 34.6493 123.081 34.668C123.464 34.7613 123.636 35.018 123.599 35.438C123.552 35.97 123.062 36.3947 122.129 36.712C121.242 36.9827 120.36 37.2533 119.483 37.524C118.522 37.9253 117.99 38.4853 117.887 39.204C118.848 39.344 119.805 39.484 120.757 39.624C122.194 39.848 123.296 40.1793 124.061 40.618C125.106 41.234 125.629 42.1067 125.629 43.236ZM133.203 40.016C133.203 41.2013 132.778 42.3307 131.929 43.404C130.986 44.5893 129.862 45.182 128.555 45.182C127.538 45.182 126.744 44.8833 126.175 44.286C125.624 43.7167 125.349 42.9607 125.349 42.018C125.349 41.6447 125.484 41.01 125.755 40.114C126.091 39.022 126.483 38.1213 126.931 37.412C127.519 36.4973 128.14 36.04 128.793 36.04C130.053 36.04 131.08 36.362 131.873 37.006C132.76 37.7247 133.203 38.728 133.203 40.016ZM130.725 40.576C130.725 40.5853 130.758 40.408 130.823 40.044C130.898 39.68 130.935 39.358 130.935 39.078C130.935 37.9393 130.375 37.4167 129.255 37.51C128.658 37.5567 128.093 38.2333 127.561 39.54C127.113 40.632 126.889 41.4627 126.889 42.032C126.889 42.368 126.945 42.6713 127.057 42.942C127.253 43.4647 127.612 43.726 128.135 43.726C128.854 43.726 129.493 43.278 130.053 42.382C130.501 41.654 130.725 41.052 130.725 40.576ZM145.394 39.288C145.31 39.568 144.974 40.3567 144.386 41.654C143.835 42.8673 143.518 43.656 143.434 44.02C143.415 44.076 143.406 44.1553 143.406 44.258C143.406 44.3513 143.42 44.524 143.448 44.776C143.476 45.028 143.49 45.2193 143.49 45.35C143.49 46.0127 143.215 46.344 142.664 46.344C142.487 46.344 142.319 46.246 142.16 46.05C142.011 45.854 141.936 45.6533 141.936 45.448C141.936 45.3827 141.945 45.322 141.964 45.266L143.686 39.54C143.733 39.4373 143.747 39.386 143.728 39.386C143.709 39.3953 143.686 39.4187 143.658 39.456C142.781 40.2027 141.903 40.9493 141.026 41.696C139.523 42.9 138.515 43.502 138.002 43.502C137.423 43.502 136.817 42.4613 136.182 40.38C135.874 40.8467 135.599 41.4207 135.356 42.102C135.3 42.2513 135.113 42.8347 134.796 43.852C134.749 44.0107 134.614 44.23 134.39 44.51C134.166 44.7807 134.003 44.916 133.9 44.916C133.592 44.916 133.401 44.8087 133.326 44.594C133.289 44.51 133.27 44.3233 133.27 44.034C133.27 43.7913 133.737 42.6527 134.67 40.618C135.641 38.462 136.285 37.384 136.602 37.384C137.059 37.384 137.423 37.7293 137.694 38.42C137.881 38.9053 138.021 39.5727 138.114 40.422C138.161 40.8607 138.207 41.304 138.254 41.752C139.215 41.0613 140.181 40.366 141.152 39.666C142.916 38.434 144.008 37.818 144.428 37.818C144.717 37.818 144.965 37.972 145.17 38.28C145.338 38.5507 145.422 38.826 145.422 39.106C145.422 39.1713 145.413 39.232 145.394 39.288ZM154.268 39.932C153.353 40.1653 152.103 40.38 150.516 40.576C149.275 40.7253 148.467 40.9027 148.094 41.108C147.525 41.3973 147.268 41.9293 147.324 42.704C147.371 42.732 147.455 42.746 147.576 42.746C147.688 42.746 147.861 42.732 148.094 42.704C148.337 42.676 148.486 42.662 148.542 42.662C148.635 42.662 149.13 42.5547 150.026 42.34C150.931 42.1253 151.426 42.018 151.51 42.018C151.781 42.018 151.977 42.0413 152.098 42.088C152.313 42.1813 152.513 42.3913 152.7 42.718C152.392 43.2967 151.575 43.8707 150.25 44.44C148.99 44.9813 147.935 45.252 147.086 45.252C146.507 45.252 146.087 45.1493 145.826 44.944C145.518 44.7013 145.364 44.3 145.364 43.74C145.364 43.0027 145.7 41.6587 146.372 39.708C147.016 37.86 147.455 36.8287 147.688 36.614C147.931 36.3993 148.668 36.292 149.9 36.292C150.46 36.292 150.88 36.334 151.16 36.418C151.571 36.5487 151.944 36.8147 152.28 37.216L152.154 37.678C152.135 37.706 151.776 37.706 151.076 37.678C150.264 37.65 149.643 37.6967 149.214 37.818C148.551 38.014 148.22 38.392 148.22 38.952V39.33C148.668 39.3393 149.508 39.302 150.74 39.218C152.028 39.134 152.845 39.092 153.19 39.092C153.461 39.092 153.736 39.148 154.016 39.26C154.305 39.3627 154.45 39.4933 154.45 39.652C154.45 39.7453 154.389 39.8387 154.268 39.932ZM162.95 36.348C162.988 36.3947 163.006 36.446 163.006 36.502C163.006 36.7167 162.745 36.95 162.222 37.202C161.812 37.4073 161.518 37.5193 161.34 37.538C160.967 37.5847 160.29 37.6127 159.31 37.622C158.554 37.6313 157.952 37.6967 157.504 37.818C157.504 37.9487 157.495 38.0747 157.476 38.196C157.467 38.3173 157.425 38.4667 157.35 38.644C157.304 38.7373 157.131 39.47 156.832 40.842C156.496 42.3353 156.328 43.2593 156.328 43.614V45.168C156.244 45.364 155.913 45.462 155.334 45.462C154.924 45.462 154.718 45.126 154.718 44.454C154.718 44.146 154.798 43.6327 154.956 42.914C155.087 42.3167 155.199 41.8687 155.292 41.57C155.348 41.3927 155.446 40.8887 155.586 40.058C155.736 39.1713 155.81 38.5833 155.81 38.294C155.81 38.2007 155.759 38.1167 155.656 38.042L153.64 38.518C153.342 38.5833 153.192 38.2007 153.192 37.37C153.192 37.0527 153.276 36.8427 153.444 36.74C153.556 36.6653 153.752 36.628 154.032 36.628C154.07 36.628 154.149 36.6373 154.27 36.656C154.401 36.6747 154.494 36.684 154.55 36.684L161.242 35.676C161.812 35.6387 162.218 35.6853 162.46 35.816C162.582 35.8907 162.745 36.068 162.95 36.348ZM170.875 40.688C170.875 40.996 170.637 41.2527 170.161 41.458C169.807 41.6167 169.513 41.696 169.279 41.696H166.899C166.591 42.3587 166.437 42.788 166.437 42.984V45.714C166.437 45.8727 166.302 46.008 166.031 46.12C165.835 46.1947 165.667 46.232 165.527 46.232C165.21 46.232 164.953 46.092 164.757 45.812C164.599 45.5973 164.519 45.3827 164.519 45.168C164.519 45.1213 164.575 44.7293 164.687 43.992C164.799 43.1707 164.874 42.5033 164.911 41.99C164.762 42.018 164.552 42.032 164.281 42.032C164.095 42.032 163.866 42.0273 163.595 42.018C163.334 41.9993 163.189 41.99 163.161 41.99C162.545 41.99 162.177 42.3633 162.055 43.11C162.027 43.81 161.999 44.5053 161.971 45.196C161.906 45.952 161.631 46.33 161.145 46.33C160.679 46.33 160.445 45.8867 160.445 45C160.445 44.888 160.45 44.7667 160.459 44.636C160.469 44.5053 160.473 44.44 160.473 44.44C160.473 41.9013 160.893 39.6753 161.733 37.762C161.929 37.706 162.107 37.678 162.265 37.678C162.853 37.678 163.147 38.0887 163.147 38.91C163.147 39.0593 163.119 39.4187 163.063 39.988C163.213 40.0347 163.567 40.058 164.127 40.058C165.005 40.058 165.588 39.8247 165.877 39.358C165.971 39.2273 166.092 38.798 166.241 38.07C166.335 37.6033 166.577 37.37 166.969 37.37C167.268 37.37 167.501 37.4773 167.669 37.692C167.819 37.8693 167.893 38.0793 167.893 38.322C167.893 38.4153 167.8 38.6533 167.613 39.036C167.399 39.5027 167.263 39.82 167.207 39.988C167.889 40.044 168.565 40.1 169.237 40.156C170.329 40.268 170.875 40.4453 170.875 40.688ZM173.632 36.292C173.678 37.1787 173.543 38.1447 173.226 39.19C172.908 40.114 172.586 41.0333 172.26 41.948C171.896 43.012 171.648 43.9313 171.518 44.706C171.238 44.902 171.023 45 170.874 45C170.379 45 170.132 44.6453 170.132 43.936C170.132 43.096 170.384 42.0787 170.888 40.884C171.84 38.5973 172.442 37.0807 172.694 36.334C172.871 36.194 173.048 36.124 173.226 36.124C173.366 36.124 173.501 36.18 173.632 36.292ZM184.884 36.712C184.884 37.02 184.604 37.8273 184.044 39.134C183.437 40.5527 182.826 41.766 182.21 42.774C181.435 44.0247 180.815 44.65 180.348 44.65C179.947 44.65 179.517 44.2627 179.06 43.488C178.733 42.9373 178.397 42.1953 178.052 41.262C177.884 40.7953 177.721 40.3287 177.562 39.862C177.105 40.814 176.605 42.2793 176.064 44.258C176.017 44.4073 175.868 44.5707 175.616 44.748C175.364 44.916 175.168 45 175.028 45C174.692 45 174.435 44.8507 174.258 44.552C174.127 44.3187 174.062 44.0667 174.062 43.796C174.062 43.4133 174.127 43.054 174.258 42.718C174.594 41.8873 175.168 40.7347 175.98 39.26C176.465 38.364 176.923 37.692 177.352 37.244C177.408 37.188 177.553 37.1413 177.786 37.104C178.122 37.0667 178.318 37.0387 178.374 37.02C179.186 38.336 179.704 40.1467 179.928 42.452C180.031 42.536 180.185 42.676 180.39 42.872C180.829 42.116 181.37 40.9727 182.014 39.442C182.415 38.4713 182.681 37.86 182.812 37.608C183.381 36.5627 183.923 36.04 184.436 36.04C184.66 36.04 184.8 36.1333 184.856 36.32C184.875 36.3667 184.884 36.4973 184.884 36.712ZM192.902 43.306C192.921 43.4087 192.618 43.6 191.992 43.88C191.311 44.1787 190.56 44.4307 189.738 44.636C188.721 44.888 187.797 45.014 186.966 45.014C185.258 45.014 184.404 44.1507 184.404 42.424C184.404 41.6867 184.778 40.8047 185.524 39.778C186.215 38.8073 187.041 37.9673 188.002 37.258C189.001 36.5207 189.85 36.152 190.55 36.152C190.98 36.152 191.39 36.2593 191.782 36.474C192.24 36.726 192.468 37.048 192.468 37.44C192.468 37.7947 192.384 38.1307 192.216 38.448C192.02 38.8213 191.764 39.008 191.446 39.008C191.138 39.008 190.882 38.9007 190.676 38.686C190.602 38.6113 190.466 38.42 190.27 38.112C190.14 37.8973 190.014 37.79 189.892 37.79C189.435 37.79 188.674 38.3407 187.61 39.442C186.556 40.534 186.028 41.332 186.028 41.836C186.028 42.704 186.607 43.138 187.764 43.138C188.614 43.138 189.038 42.9653 189.038 42.62C189.038 42.508 188.758 42.354 188.198 42.158C187.648 41.9527 187.372 41.7427 187.372 41.528C187.372 41.1547 187.825 40.9213 188.73 40.828C188.908 40.8093 189.379 40.8 190.144 40.8C191.059 40.8 191.684 40.94 192.02 41.22C192.422 41.5467 192.716 42.242 192.902 43.306Z" fill="white"/>
</svg>
