<svg width="172" height="49" viewBox="0 0 172 49" fill="none" xmlns="http://www.w3.org/2000/svg">
<path d="M10.9207 43.236C10.9207 44.0387 10.3747 44.7387 9.28275 45.336C8.47075 45.784 7.41141 46.148 6.10475 46.428C5.14341 46.6333 4.43875 46.736 3.99075 46.736C3.81341 46.736 3.45875 46.6753 2.92675 46.554C2.31075 46.414 1.81608 46.2647 1.44275 46.106V45.504C1.43341 44.9813 1.68075 44.524 2.18475 44.132L6.03475 44.51C7.05208 44.4727 8.00408 44.1833 8.89075 43.642V43.334C8.32141 42.6153 7.28075 42.1533 5.76875 41.948C4.57408 41.7987 3.38408 41.6493 2.19875 41.5C1.06008 41.2013 0.490746 40.534 0.490746 39.498C0.490746 38.8353 0.966746 38.0933 1.91875 37.272C2.72141 36.5907 3.69675 35.97 4.84475 35.41C5.91808 34.8967 6.70208 34.64 7.19675 34.64C7.88741 34.64 8.27941 34.6493 8.37275 34.668C8.75541 34.7613 8.92808 35.018 8.89075 35.438C8.84408 35.97 8.35408 36.3947 7.42075 36.712C6.53408 36.9827 5.65208 37.2533 4.77475 37.524C3.81341 37.9253 3.28141 38.4853 3.17875 39.204C4.14008 39.344 5.09675 39.484 6.04875 39.624C7.48608 39.848 8.58741 40.1793 9.35275 40.618C10.3981 41.234 10.9207 42.1067 10.9207 43.236ZM20.4549 36.348C20.4922 36.3947 20.5109 36.446 20.5109 36.502C20.5109 36.7167 20.2495 36.95 19.7269 37.202C19.3162 37.4073 19.0222 37.5193 18.8449 37.538C18.4715 37.5847 17.7949 37.6127 16.8149 37.622C16.0589 37.6313 15.4569 37.6967 15.0089 37.818C15.0089 37.9487 14.9995 38.0747 14.9809 38.196C14.9715 38.3173 14.9295 38.4667 14.8549 38.644C14.8082 38.7373 14.6355 39.47 14.3369 40.842C14.0009 42.3353 13.8329 43.2593 13.8329 43.614V45.168C13.7489 45.364 13.4175 45.462 12.8389 45.462C12.4282 45.462 12.2229 45.126 12.2229 44.454C12.2229 44.146 12.3022 43.6327 12.4609 42.914C12.5915 42.3167 12.7035 41.8687 12.7969 41.57C12.8529 41.3927 12.9509 40.8887 13.0909 40.058C13.2402 39.1713 13.3149 38.5833 13.3149 38.294C13.3149 38.2007 13.2635 38.1167 13.1609 38.042L11.1449 38.518C10.8462 38.5833 10.6969 38.2007 10.6969 37.37C10.6969 37.0527 10.7809 36.8427 10.9489 36.74C11.0609 36.6653 11.2569 36.628 11.5369 36.628C11.5742 36.628 11.6535 36.6373 11.7749 36.656C11.9055 36.6747 11.9989 36.684 12.0549 36.684L18.7469 35.676C19.3162 35.6387 19.7222 35.6853 19.9649 35.816C20.0862 35.8907 20.2495 36.068 20.4549 36.348ZM28.8978 40.52C28.7952 41.0613 28.6318 41.416 28.4078 41.584C28.2212 41.7147 27.8805 41.78 27.3858 41.78C27.0778 41.78 26.8445 41.7567 26.6858 41.71C26.5925 42.3167 26.4992 42.9233 26.4058 43.53C26.1538 44.6313 25.7852 45.182 25.2998 45.182C24.9172 45.182 24.7258 44.8273 24.7258 44.118C24.7258 43.7353 24.7818 43.2547 24.8938 42.676C25.0058 42.088 25.0618 41.808 25.0618 41.836C25.0432 41.8173 24.9405 41.8313 24.7538 41.878C24.5672 41.9153 24.4552 41.934 24.4178 41.934C24.2872 41.934 23.8298 41.9993 23.0458 42.13C22.1032 42.2793 21.3892 42.424 20.9038 42.564C20.7545 42.7693 20.5352 43.0587 20.2458 43.432C19.9565 43.8053 19.6672 44.188 19.3778 44.58C19.0418 44.9813 18.6685 45.182 18.2578 45.182C17.6605 45.182 17.3618 44.8973 17.3618 44.328C17.3618 43.852 18.5378 42.536 20.8898 40.38C22.2805 39.148 23.6712 37.916 25.0618 36.684C25.3605 36.4133 25.8132 36.278 26.4198 36.278C26.8025 36.278 27.0405 36.418 27.1338 36.698C27.1712 36.81 27.1898 37.0807 27.1898 37.51L26.9658 40.296H28.5338C28.6925 40.2867 28.8138 40.3613 28.8978 40.52ZM25.2718 40.114C25.2998 39.386 25.2858 38.9007 25.2298 38.658C25.1925 38.4807 25.1132 38.3873 24.9918 38.378C24.8238 38.3593 24.7118 38.322 24.6558 38.266C24.3758 38.4713 23.9978 38.8587 23.5218 39.428C23.1952 39.8387 22.8638 40.2493 22.5278 40.66L25.2718 40.114ZM40.1397 36.712C40.1397 37.02 39.8597 37.8273 39.2997 39.134C38.6931 40.5527 38.0817 41.766 37.4657 42.774C36.6911 44.0247 36.0704 44.65 35.6037 44.65C35.2024 44.65 34.7731 44.2627 34.3157 43.488C33.9891 42.9373 33.6531 42.1953 33.3077 41.262C33.1397 40.7953 32.9764 40.3287 32.8177 39.862C32.3604 40.814 31.8611 42.2793 31.3197 44.258C31.2731 44.4073 31.1237 44.5707 30.8717 44.748C30.6197 44.916 30.4237 45 30.2837 45C29.9477 45 29.6911 44.8507 29.5137 44.552C29.3831 44.3187 29.3177 44.0667 29.3177 43.796C29.3177 43.4133 29.3831 43.054 29.5137 42.718C29.8497 41.8873 30.4237 40.7347 31.2357 39.26C31.7211 38.364 32.1784 37.692 32.6077 37.244C32.6637 37.188 32.8084 37.1413 33.0417 37.104C33.3777 37.0667 33.5737 37.0387 33.6297 37.02C34.4417 38.336 34.9597 40.1467 35.1837 42.452C35.2864 42.536 35.4404 42.676 35.6457 42.872C36.0844 42.116 36.6257 40.9727 37.2697 39.442C37.6711 38.4713 37.9371 37.86 38.0677 37.608C38.6371 36.5627 39.1784 36.04 39.6917 36.04C39.9157 36.04 40.0557 36.1333 40.1117 36.32C40.1304 36.3667 40.1397 36.4973 40.1397 36.712ZM51.6162 39.092C51.6162 40.38 50.2302 41.654 47.4582 42.914C46.5996 43.306 45.2089 43.81 43.2862 44.426C42.8382 44.566 42.2269 44.7947 41.4522 45.112C41.0229 45.2893 40.6589 45.378 40.3602 45.378C40.0709 45.378 39.8796 45.3173 39.7862 45.196C39.7209 45.112 39.6882 44.9393 39.6882 44.678C39.6882 44.118 39.8702 43.2407 40.2342 42.046C40.5982 40.842 40.7802 39.9927 40.7802 39.498C40.7802 39.1993 40.7382 38.9333 40.6542 38.7C40.7382 38.5787 40.8922 38.518 41.1162 38.518C41.2282 38.518 41.3496 38.5367 41.4802 38.574C41.5922 38.4247 41.6856 38.154 41.7602 37.762C41.8442 37.3233 41.9189 37.034 41.9842 36.894C42.1149 36.6233 42.3296 36.488 42.6282 36.488C42.7122 36.488 42.8056 36.502 42.9082 36.53C43.0482 36.6233 43.1182 36.7913 43.1182 37.034V37.09C43.1182 37.258 43.1369 37.3933 43.1742 37.496C44.2382 36.9453 44.9802 36.6187 45.4002 36.516C45.6802 36.4507 46.3009 36.418 47.2622 36.418C48.4102 36.418 49.2969 36.53 49.9222 36.754C51.0516 37.1647 51.6162 37.944 51.6162 39.092ZM50.2022 39.414C50.2022 38.826 49.7169 38.3687 48.7462 38.042C48.0556 37.818 47.3929 37.706 46.7582 37.706C45.7502 37.706 44.8356 37.9207 44.0142 38.35C43.7342 38.49 43.4542 38.6347 43.1742 38.784C42.8476 38.9613 42.6609 39.092 42.6142 39.176C42.3436 39.7173 42.0962 40.4173 41.8722 41.276C41.6949 41.9853 41.5176 42.6993 41.3402 43.418C42.4696 43.1007 44.1402 42.606 46.3522 41.934C48.9189 41.1127 50.2022 40.2727 50.2022 39.414ZM70.465 39.456C70.465 39.54 70.367 39.6987 70.171 39.932C69.975 40.156 69.8024 40.282 69.653 40.31C69.5037 40.338 68.7337 40.4593 67.343 40.674C66.419 40.814 65.4484 41.0193 64.431 41.29C64.0484 41.3833 63.6704 41.4767 63.297 41.57C62.7744 41.71 62.373 41.8593 62.093 42.018C61.7384 42.2233 61.407 42.886 61.099 44.006C60.847 44.9673 60.595 45.9287 60.343 46.89C60.0257 47.8793 59.6664 48.374 59.265 48.374C58.8824 48.374 58.579 48.164 58.355 47.744C58.1777 47.4267 58.089 47.1187 58.089 46.82C58.089 46.204 58.355 45.4013 58.887 44.412C59.419 43.4133 59.685 42.8113 59.685 42.606C59.685 42.4753 59.5684 42.2653 59.335 41.976C59.111 41.6867 58.999 41.402 58.999 41.122C58.999 40.7393 59.279 40.5013 59.839 40.408C60.1377 40.38 60.441 40.352 60.749 40.324C60.7584 40.3053 61.267 39.05 62.275 36.558C62.5924 35.7833 62.9517 35.312 63.353 35.144C63.7077 35.004 64.585 34.934 65.985 34.934C66.041 34.934 66.167 34.9293 66.363 34.92C66.559 34.9107 66.7177 34.906 66.839 34.906C67.9404 34.906 68.491 35.2467 68.491 35.928C68.491 36.3947 68.337 36.7167 68.029 36.894C67.8237 37.006 67.5064 37.062 67.077 37.062H64.963C64.5337 37.062 64.0997 37.4073 63.661 38.098C63.2597 38.7233 63.0917 39.1667 63.157 39.428L68.981 38.728C69.317 38.728 69.6204 38.7747 69.891 38.868C70.2737 38.9987 70.465 39.1947 70.465 39.456ZM76.3116 40.016C76.3116 41.2013 75.8869 42.3307 75.0376 43.404C74.0949 44.5893 72.9702 45.182 71.6636 45.182C70.6462 45.182 69.8529 44.8833 69.2836 44.286C68.7329 43.7167 68.4576 42.9607 68.4576 42.018C68.4576 41.6447 68.5929 41.01 68.8636 40.114C69.1996 39.022 69.5916 38.1213 70.0396 37.412C70.6276 36.4973 71.2482 36.04 71.9016 36.04C73.1616 36.04 74.1882 36.362 74.9816 37.006C75.8682 37.7247 76.3116 38.728 76.3116 40.016ZM73.8336 40.576C73.8336 40.5853 73.8662 40.408 73.9316 40.044C74.0062 39.68 74.0436 39.358 74.0436 39.078C74.0436 37.9393 73.4836 37.4167 72.3636 37.51C71.7662 37.5567 71.2016 38.2333 70.6696 39.54C70.2216 40.632 69.9976 41.4627 69.9976 42.032C69.9976 42.368 70.0536 42.6713 70.1656 42.942C70.3616 43.4647 70.7209 43.726 71.2436 43.726C71.9622 43.726 72.6016 43.278 73.1616 42.382C73.6096 41.654 73.8336 41.052 73.8336 40.576ZM85.2405 37.874C85.1658 39.0593 84.1765 39.764 82.2725 39.988C82.9445 40.3893 83.5698 40.8373 84.1485 41.332C85.0165 42.0787 85.4505 42.6993 85.4505 43.194C85.4505 43.362 85.4085 43.5767 85.3245 43.838C85.2312 44.1647 85.1238 44.328 85.0025 44.328C84.9372 44.328 84.7132 44.0853 84.3305 43.6C83.9572 43.1147 83.7378 42.8627 83.6725 42.844L80.5505 41.22C80.4105 41.22 80.2005 41.1827 79.9205 41.108C79.5472 41.0053 79.3605 40.884 79.3605 40.744C79.3605 40.3053 79.7198 39.918 80.4385 39.582C80.6345 39.498 81.0452 39.3627 81.6705 39.176C82.0158 39.0827 82.2818 38.9987 82.4685 38.924C82.8605 38.7747 83.1265 38.616 83.2665 38.448C83.2292 38.3453 83.0892 38.294 82.8465 38.294C82.4078 38.294 81.7358 38.4667 80.8305 38.812C79.8972 39.1573 79.3792 39.4513 79.2765 39.694C79.1925 39.8807 79.0805 40.2493 78.9405 40.8C78.8098 41.3507 78.6652 41.8173 78.5065 42.2C78.4225 42.4053 78.3338 42.7787 78.2405 43.32C78.1752 43.684 78.0398 44.0993 77.8345 44.566C77.4985 45.3313 77.1205 45.714 76.7005 45.714C76.6258 45.714 76.5185 45.6533 76.3785 45.532C76.3598 44.8787 76.4205 44.272 76.5605 43.712C76.6445 43.3853 76.8452 42.8113 77.1625 41.99C77.5078 41.094 77.7878 40.2773 78.0025 39.54C77.7785 39.484 77.5452 39.3953 77.3025 39.274C77.2932 39.162 77.3165 39.0127 77.3725 38.826C77.4472 38.546 77.4892 38.3873 77.4985 38.35C77.7318 38.2847 78.0025 38.1587 78.3105 37.972C78.4132 37.8227 78.5158 37.6827 78.6185 37.552C78.7212 37.412 78.8892 37.342 79.1225 37.342C79.1598 37.342 79.3372 37.3653 79.6545 37.412C79.9812 37.4587 80.1678 37.482 80.2145 37.482C80.2238 37.482 80.5692 37.3653 81.2505 37.132C81.9412 36.8893 82.5618 36.768 83.1125 36.768C83.7845 36.768 84.2465 36.8007 84.4985 36.866C85.0305 37.0247 85.2778 37.3607 85.2405 37.874ZM102.629 43.236C102.629 44.0387 102.083 44.7387 100.991 45.336C100.179 45.784 99.1196 46.148 97.813 46.428C96.8516 46.6333 96.147 46.736 95.699 46.736C95.5216 46.736 95.167 46.6753 94.635 46.554C94.019 46.414 93.5243 46.2647 93.151 46.106V45.504C93.1416 44.9813 93.389 44.524 93.893 44.132L97.743 44.51C98.7603 44.4727 99.7123 44.1833 100.599 43.642V43.334C100.03 42.6153 98.989 42.1533 97.477 41.948C96.2823 41.7987 95.0923 41.6493 93.907 41.5C92.7683 41.2013 92.199 40.534 92.199 39.498C92.199 38.8353 92.675 38.0933 93.627 37.272C94.4296 36.5907 95.405 35.97 96.553 35.41C97.6263 34.8967 98.4103 34.64 98.905 34.64C99.5956 34.64 99.9876 34.6493 100.081 34.668C100.464 34.7613 100.636 35.018 100.599 35.438C100.552 35.97 100.062 36.3947 99.129 36.712C98.2423 36.9827 97.3603 37.2533 96.483 37.524C95.5216 37.9253 94.9896 38.4853 94.887 39.204C95.8483 39.344 96.805 39.484 97.757 39.624C99.1943 39.848 100.296 40.1793 101.061 40.618C102.106 41.234 102.629 42.1067 102.629 43.236ZM110.203 40.016C110.203 41.2013 109.778 42.3307 108.929 43.404C107.986 44.5893 106.862 45.182 105.555 45.182C104.538 45.182 103.744 44.8833 103.175 44.286C102.624 43.7167 102.349 42.9607 102.349 42.018C102.349 41.6447 102.484 41.01 102.755 40.114C103.091 39.022 103.483 38.1213 103.931 37.412C104.519 36.4973 105.14 36.04 105.793 36.04C107.053 36.04 108.08 36.362 108.873 37.006C109.76 37.7247 110.203 38.728 110.203 40.016ZM107.725 40.576C107.725 40.5853 107.758 40.408 107.823 40.044C107.898 39.68 107.935 39.358 107.935 39.078C107.935 37.9393 107.375 37.4167 106.255 37.51C105.658 37.5567 105.093 38.2333 104.561 39.54C104.113 40.632 103.889 41.4627 103.889 42.032C103.889 42.368 103.945 42.6713 104.057 42.942C104.253 43.4647 104.612 43.726 105.135 43.726C105.854 43.726 106.493 43.278 107.053 42.382C107.501 41.654 107.725 41.052 107.725 40.576ZM122.394 39.288C122.31 39.568 121.974 40.3567 121.386 41.654C120.835 42.8673 120.518 43.656 120.434 44.02C120.415 44.076 120.406 44.1553 120.406 44.258C120.406 44.3513 120.42 44.524 120.448 44.776C120.476 45.028 120.49 45.2193 120.49 45.35C120.49 46.0127 120.215 46.344 119.664 46.344C119.487 46.344 119.319 46.246 119.16 46.05C119.011 45.854 118.936 45.6533 118.936 45.448C118.936 45.3827 118.945 45.322 118.964 45.266L120.686 39.54C120.733 39.4373 120.747 39.386 120.728 39.386C120.709 39.3953 120.686 39.4187 120.658 39.456C119.781 40.2027 118.903 40.9493 118.026 41.696C116.523 42.9 115.515 43.502 115.002 43.502C114.423 43.502 113.817 42.4613 113.182 40.38C112.874 40.8467 112.599 41.4207 112.356 42.102C112.3 42.2513 112.113 42.8347 111.796 43.852C111.749 44.0107 111.614 44.23 111.39 44.51C111.166 44.7807 111.003 44.916 110.9 44.916C110.592 44.916 110.401 44.8087 110.326 44.594C110.289 44.51 110.27 44.3233 110.27 44.034C110.27 43.7913 110.737 42.6527 111.67 40.618C112.641 38.462 113.285 37.384 113.602 37.384C114.059 37.384 114.423 37.7293 114.694 38.42C114.881 38.9053 115.021 39.5727 115.114 40.422C115.161 40.8607 115.207 41.304 115.254 41.752C116.215 41.0613 117.181 40.366 118.152 39.666C119.916 38.434 121.008 37.818 121.428 37.818C121.717 37.818 121.965 37.972 122.17 38.28C122.338 38.5507 122.422 38.826 122.422 39.106C122.422 39.1713 122.413 39.232 122.394 39.288ZM131.268 39.932C130.353 40.1653 129.103 40.38 127.516 40.576C126.275 40.7253 125.467 40.9027 125.094 41.108C124.525 41.3973 124.268 41.9293 124.324 42.704C124.371 42.732 124.455 42.746 124.576 42.746C124.688 42.746 124.861 42.732 125.094 42.704C125.337 42.676 125.486 42.662 125.542 42.662C125.635 42.662 126.13 42.5547 127.026 42.34C127.931 42.1253 128.426 42.018 128.51 42.018C128.781 42.018 128.977 42.0413 129.098 42.088C129.313 42.1813 129.513 42.3913 129.7 42.718C129.392 43.2967 128.575 43.8707 127.25 44.44C125.99 44.9813 124.935 45.252 124.086 45.252C123.507 45.252 123.087 45.1493 122.826 44.944C122.518 44.7013 122.364 44.3 122.364 43.74C122.364 43.0027 122.7 41.6587 123.372 39.708C124.016 37.86 124.455 36.8287 124.688 36.614C124.931 36.3993 125.668 36.292 126.9 36.292C127.46 36.292 127.88 36.334 128.16 36.418C128.571 36.5487 128.944 36.8147 129.28 37.216L129.154 37.678C129.135 37.706 128.776 37.706 128.076 37.678C127.264 37.65 126.643 37.6967 126.214 37.818C125.551 38.014 125.22 38.392 125.22 38.952V39.33C125.668 39.3393 126.508 39.302 127.74 39.218C129.028 39.134 129.845 39.092 130.19 39.092C130.461 39.092 130.736 39.148 131.016 39.26C131.305 39.3627 131.45 39.4933 131.45 39.652C131.45 39.7453 131.389 39.8387 131.268 39.932ZM139.95 36.348C139.988 36.3947 140.006 36.446 140.006 36.502C140.006 36.7167 139.745 36.95 139.222 37.202C138.812 37.4073 138.518 37.5193 138.34 37.538C137.967 37.5847 137.29 37.6127 136.31 37.622C135.554 37.6313 134.952 37.6967 134.504 37.818C134.504 37.9487 134.495 38.0747 134.476 38.196C134.467 38.3173 134.425 38.4667 134.35 38.644C134.304 38.7373 134.131 39.47 133.832 40.842C133.496 42.3353 133.328 43.2593 133.328 43.614V45.168C133.244 45.364 132.913 45.462 132.334 45.462C131.924 45.462 131.718 45.126 131.718 44.454C131.718 44.146 131.798 43.6327 131.956 42.914C132.087 42.3167 132.199 41.8687 132.292 41.57C132.348 41.3927 132.446 40.8887 132.586 40.058C132.736 39.1713 132.81 38.5833 132.81 38.294C132.81 38.2007 132.759 38.1167 132.656 38.042L130.64 38.518C130.342 38.5833 130.192 38.2007 130.192 37.37C130.192 37.0527 130.276 36.8427 130.444 36.74C130.556 36.6653 130.752 36.628 131.032 36.628C131.07 36.628 131.149 36.6373 131.27 36.656C131.401 36.6747 131.494 36.684 131.55 36.684L138.242 35.676C138.812 35.6387 139.218 35.6853 139.46 35.816C139.582 35.8907 139.745 36.068 139.95 36.348ZM147.875 40.688C147.875 40.996 147.637 41.2527 147.161 41.458C146.807 41.6167 146.513 41.696 146.279 41.696H143.899C143.591 42.3587 143.437 42.788 143.437 42.984V45.714C143.437 45.8727 143.302 46.008 143.031 46.12C142.835 46.1947 142.667 46.232 142.527 46.232C142.21 46.232 141.953 46.092 141.757 45.812C141.599 45.5973 141.519 45.3827 141.519 45.168C141.519 45.1213 141.575 44.7293 141.687 43.992C141.799 43.1707 141.874 42.5033 141.911 41.99C141.762 42.018 141.552 42.032 141.281 42.032C141.095 42.032 140.866 42.0273 140.595 42.018C140.334 41.9993 140.189 41.99 140.161 41.99C139.545 41.99 139.177 42.3633 139.055 43.11C139.027 43.81 138.999 44.5053 138.971 45.196C138.906 45.952 138.631 46.33 138.145 46.33C137.679 46.33 137.445 45.8867 137.445 45C137.445 44.888 137.45 44.7667 137.459 44.636C137.469 44.5053 137.473 44.44 137.473 44.44C137.473 41.9013 137.893 39.6753 138.733 37.762C138.929 37.706 139.107 37.678 139.265 37.678C139.853 37.678 140.147 38.0887 140.147 38.91C140.147 39.0593 140.119 39.4187 140.063 39.988C140.213 40.0347 140.567 40.058 141.127 40.058C142.005 40.058 142.588 39.8247 142.877 39.358C142.971 39.2273 143.092 38.798 143.241 38.07C143.335 37.6033 143.577 37.37 143.969 37.37C144.268 37.37 144.501 37.4773 144.669 37.692C144.819 37.8693 144.893 38.0793 144.893 38.322C144.893 38.4153 144.8 38.6533 144.613 39.036C144.399 39.5027 144.263 39.82 144.207 39.988C144.889 40.044 145.565 40.1 146.237 40.156C147.329 40.268 147.875 40.4453 147.875 40.688ZM150.632 36.292C150.678 37.1787 150.543 38.1447 150.226 39.19C149.908 40.114 149.586 41.0333 149.26 41.948C148.896 43.012 148.648 43.9313 148.518 44.706C148.238 44.902 148.023 45 147.874 45C147.379 45 147.132 44.6453 147.132 43.936C147.132 43.096 147.384 42.0787 147.888 40.884C148.84 38.5973 149.442 37.0807 149.694 36.334C149.871 36.194 150.048 36.124 150.226 36.124C150.366 36.124 150.501 36.18 150.632 36.292ZM161.884 36.712C161.884 37.02 161.604 37.8273 161.044 39.134C160.437 40.5527 159.826 41.766 159.21 42.774C158.435 44.0247 157.815 44.65 157.348 44.65C156.947 44.65 156.517 44.2627 156.06 43.488C155.733 42.9373 155.397 42.1953 155.052 41.262C154.884 40.7953 154.721 40.3287 154.562 39.862C154.105 40.814 153.605 42.2793 153.064 44.258C153.017 44.4073 152.868 44.5707 152.616 44.748C152.364 44.916 152.168 45 152.028 45C151.692 45 151.435 44.8507 151.258 44.552C151.127 44.3187 151.062 44.0667 151.062 43.796C151.062 43.4133 151.127 43.054 151.258 42.718C151.594 41.8873 152.168 40.7347 152.98 39.26C153.465 38.364 153.923 37.692 154.352 37.244C154.408 37.188 154.553 37.1413 154.786 37.104C155.122 37.0667 155.318 37.0387 155.374 37.02C156.186 38.336 156.704 40.1467 156.928 42.452C157.031 42.536 157.185 42.676 157.39 42.872C157.829 42.116 158.37 40.9727 159.014 39.442C159.415 38.4713 159.681 37.86 159.812 37.608C160.381 36.5627 160.923 36.04 161.436 36.04C161.66 36.04 161.8 36.1333 161.856 36.32C161.875 36.3667 161.884 36.4973 161.884 36.712ZM169.902 43.306C169.921 43.4087 169.618 43.6 168.992 43.88C168.311 44.1787 167.56 44.4307 166.738 44.636C165.721 44.888 164.797 45.014 163.966 45.014C162.258 45.014 161.404 44.1507 161.404 42.424C161.404 41.6867 161.778 40.8047 162.524 39.778C163.215 38.8073 164.041 37.9673 165.002 37.258C166.001 36.5207 166.85 36.152 167.55 36.152C167.98 36.152 168.39 36.2593 168.782 36.474C169.24 36.726 169.468 37.048 169.468 37.44C169.468 37.7947 169.384 38.1307 169.216 38.448C169.02 38.8213 168.764 39.008 168.446 39.008C168.138 39.008 167.882 38.9007 167.676 38.686C167.602 38.6113 167.466 38.42 167.27 38.112C167.14 37.8973 167.014 37.79 166.892 37.79C166.435 37.79 165.674 38.3407 164.61 39.442C163.556 40.534 163.028 41.332 163.028 41.836C163.028 42.704 163.607 43.138 164.764 43.138C165.614 43.138 166.038 42.9653 166.038 42.62C166.038 42.508 165.758 42.354 165.198 42.158C164.648 41.9527 164.372 41.7427 164.372 41.528C164.372 41.1547 164.825 40.9213 165.73 40.828C165.908 40.8093 166.379 40.8 167.144 40.8C168.059 40.8 168.684 40.94 169.02 41.22C169.422 41.5467 169.716 42.242 169.902 43.306Z" fill="#C8C492"/>
<path d="M35.7136 3.424C35.7136 3.59467 35.3213 5.00267 34.5366 7.648C33.4422 11.2107 32.8227 13.2587 32.6781 13.792C31.9554 16.3307 31.4288 18.0693 31.0984 19.008C30.3138 21.376 29.4878 23.3387 28.6205 24.896C28.4346 25.216 27.8771 25.376 26.9479 25.376C25.4817 25.376 24.0672 23.9787 22.7043 21.184C21.9197 19.2427 21.1246 17.3013 20.3193 15.36C18.3369 17.5147 16.3649 19.6693 14.4032 21.824C11.2025 25.1947 8.95164 26.88 7.65071 26.88C7.27902 26.88 6.7318 26.7093 6.00906 26.368C5.14177 25.9627 4.66683 25.536 4.58423 25.088C4.48098 24.4693 4.06799 21.8347 3.34525 17.184C2.78771 13.7067 2.27147 10.9333 1.79652 8.864C1.69327 8.52267 1.35255 7.75467 0.774364 6.56C0.258121 5.55733 0 4.75733 0 4.16C0 3.81867 0.185847 3.30667 0.557542 2.624C1.03248 1.728 1.56938 1.28 2.16822 1.28C2.58121 1.28 3.16973 1.51467 3.93377 1.984C4.71845 2.432 5.17275 2.85867 5.29665 3.264C5.85419 5.20533 6.54595 7.89333 7.37194 11.328C8.32183 15.2107 9.00327 17.9093 9.41626 19.424C11.3367 17.2907 13.2468 15.168 15.1465 13.056C18.2027 9.89867 20.5155 8.32 22.0848 8.32C23.3858 8.32 24.5938 9.184 25.7089 10.912C26.1632 11.616 26.8549 13.024 27.7842 15.136C28.6927 14.496 29.7046 10.688 30.8197 3.712C30.8816 3.34933 31.181 2.89067 31.7179 2.336C32.2755 1.78133 32.7814 1.504 33.2357 1.504C33.9378 1.504 34.5263 1.68533 35.0012 2.048C35.4762 2.41067 35.7136 2.86933 35.7136 3.424Z" fill="#C8C492"/>
<path d="M83.4849 14.624C83.2784 15.7547 83.0615 16.48 82.8344 16.8C82.6072 17.12 82.2252 17.28 81.6883 17.28C81.5644 17.28 81.3063 17.2693 80.914 17.248C80.5216 17.2267 80.1912 17.216 79.9228 17.216C79.9641 17.216 79.5924 17.2587 78.8077 17.344C78.1676 17.408 77.7236 17.408 77.4758 17.344C77.3519 18.3467 77.228 19.3493 77.1041 20.352C76.815 22.4213 76.433 24.0747 75.958 25.312C75.2972 27.0613 74.4919 27.936 73.542 27.936C72.1378 27.936 71.4358 26.2187 71.4358 22.784C71.4358 21.9307 71.4771 20.9707 71.5597 19.904C71.6629 18.816 71.7145 18.304 71.7145 18.368C71.6732 18.3253 71.6526 18.24 71.6526 18.112C71.6732 17.9627 71.6113 17.888 71.4667 17.888C71.0331 17.888 69.8251 18.0267 67.8427 18.304C65.3648 18.6667 63.465 19.0507 62.1434 19.456C62.0402 19.4773 61.6478 19.968 60.9664 20.928C60.161 22.0587 59.6861 22.7093 59.5415 22.88C58.7362 23.9893 57.9309 25.0987 57.1255 26.208C56.2169 27.36 55.1948 27.936 54.059 27.936C52.3864 27.936 51.5501 27.1253 51.5501 25.504C51.5501 24.1387 54.8024 20.3733 61.3071 14.208C65.1686 10.688 69.0197 7.168 72.8606 3.648C73.2529 3.30667 73.8414 3.01867 74.6261 2.784C75.3489 2.592 76.02 2.496 76.6395 2.496C77.672 2.496 78.3224 2.89067 78.5909 3.68C78.7148 4.02133 78.7767 4.8 78.7767 6.016L78.1572 13.952H82.4627C82.8963 13.9307 83.2371 14.1547 83.4849 14.624ZM71.9314 13.76C71.8488 12.9493 71.7662 12.1387 71.6836 11.328C71.5803 10.3253 71.3325 9.632 70.9402 9.248C70.1761 9.824 69.2675 10.752 68.2144 12.032C67.4297 13.0347 66.645 14.0267 65.8603 15.008L71.9314 13.76Z" fill="#C8C492"/>
<path d="M131.909 1.888C131.909 2.784 131.135 5.09867 129.586 8.832C127.913 12.8853 126.22 16.352 124.506 19.232C122.379 22.7947 120.676 24.576 119.395 24.576C118.26 24.576 117.062 23.4773 115.802 21.28C114.894 19.7013 113.965 17.5787 113.015 14.912C112.56 13.568 112.106 12.224 111.652 10.88C110.392 13.632 109.009 17.824 107.501 23.456C107.398 23.904 106.985 24.3733 106.262 24.864C105.56 25.3547 105.023 25.6 104.652 25.6C103.722 25.6 103.01 25.1627 102.514 24.288C102.143 23.648 101.957 22.944 101.957 22.176C101.957 21.0453 102.143 20.0107 102.514 19.072C103.464 16.704 105.054 13.408 107.284 9.184C108.627 6.624 109.886 4.704 111.063 3.424C111.229 3.25333 111.631 3.12533 112.271 3.04C113.201 2.912 113.748 2.82667 113.913 2.784C116.164 6.56 117.599 11.7333 118.218 18.304C118.487 18.56 118.91 18.9653 119.488 19.52C120.686 17.3653 122.173 14.0907 123.949 9.696C125.084 6.92267 125.828 5.184 126.179 4.48C127.748 1.49333 129.245 0 130.67 0C131.29 0 131.682 0.266666 131.847 0.799999C131.889 0.928 131.909 1.29067 131.909 1.888Z" fill="#C8C492"/>
<path d="M171.351 23.424C171.351 23.7227 170.525 24.2347 168.873 24.96C167.056 25.7707 165.043 26.4427 162.833 26.976C160.128 27.6587 157.619 28 155.307 28C150.598 28 148.244 25.5253 148.244 20.576C148.244 18.464 149.267 15.9467 151.311 13.024C153.252 10.272 155.544 7.88267 158.187 5.856C160.954 3.72267 163.298 2.656 165.218 2.656C166.395 2.656 167.531 2.96533 168.626 3.584C169.906 4.30933 170.546 5.23733 170.546 6.368C170.546 7.30667 170.081 8.43733 169.152 9.76C168.182 11.168 167.242 11.872 166.334 11.872C165.879 11.872 165.549 11.4133 165.342 10.496C165.033 9.024 164.847 8.21333 164.785 8.064C164.434 7.21067 163.825 6.848 162.957 6.976C161.677 7.14667 159.467 8.87467 156.329 12.16C153.128 15.5093 151.528 17.888 151.528 19.296C151.528 20.7253 152.271 21.8027 153.758 22.528C154.852 23.0827 156.081 23.36 157.444 23.36C158.084 23.36 158.796 23.2 159.581 22.88C160.552 22.4533 161.037 21.9413 161.037 21.344C161.037 21.3227 161.047 21.1733 161.068 20.896C161.088 20.6827 161.088 20.5013 161.068 20.352C161.047 20.16 161.006 20.0533 160.944 20.032C160.903 19.9893 160.035 19.744 158.342 19.296C157.062 18.9547 156.422 18.528 156.422 18.016C156.422 16.6293 158.476 15.936 162.586 15.936C162.937 15.936 163.288 15.936 163.639 15.936C163.99 15.9573 164.145 15.968 164.103 15.968C166.54 15.968 168.202 16.416 169.09 17.312C170.061 18.2507 170.815 20.288 171.351 23.424Z" fill="#C8C492"/>
<path d="M93.3573 13.3448C92.4686 13.3115 90.5718 14.0787 89.9845 15.3956C89.3973 16.7132 89.7432 17.7303 90.2404 17.9138C90.7375 18.0967 92.0777 17.6133 92.0777 17.6133C92.0777 17.6133 92.4091 18.6803 93.5986 19.1975C93.5986 19.1975 93.2521 20.8814 94.2765 20.9645C95.3002 21.0483 95.9631 19.7307 95.6317 18.9636C95.3002 18.1964 94.5923 18.0967 94.5923 18.0967C94.5923 18.0967 94.2459 17.1799 94.6224 16.9466C94.9988 16.7132 95.8724 16.9964 96.0532 15.7958C96.2339 14.5953 94.2459 13.3786 93.3573 13.3448V13.3448ZM94.2008 15.6795C93.9751 16.1129 92.9207 16.3801 92.9207 16.3801C91.987 15.4627 92.3935 14.5288 93.1165 14.5626C93.8388 14.5958 94.4266 15.246 94.2008 15.6795V15.6795Z" fill="#C8C492"/>
<path d="M94.2059 18.2888C94.3518 18.0792 94.3368 17.7604 94.1105 17.6351C94.1276 17.6018 94.1421 17.5674 94.1528 17.5324C94.2006 17.3822 94.0268 17.3139 93.9362 17.3928C93.8101 17.5033 93.7034 17.6755 93.5372 17.7153C93.2481 17.7847 93.172 17.4677 93.2808 17.2272C93.3564 17.0603 93.4701 16.9166 93.5956 16.7931C93.7082 16.6821 93.8638 16.6132 93.9383 16.4648C93.9764 16.3894 93.9265 16.3169 93.8568 16.3074C93.6042 16.2742 93.3243 16.6138 93.1838 16.811C93.0888 16.944 93.0003 17.1031 92.9542 17.2717C92.8963 17.2503 92.8277 17.2598 92.7789 17.3127C92.3638 17.761 92.7671 18.8179 93.3575 18.7454C93.6353 18.7116 94.03 18.54 94.2048 18.2888H94.2059Z" fill="#E3E0BC"/>
<path d="M95.2584 18.7213C95.1677 18.7261 95.0755 18.7427 94.9838 18.7671C94.9843 18.732 94.9699 18.6958 94.9414 18.681C94.6824 18.5462 94.366 18.7285 94.1584 18.9078C93.9187 19.115 93.7053 19.4267 93.6774 19.7699C93.6688 19.8726 93.7477 19.9326 93.827 19.9344C93.8753 20.0258 94.0067 20.0721 94.0743 19.9789C94.2346 19.7575 94.3805 19.5389 94.5971 19.3798C94.817 19.2183 95.0482 19.15 95.3034 19.0936C95.4917 19.0521 95.4498 18.7118 95.2578 18.7219L95.2584 18.7213Z" fill="#E3E0BC"/>
<path d="M96.3729 15.164C96.2013 14.6676 95.8688 14.303 95.4993 13.9794C95.1325 13.6582 94.7517 13.3447 94.313 13.1535C93.3777 12.7462 92.3475 13.0686 91.4814 13.5305C90.6695 13.9634 89.8586 14.6581 89.472 15.5814C89.2746 16.0534 89.1529 16.5266 89.2242 17.0498C89.2902 17.5337 89.539 17.995 89.9235 18.2497C90.3692 18.5448 90.9113 18.4789 91.3897 18.3323C91.4096 18.3263 91.4299 18.3198 91.4498 18.3133C91.7099 18.2296 91.9904 18.3317 92.1534 18.5716C92.2998 18.7865 92.4746 18.9771 92.6902 19.1398C92.7723 19.2015 92.8575 19.2514 92.945 19.2894C93.1037 19.3583 93.2045 19.5323 93.2002 19.7211C93.1868 20.3493 93.4357 21.0618 94.0031 21.291C94.7528 21.5938 95.4146 20.9983 95.7519 20.2953C96.0404 19.6944 96.042 18.7871 95.5342 18.2842C95.3631 18.115 95.2043 18.014 95.0676 17.8959C94.8761 17.7314 94.933 17.3941 95.1641 17.314C95.5138 17.1928 95.9181 16.9886 96.1428 16.706C96.4834 16.2779 96.5552 15.6924 96.3724 15.164H96.3729ZM93.2115 15.8557C93.0249 15.8866 92.8318 15.8213 92.702 15.6693C92.6779 15.6408 92.6559 15.6099 92.6382 15.5754C92.5492 15.4056 92.6114 15.1847 92.7261 15.0511C92.8886 14.8617 93.1546 14.8249 93.3772 14.8653C93.5601 14.8985 93.8572 15.0114 93.9124 15.24C93.9612 15.4412 93.7864 15.6289 93.6405 15.7179C93.5134 15.7957 93.3633 15.8302 93.2115 15.8551V15.8557ZM94.793 20.3713C94.3865 20.5725 93.9698 20.3048 93.9317 19.8167C93.9285 19.7787 93.9274 19.7407 93.928 19.7039C93.9307 19.4432 94.062 19.2051 94.2632 19.0697C94.313 19.0365 94.3629 19.0003 94.4122 18.9623C94.6305 18.793 94.9169 18.7616 95.1486 18.9059C95.1748 18.9225 95.2 18.9403 95.2242 18.9605C95.6832 19.3429 95.1936 20.1729 94.793 20.3713V20.3713ZM95.4526 16.155C95.1062 16.4999 94.6117 16.453 94.2358 16.7184C93.8743 16.9737 93.9012 17.4226 94.0883 17.8139C94.157 17.9576 94.1205 18.1352 94.0073 18.2385C93.9666 18.2759 93.928 18.3091 93.9006 18.3299C93.7424 18.4493 93.5547 18.5894 93.3536 18.5597C93.0956 18.5223 92.9391 18.3002 92.8248 18.0455C92.731 17.8365 92.7664 17.5853 92.9085 17.4131C93.0254 17.2712 93.1176 17.1163 93.175 16.9518C93.2485 16.7404 93.4131 16.5807 93.6137 16.5344C93.818 16.4875 94.0111 16.3966 94.1704 16.2464C94.497 15.9376 94.594 15.5042 94.4122 15.0779C94.1012 14.3499 93.1026 14.078 92.5057 14.5209C92.2172 14.7353 92.0327 15.1206 92.0386 15.5072C92.0413 15.6865 92.0896 15.8664 92.177 16.0172C92.2505 16.1437 92.4741 16.3022 92.4795 16.4607C92.4913 16.7897 91.8869 17.0385 91.682 17.1465C91.364 17.314 90.9012 17.5182 90.5408 17.447C90.2598 17.3912 90.13 17.0688 90.0769 16.7891C90.0045 16.4085 90.0613 16.0071 90.226 15.6663C90.3198 15.4721 90.4056 15.2815 90.5413 15.1194C90.692 14.9395 90.8593 14.7762 91.0395 14.6343C91.3924 14.357 91.7839 14.1302 92.1883 13.9616C92.5926 13.793 93.0179 13.673 93.4528 13.6879C93.8936 13.7027 94.2926 13.8945 94.6423 14.1848C95.1185 14.5797 96.1375 15.4715 95.4516 16.155H95.4526Z" fill="#4B4D37"/>
<path d="M43.7439 13.3448C42.8552 13.3115 40.9584 14.0787 40.3711 15.3956C39.7839 16.7132 40.1298 17.7303 40.6269 17.9138C41.1241 18.0967 42.4643 17.6133 42.4643 17.6133C42.4643 17.6133 42.7957 18.6803 43.9852 19.1975C43.9852 19.1975 43.6387 20.8814 44.6631 20.9645C45.6868 21.0483 46.3497 19.7307 46.0183 18.9636C45.6868 18.1964 44.9789 18.0967 44.9789 18.0967C44.9789 18.0967 44.6325 17.1799 45.009 16.9466C45.3854 16.7132 46.259 16.9964 46.4398 15.7958C46.6205 14.5953 44.6325 13.3786 43.7439 13.3448V13.3448ZM44.5874 15.6795C44.3617 16.1129 43.3073 16.3801 43.3073 16.3801C42.3736 15.4627 42.7801 14.5288 43.5031 14.5626C44.2254 14.5958 44.8132 15.246 44.5874 15.6795V15.6795Z" fill="#C8C492"/>
<path d="M44.5924 18.2888C44.7383 18.0792 44.7233 17.7604 44.4969 17.6351C44.5141 17.6018 44.5286 17.5674 44.5393 17.5324C44.587 17.3822 44.4133 17.3139 44.3226 17.3928C44.1966 17.5033 44.0899 17.6755 43.9236 17.7153C43.6346 17.7847 43.5584 17.4677 43.6673 17.2272C43.7429 17.0603 43.8566 16.9166 43.9821 16.7931C44.0947 16.6821 44.2502 16.6132 44.3248 16.4648C44.3629 16.3894 44.313 16.3169 44.2433 16.3074C43.9907 16.2742 43.7107 16.6138 43.5702 16.811C43.4753 16.944 43.3868 17.1031 43.3407 17.2717C43.2828 17.2503 43.2141 17.2598 43.1653 17.3127C42.7502 17.761 43.1535 18.8179 43.744 18.7454C44.0218 18.7116 44.4165 18.54 44.5913 18.2888H44.5924Z" fill="#E3E0BC"/>
<path d="M45.645 18.7213C45.5543 18.7261 45.4621 18.7427 45.3704 18.7671C45.3709 18.732 45.3565 18.6958 45.328 18.681C45.069 18.5462 44.7526 18.7285 44.545 18.9078C44.3053 19.115 44.0919 19.4267 44.064 19.7699C44.0554 19.8726 44.1343 19.9326 44.2136 19.9344C44.2619 20.0258 44.3933 20.0721 44.4609 19.9789C44.6212 19.7575 44.7671 19.5389 44.9837 19.3798C45.2036 19.2183 45.4348 19.15 45.69 19.0936C45.8783 19.0521 45.8364 18.7118 45.6444 18.7219L45.645 18.7213Z" fill="#E3E0BC"/>
<path d="M46.7596 15.164C46.588 14.6676 46.2555 14.303 45.8859 13.9794C45.5191 13.6582 45.1384 13.3447 44.6997 13.1535C43.7644 12.7462 42.7342 13.0686 41.8681 13.5305C41.0561 13.9634 40.2453 14.6581 39.8586 15.5814C39.6613 16.0534 39.5395 16.5266 39.6108 17.0498C39.6768 17.5337 39.9256 17.995 40.3102 18.2497C40.7558 18.5448 41.298 18.4789 41.7764 18.3323C41.7962 18.3263 41.8166 18.3198 41.8364 18.3133C42.0965 18.2296 42.377 18.3317 42.54 18.5716C42.6865 18.7865 42.8613 18.9771 43.0769 19.1398C43.1589 19.2015 43.2442 19.2514 43.3316 19.2894C43.4904 19.3583 43.5912 19.5323 43.5869 19.7211C43.5735 20.3493 43.8223 21.0618 44.3897 21.291C45.1394 21.5938 45.8012 20.9983 46.1385 20.2953C46.4271 19.6944 46.4287 18.7871 45.9208 18.2842C45.7497 18.115 45.591 18.014 45.4542 17.8959C45.2628 17.7314 45.3196 17.3941 45.5508 17.314C45.9004 17.1928 46.3048 16.9886 46.5295 16.706C46.87 16.2779 46.9419 15.6924 46.759 15.164H46.7596ZM43.5981 15.8557C43.4115 15.8866 43.2185 15.8213 43.0887 15.6693C43.0645 15.6408 43.0426 15.6099 43.0249 15.5754C42.9358 15.4056 42.998 15.1847 43.1128 15.0511C43.2753 14.8617 43.5413 14.8249 43.7639 14.8653C43.9467 14.8985 44.2438 15.0114 44.2991 15.24C44.3479 15.4412 44.173 15.6289 44.0272 15.7179C43.9001 15.7957 43.7499 15.8302 43.5981 15.8551V15.8557ZM45.1797 20.3713C44.7732 20.5725 44.3565 20.3048 44.3184 19.8167C44.3152 19.7787 44.3141 19.7407 44.3146 19.7039C44.3173 19.4432 44.4487 19.2051 44.6498 19.0697C44.6997 19.0365 44.7496 19.0003 44.7989 18.9623C45.0172 18.793 45.3035 18.7616 45.5352 18.9059C45.5615 18.9225 45.5867 18.9403 45.6108 18.9605C46.0699 19.3429 45.5803 20.1729 45.1797 20.3713V20.3713ZM45.8393 16.155C45.4928 16.4999 44.9984 16.453 44.6225 16.7184C44.261 16.9737 44.2878 17.4226 44.475 17.8139C44.5436 17.9576 44.5072 18.1352 44.394 18.2385C44.3532 18.2759 44.3146 18.3091 44.2873 18.3299C44.1291 18.4493 43.9414 18.5894 43.7403 18.5597C43.4823 18.5223 43.3257 18.3002 43.2115 18.0455C43.1176 17.8365 43.153 17.5853 43.2951 17.4131C43.4121 17.2712 43.5043 17.1163 43.5617 16.9518C43.6352 16.7404 43.7998 16.5807 44.0004 16.5344C44.2047 16.4875 44.3978 16.3966 44.557 16.2464C44.8836 15.9376 44.9807 15.5042 44.7989 15.0779C44.4879 14.3499 43.4893 14.078 42.8924 14.5209C42.6039 14.7353 42.4194 15.1206 42.4253 15.5072C42.428 15.6865 42.4762 15.8664 42.5636 16.0172C42.6371 16.1437 42.8608 16.3022 42.8661 16.4607C42.8779 16.7897 42.2735 17.0385 42.0687 17.1465C41.7506 17.314 41.2878 17.5182 40.9274 17.447C40.6464 17.3912 40.5166 17.0688 40.4635 16.7891C40.3911 16.4085 40.448 16.0071 40.6126 15.6663C40.7065 15.4721 40.7923 15.2815 40.928 15.1194C41.0787 14.9395 41.246 14.7762 41.4262 14.6343C41.7791 14.357 42.1705 14.1302 42.5749 13.9616C42.9793 13.793 43.4045 13.673 43.8395 13.6879C44.2803 13.7027 44.6793 13.8945 45.029 14.1848C45.5052 14.5797 46.5241 15.4715 45.8382 16.155H45.8393Z" fill="#4B4D37"/>
<path d="M138.46 13.3448C137.571 13.3115 135.674 14.0787 135.087 15.3956C134.5 16.7132 134.846 17.7303 135.343 17.9138C135.84 18.0967 137.18 17.6133 137.18 17.6133C137.18 17.6133 137.512 18.6803 138.701 19.1975C138.701 19.1975 138.355 20.8814 139.379 20.9645C140.403 21.0483 141.066 19.7307 140.734 18.9636C140.403 18.1964 139.695 18.0967 139.695 18.0967C139.695 18.0967 139.348 17.1799 139.725 16.9466C140.101 16.7132 140.975 16.9964 141.156 15.7958C141.337 14.5953 139.348 13.3786 138.46 13.3448V13.3448ZM139.303 15.6795C139.078 16.1129 138.023 16.3801 138.023 16.3801C137.09 15.4627 137.496 14.5288 138.219 14.5626C138.941 14.5958 139.529 15.246 139.303 15.6795V15.6795Z" fill="#C8C492"/>
<path d="M139.309 18.2888C139.455 18.0792 139.44 17.7604 139.213 17.6351C139.23 17.6018 139.245 17.5674 139.256 17.5324C139.303 17.3822 139.13 17.3139 139.039 17.3928C138.913 17.5033 138.806 17.6755 138.64 17.7153C138.351 17.7847 138.275 17.4677 138.384 17.2272C138.459 17.0603 138.573 16.9166 138.698 16.7931C138.811 16.6821 138.967 16.6132 139.041 16.4648C139.079 16.3894 139.029 16.3169 138.96 16.3074C138.707 16.2742 138.427 16.6138 138.287 16.811C138.192 16.944 138.103 17.1031 138.057 17.2717C137.999 17.2503 137.931 17.2598 137.882 17.3127C137.467 17.761 137.87 18.8179 138.46 18.7454C138.738 18.7116 139.133 18.54 139.308 18.2888H139.309Z" fill="#E3E0BC"/>
<path d="M140.361 18.7213C140.271 18.7261 140.178 18.7427 140.087 18.7671C140.087 18.732 140.073 18.6958 140.044 18.681C139.785 18.5462 139.469 18.7285 139.261 18.9078C139.022 19.115 138.808 19.4267 138.78 19.7699C138.772 19.8726 138.851 19.9326 138.93 19.9344C138.978 20.0258 139.11 20.0721 139.177 19.9789C139.338 19.7575 139.483 19.5389 139.7 19.3798C139.92 19.2183 140.151 19.15 140.406 19.0936C140.595 19.0521 140.553 18.7118 140.361 18.7219L140.361 18.7213Z" fill="#E3E0BC"/>
<path d="M141.476 15.164C141.304 14.6676 140.971 14.303 140.602 13.9794C140.235 13.6582 139.854 13.3447 139.416 13.1535C138.48 12.7462 137.45 13.0686 136.584 13.5305C135.772 13.9634 134.961 14.6581 134.575 15.5814C134.377 16.0534 134.256 16.5266 134.327 17.0498C134.393 17.5337 134.642 17.995 135.026 18.2497C135.472 18.5448 136.014 18.4789 136.492 18.3323C136.512 18.3263 136.533 18.3198 136.552 18.3133C136.813 18.2296 137.093 18.3317 137.256 18.5716C137.402 18.7865 137.577 18.9771 137.793 19.1398C137.875 19.2015 137.96 19.2514 138.048 19.2894C138.206 19.3583 138.307 19.5323 138.303 19.7211C138.289 20.3493 138.538 21.0618 139.106 21.291C139.855 21.5938 140.517 20.9983 140.855 20.2953C141.143 19.6944 141.145 18.7871 140.637 18.2842C140.466 18.115 140.307 18.014 140.17 17.8959C139.979 17.7314 140.036 17.3941 140.267 17.314C140.616 17.1928 141.021 16.9886 141.245 16.706C141.586 16.2779 141.658 15.6924 141.475 15.164H141.476ZM138.314 15.8557C138.128 15.8866 137.934 15.8213 137.805 15.6693C137.781 15.6408 137.759 15.6099 137.741 15.5754C137.652 15.4056 137.714 15.1847 137.829 15.0511C137.991 14.8617 138.257 14.8249 138.48 14.8653C138.663 14.8985 138.96 15.0114 139.015 15.24C139.064 15.4412 138.889 15.6289 138.743 15.7179C138.616 15.7957 138.466 15.8302 138.314 15.8551V15.8557ZM139.896 20.3713C139.489 20.5725 139.072 20.3048 139.034 19.8167C139.031 19.7787 139.03 19.7407 139.031 19.7039C139.033 19.4432 139.165 19.2051 139.366 19.0697C139.416 19.0365 139.466 19.0003 139.515 18.9623C139.733 18.793 140.02 18.7616 140.251 18.9059C140.278 18.9225 140.303 18.9403 140.327 18.9605C140.786 19.3429 140.296 20.1729 139.896 20.3713V20.3713ZM140.555 16.155C140.209 16.4999 139.714 16.453 139.338 16.7184C138.977 16.9737 139.004 17.4226 139.191 17.8139C139.26 17.9576 139.223 18.1352 139.11 18.2385C139.069 18.2759 139.031 18.3091 139.003 18.3299C138.845 18.4493 138.657 18.5894 138.456 18.5597C138.198 18.5223 138.042 18.3002 137.927 18.0455C137.834 17.8365 137.869 17.5853 138.011 17.4131C138.128 17.2712 138.22 17.1163 138.278 16.9518C138.351 16.7404 138.516 16.5807 138.716 16.5344C138.921 16.4875 139.114 16.3966 139.273 16.2464C139.6 15.9376 139.697 15.5042 139.515 15.0779C139.204 14.3499 138.205 14.078 137.608 14.5209C137.32 14.7353 137.135 15.1206 137.141 15.5072C137.144 15.6865 137.192 15.8664 137.28 16.0172C137.353 16.1437 137.577 16.3022 137.582 16.4607C137.594 16.7897 136.99 17.0385 136.785 17.1465C136.467 17.314 136.004 17.5182 135.643 17.447C135.362 17.3912 135.233 17.0688 135.18 16.7891C135.107 16.4085 135.164 16.0071 135.329 15.6663C135.422 15.4721 135.508 15.2815 135.644 15.1194C135.795 14.9395 135.962 14.7762 136.142 14.6343C136.495 14.357 136.887 14.1302 137.291 13.9616C137.695 13.793 138.121 13.673 138.555 13.6879C138.996 13.7027 139.395 13.8945 139.745 14.1848C140.221 14.5797 141.24 15.4715 140.554 16.155H140.555Z" fill="#4B4D37"/>
</svg>
