<svg width="24" height="24" viewBox="0 0 24 24" fill="none" xmlns="http://www.w3.org/2000/svg">
<path d="M23 20.7921L21.3483 19.159C21.1745 19.0731 21.0875 18.8152 21.0875 18.6433V5.57857C21.0875 5.40667 21.1745 5.14881 21.3483 4.9769L23 3.08595V3H17.0888L12.6554 14.0879L7.61353 3H1.52849V3.08595L3.09321 5.23476C3.44093 5.57857 3.52786 6.09428 3.52786 6.52405V15.9788C3.61479 16.4945 3.52786 17.0962 3.26707 17.6119L0.919983 20.7921V20.8781H7.17888V20.7921L4.83179 17.6979C4.57101 17.1821 4.48408 16.6664 4.57101 16.0648V7.46952C4.65794 7.64143 4.74486 7.64143 4.83179 7.98524L10.743 21.05H10.8299L16.5672 6.86786C16.4803 7.38357 16.4803 7.98524 16.4803 8.415V18.5574C16.4803 18.8152 16.3934 18.9871 16.2195 19.159L14.4809 20.7921V20.8781H23V20.7921Z" fill="#C8C492"/>
</svg>
