<svg width="24" height="24" viewBox="0 0 24 24" fill="none" xmlns="http://www.w3.org/2000/svg">
<path d="M20 5H3C2.44772 5 2 5.44772 2 6C2 6.55228 2.44772 7 3 7H20C20.5523 7 21 6.55228 21 6C21 5.44772 20.5523 5 20 5Z" fill="white"/>
<path d="M10 11H3C2.44772 11 2 11.4477 2 12C2 12.5523 2.44772 13 3 13H10C10.5523 13 11 12.5523 11 12C11 11.4477 10.5523 11 10 11Z" fill="white"/>
<path d="M15 17H3C2.44772 17 2 17.4477 2 18C2 18.5523 2.44772 19 3 19H15C15.5523 19 16 18.5523 16 18C16 17.4477 15.5523 17 15 17Z" fill="white"/>
</svg>
