<svg width="24" height="24" viewBox="0 0 24 24" fill="none" xmlns="http://www.w3.org/2000/svg">
<g clip-path="url(#clip0_1_855)">
<path fill-rule="evenodd" clip-rule="evenodd" d="M18.2186 21.0556C19.6564 21.6391 20.1956 20.4165 20.1956 20.4165L24 2.68882C23.97 1.49401 22.2326 2.21645 22.2326 2.21645L0.934237 9.96884C0.934237 9.96884 -0.0842511 10.3023 0.00561555 10.8858C0.0954822 11.4693 0.904282 11.7472 0.904282 11.7472L6.26632 13.4143C6.26632 13.4143 7.88392 18.3325 8.21343 19.2773C8.51299 20.1942 8.78259 20.222 8.78259 20.222C9.08214 20.3331 9.35174 20.1386 9.35174 20.1386L12.8266 17.2211L18.2186 21.0556ZM19.1474 5.82855C19.1474 5.82855 19.8963 5.41176 19.8664 5.82855C19.8664 5.82855 19.9862 5.88413 19.5968 6.27313C19.2373 6.60657 10.7599 13.6643 9.62157 14.609C9.5317 14.6646 9.47179 14.748 9.47179 14.8591L9.14228 17.471C9.08237 17.7489 8.69295 17.7767 8.60308 17.5266L7.19517 13.2475C7.13526 13.0808 7.19517 12.8863 7.3749 12.7751L19.1474 5.82855Z" fill="#C8C492"/>
</g>
<defs>
<clipPath id="clip0_1_855">
<rect width="24" height="24" fill="#fff"/>
</clipPath>
</defs>
</svg>
