<svg width="24" height="24" viewBox="0 0 24 24" fill="none" xmlns="http://www.w3.org/2000/svg">
<path d="M21.3324 6.79357C21.3324 7.01006 21.3324 7.22654 21.3324 7.4121C21.3324 13.8138 16.4263 21.2052 7.48343 21.2052C4.71984 21.2052 2.17361 20.4011 0 19.0404C0.372619 19.0713 0.776289 19.1022 1.14891 19.1022C3.41567 19.1022 5.52718 18.3291 7.20396 17.0302C5.0614 16.9992 3.26041 15.5766 2.67043 13.6592C2.98095 13.7211 3.26041 13.752 3.60198 13.752C4.0367 13.752 4.47142 13.6901 4.87509 13.5664C2.63938 13.1335 0.962598 11.1851 0.962598 8.83471C0.962598 8.80378 0.962598 8.80378 0.962598 8.77285C1.61468 9.14397 2.35992 9.36045 3.16726 9.39138C1.86309 8.52544 0.99365 7.04098 0.99365 5.34004C0.99365 4.44318 1.24206 3.60817 1.64573 2.89686C4.0367 5.83486 7.63868 7.75229 11.6754 7.96877C11.5822 7.62858 11.5512 7.22654 11.5512 6.85543C11.5512 4.16484 13.7248 2 16.4263 2C17.8236 2 19.0967 2.5876 19.9661 3.51539C21.084 3.2989 22.1087 2.89686 23.0713 2.34019C22.6987 3.48446 21.9224 4.41225 20.9287 5.03078C21.9224 4.90707 22.8539 4.65966 23.7234 4.25762C23.1024 5.24726 22.295 6.11319 21.3324 6.79357Z" fill="white"/>
</svg>
